<?xml version="1.0" encoding="utf-8"?>
<!-- Generator: Adobe Illustrator 21.0.0, SVG Export Plug-In . SVG Version: 6.00 Build 0)  -->
<svg version="1.1" id="Layer_1" xmlns="http://www.w3.org/2000/svg" xmlns:xlink="http://www.w3.org/1999/xlink" x="0px" y="0px"
	 viewBox="0 0 1920 304" style="enable-background:new 0 0 1920 304;" xml:space="preserve">
<style type="text/css">
	.st0{fill:url(#SVGID_1_);}
</style>
<linearGradient id="SVGID_1_" gradientUnits="userSpaceOnUse" x1="8" y1="151.7429" x2="1911.1919" y2="151.7429">
	<stop  offset="0" style="stop-color:#001B59"/>
	<stop  offset="1" style="stop-color:#2483C5"/>
</linearGradient>
<path class="st0" d="M118.9,294.4c-17.2,0-32.9-2.9-46.7-8.6C58.5,280,46.8,272,37.4,262c-9.4-10.1-16.8-22.1-21.8-35.6
	C10.6,212.7,8,197.8,8,182c0-16.2,2.6-31.4,7.6-45.3c5-13.8,12.4-26,21.8-36.3c9.4-10.2,21.1-18.4,34.8-24.2
	c13.7-5.8,29.4-8.8,46.6-8.8c12.4,0,24.2,1.7,35.2,5.2c11,3.4,20.9,8.5,29.6,15c8.6,6.5,15.9,14.7,21.5,24.2
	c5.2,8.8,8.6,19,10.3,30.2h-38.8c-2.4-9.5-7.8-19.2-16.8-27.7c-5.2-4.9-17.2-14.5-40.9-14.5c-15,0-27.8,3.9-37.2,9.8
	c-8,5-13.7,10.7-18.9,18.2c-5.1,7.4-8.9,15.9-11.2,25.3c-2.3,9.3-3.5,19.1-3.5,28.9c0,9.5,1.2,21.2,3.5,30.2
	c2.3,9.1,6.1,17.4,11.2,24.7c5.2,7.4,11.8,13.4,20.2,17.8c10.5,5.6,24.1,7.9,36,7.9c16.3,0,32.7-5.3,44.3-15.6
	c13.5-11.9,13-22.7,19.6-30.1c7.2-8.1,20.7-7.7,27.9-7.7h6.8c-1.5,12.4-4.6,23.7-9.5,33.8c-5.2,10.8-12.2,20.2-20.7,27.8
	c-8.5,7.6-18.7,13.5-30.1,17.5C145.6,292.4,132.7,294.4,118.9,294.4L118.9,294.4z M331.5,71.7H289l-83.4,217.1h41.8l21.9-59.6h80.2
	l15.9,43.2c4.9,11.8,17,16.5,29.1,16.5h20.4L331.5,71.7z M281.9,195.6l27.5-75l27.6,75H281.9z M513.7,197.5l-12-0.3
	c-17.2,0-26.5-14.8-26.5-31.8l37.1-0.2c9.4,0,20.2-0.2,25.5-1.8c9.5-2.9,13-7.4,16.4-12.5c2.9-4.3,4.5-11.5,4.5-17.9
	c0-7.2-2.1-15.7-6.4-20.6c-5.1-5.8-11.4-7.5-20.7-8.4c-3.5-0.3-14-0.7-31.6-0.7h-38.1v185.6h-38.9V72h91.1c25.3,0,38.9,1.7,49.9,5.8
	c10.4,3.8,18.7,10.7,24.9,20.5c6.2,9.8,9.4,21.1,9.4,33.8c0,16.1-4.9,31.8-14.2,42.4c-8.3,9.4-17.1,15.4-28,19c0,0,2.2,3.9,8.7,13.8
	l49.4,81.5c-14.6,5.2-18.6,5-25.8,5c-9,0-21.1-5-28.6-16.7L513.7,197.5z M719.5,103.8h-66c-17.2,0-26.5-14.4-26.5-31.4l99.1,0l0,0
	c19.9,0,35.1,2.2,48.6,8.3c12.1,5.5,21.8,12.8,30,22.5c8.1,9.6,13.4,20.8,17.6,34.7c3.5,11.7,5.4,24.4,5.4,40.2
	c0,17.6-2.8,37.8-7.9,51c-5.4,14.2-11.8,24.5-20.5,33.3c-8.7,8.8-19.1,15.5-31,19.9c-12,4.4-29.8,6.7-43.7,6.7h-97.5V116.8h40.3
	v140.5l0,0h45c12.3,0,27.2-1.3,36.1-3.9c9.1-2.7,16.4-7.9,22.5-15.4c5.9-7.2,8.8-14.2,11.9-24.4c3.7-12.3,4.5-24.7,4.5-35.4
	c0-12.5-1.1-23.1-5.8-36.6c-3.4-10-8.3-17.4-14.2-23.3c-5.9-5.9-12.7-9.1-20.2-11.3C740.2,104.9,729.3,103.8,719.5,103.8z
	 M1688.4,72.5h37.9v217.6h-23.4c-8.7,0-15.3-4.2-20.6-11.1c-2.3-3-101-152-101-152v163.1h-39.1V72.5h30.1c11.4,0,21.7,6.7,28.3,15.5
	c6.7,8.8,87.9,137.9,87.9,137.9V72.5z M1265.4,72.5h37.8v217.4h-23.5c-8.6,0-15.3-4.3-20.6-11.2c-2.3-3-100.7-151.8-100.7-151.8
	v162.9h-39V72.5h29.9c11.3,0,21.7,6.7,28.4,15.5c6.7,8.8,87.7,137.7,87.7,137.7V72.5z M1088.4,72.5v216.7
	c-20.9,0-39.9-11.6-39.9-32.6l0-184.1H1088.4z M1445,72.1h-42.6l-83.7,218.1h41.9l22.1-59.8h80.5l15.9,43.3
	c5,11.8,17.2,16.5,29.3,16.5h20.5L1445,72.1z M1395.2,196.5l27.7-75.2l27.7,75.2H1395.2z M1895.4,123.8
	c-8.3-6.1-33.2-23.5-62.9-23.5c-22.6,0-37.1,12.2-37.1,28c0,14.3,10.3,20.9,27.9,27.5l36.5,12.6c19.9,6.9,33.5,15.7,41.5,26.5
	c6.7,9.1,9.9,19.8,9.9,33.8c0,18.2-7.9,34.9-22.4,47.2c-15.5,13.5-37.6,20.6-63.8,20.6c-32.2,0-58.6-10.3-82.9-32.1l24.1-28.7
	c18.2,16.6,38.6,25,60.9,25c24.7,0,41.3-11.6,41.3-28.8c0-14-7.6-22.5-26.6-29.4l-39.1-13.6c-17-6-29.2-13.6-37.4-22.9
	c-8.8-10.1-13.1-22.4-13.1-37.6c0-17.4,8.1-33.3,22.8-45.1c14.7-11.7,35.2-17.4,57.8-17.4c16.9,0,34,4.3,46.1,9.7
	c6.7,2.9,11,5.6,14.6,8.4C1905.6,94,1907.6,107.9,1895.4,123.8z M1088.4,7v4.6c0,17.4-5.7,37.1-34.7,37.1l-153.4,0.1v78h115.8v41.7
	H900.3v120.8h-49.7V7.1L1088.4,7z"/>
</svg>
