<?xml version="1.0" encoding="utf-8"?>
<!-- Generator: Adobe Illustrator 24.1.1, SVG Export Plug-In . SVG Version: 6.00 Build 0)  -->
<svg version="1.1" id="Layer_1" xmlns="http://www.w3.org/2000/svg" xmlns:xlink="http://www.w3.org/1999/xlink" x="0px" y="0px"
	 viewBox="0 0 453.5 127.6" style="enable-background:new 0 0 453.5 127.6;" xml:space="preserve">
<style type="text/css">
	.st0{fill:#164194;}
</style>
<g id="moka">
	<path class="st0" d="M150.4,29.1c-5.5-10.9-16-22.4-35.4-22.4c0,0-21.1-1.7-33.6,10.3C68.8,5,47.8,6.7,47.8,6.7
		C28.4,6.7,18,18.2,12.4,29.1c-4,8.1-6.1,17-6,26v63.7h33.3V42.3c0,0,0.3-12.9,12.9-12.9c6.3,0,9.9,2.9,12,5.8
		c1.7,2.5,2.7,5.5,2.6,8.6v75h28.4v-75c0-3.1,0.9-6.1,2.7-8.7c2.1-2.9,5.7-5.8,12-5.8c12.6,0,12.9,12.9,12.9,12.9v59.6
		c0,9.3,7.6,16.9,16.9,16.9l0,0h16.4V55.1C156.5,46.1,154.4,37.2,150.4,29.1"/>
	<path class="st0" d="M212.8,6.6h-6.2c-25.7,0-46.5,20.8-46.5,46.5v21.1c0,25.7,20.8,46.5,46.5,46.5h6.2c25.7,0,46.5-20.8,46.5-46.5
		v-21C259.4,27.5,238.5,6.6,212.8,6.6 M232.2,74.2c0,12.4-10,22.4-22.4,22.4s-22.4-10-22.4-22.4V53.1c0-12.4,10-22.4,22.4-22.4
		s22.4,10,22.4,22.4V74.2z"/>
	<path class="st0" d="M264.5,7.5v111.3h28.4V77.4c0-1.7,0.8-3.3,2.2-4.3c1.8-1.3,4.3-2.4,6.1-0.5c3.1,3.2,26.6,46.2,26.6,46.2H362
		l-39.1-67.3l38.7-42.4h-34.8l-33.6,40.3v-27c0-8.2-6.7-14.9-14.9-14.9l0,0L264.5,7.5z"/>
	<path class="st0" d="M447.2,79.1V35.7c0.1-4.8-1.4-9.5-4.2-13.5c-5-6.9-16-14.7-40-14.7c-42.7,0-43.9,30.1-43.9,30.1h27
		c0.9-2.5,2.7-4.6,5.1-5.9c2.3-1.3,4.9-2.1,7.5-2.3c5.7-0.5,19.7-0.7,21.9,7c2.7,9.8-11.8,13.5-17.7,13.9c-5.9,0.3-14,1.5-14,1.5
		c-32.8,5.7-32.1,27.5-32.1,27.5s-0.1,1,0,2.8v1.7V89c0,17.6,14.3,31.9,31.9,31.9h12.2C450,121,447.2,79.1,447.2,79.1 M421,75.3
		c0,2.2-0.4,4.3-1.1,6.3c-2.2,5.8-8,16.4-21.9,16.6c-7,0.1-13.5-4.4-14.9-11.3c-0.9-4.6,0.3-9.9,8.2-13.9c2.6-1.3,5.4-2.2,8.3-2.7
		c5.1-0.9,15.8-3.1,21.4-6.5V75.3z"/>
</g>
</svg>
