<?xml version="1.0" encoding="UTF-8" standalone="no"?>
<svg width="116px" height="26px" viewBox="0 0 116 26" version="1.1" xmlns="http://www.w3.org/2000/svg" xmlns:xlink="http://www.w3.org/1999/xlink">
    <!-- Generator: Sketch 3.6.1 (26313) - http://www.bohemiancoding.com/sketch -->
    <title>Fill 4</title>
    <desc>Created with Sketch.</desc>
    <defs></defs>
    <g id="Page-1" stroke="none" stroke-width="1" fill="none" fill-rule="evenodd">
        <g id="Homepage" transform="translate(-71.000000, -18.000000)" fill="#3C5CAA">
            <g id="Header">
                <path d="M86.4727834,35.4117966 C86.4736573,35.395194 86.4736573,35.3785913 86.4736573,35.3628625 L86.4727834,35.4117966 Z M105.437363,25.8845047 L105.437363,40.2449115 C105.437363,41.9016798 104.093424,43.2456196 102.435782,43.2456196 C100.779887,43.2456196 99.4350734,41.9025537 99.4350734,40.2449115 L99.4350734,25.8845047 C99.4350734,25.833823 99.4359473,25.7848889 99.4403164,25.7359548 L99.4385687,25.7359548 C99.4385687,24.7756234 98.6608663,23.9970471 97.7005348,23.9970471 C96.7428249,23.9970471 95.9432768,24.7721281 95.9415292,25.7307119 C95.9415292,25.7324595 95.942403,25.7333333 95.9415292,25.7359548 C95.9432768,25.7682863 95.9415292,25.8014915 95.9415292,25.8355706 C95.942403,25.8504256 95.9415292,25.8687759 95.9415292,25.8845047 L95.9415292,35.3628625 C95.9415292,35.4126704 95.9441507,35.4624783 95.9415292,35.5114124 C95.9415292,39.7826591 92.4785687,43.2456196 88.2064482,43.2456196 C87.1604821,43.2456196 86.1625763,43.0385235 85.2529266,42.661032 C82.4462072,41.5005951 80.4722411,38.7375669 80.4722411,35.5114124 L80.4766102,35.5114124 C80.4731149,35.4624783 80.4722411,35.4117966 80.4722411,35.3628625 L80.4704934,25.8836309 C80.4704934,25.8679021 80.4704934,25.8504256 80.4722411,25.8346968 C80.4722411,25.8006177 80.4731149,25.7682863 80.4748625,25.7359548 C80.4739887,25.7324595 80.4748625,25.7315857 80.4748625,25.729838 C80.4722411,24.7712542 79.6936648,23.9970471 78.7359548,23.9970471 C77.7764972,23.9970471 76.9979209,24.7747495 76.9979209,25.7359548 L76.9970471,25.7359548 C77.0005424,25.7840151 77.00229,25.833823 77.00229,25.8845047 L77.00229,40.2449115 C77.00229,41.9016798 75.6574765,43.2456196 74.0007081,43.2456196 C72.3439397,43.2456196 71,41.9016798 71,40.2449115 L71,25.8845047 C71,25.833823 71.0008738,25.7848889 71.0043691,25.7359548 L71.0026215,25.7359548 C71.0026215,21.4629605 74.4664557,18 78.7385763,18 C83.0106968,18 86.4727834,21.4629605 86.4727834,25.7359548 L86.4684143,25.7359548 C86.4719096,25.7840151 86.4727834,25.833823 86.4727834,25.8845047 L86.4727834,35.4117966 C86.4727834,35.4450019 86.4719096,35.4782072 86.4692881,35.5114124 L86.4692881,35.5166554 C86.4692881,35.5516083 86.470162,35.5856874 86.4727834,35.6188927 C86.5278343,36.5294162 87.284565,37.2503202 88.2090697,37.2503202 C89.1694011,37.2503202 89.9444821,36.4717439 89.9444821,35.5114124 C89.9418606,35.4624783 89.9444821,35.4126704 89.9444821,35.3628625 L89.9444821,25.8845047 C89.9444821,25.833823 89.940113,25.7848889 89.9444821,25.7359548 C89.9444821,21.4638343 93.4266667,18.0008738 97.6987872,18.0008738 C101.970908,18.0008738 105.433868,21.4629605 105.433868,25.7359548 L105.432994,25.7359548 C105.435616,25.7848889 105.437363,25.833823 105.437363,25.8845047 L105.437363,25.8845047 Z M138.42855,42.65142 L144.409868,42.65142 L144.409868,30.4371224 L144.510358,30.4371224 L154.033281,42.65142 L161.958855,42.65142 L151.042185,29.5886403 L161.312226,18.7200301 L153.63307,18.7200301 L144.409868,28.6414162 L144.409868,18.0699058 L138.427676,18.0699058 L138.427676,42.65142 L138.42855,42.65142 Z M115.236414,27.9930395 C115.550991,27.1288286 116.015864,26.3651073 116.631036,25.6992542 C117.247081,25.0351488 117.985461,24.5029906 118.849672,24.1045273 C119.713883,23.706064 120.695186,23.5059586 121.792708,23.5059586 C122.888482,23.5059586 123.868911,23.7069379 124.733122,24.1045273 C125.597333,24.5029906 126.336588,25.0351488 126.952633,25.6992542 C127.56693,26.3651073 128.032678,27.1288286 128.347254,27.9930395 C128.663578,28.8581243 128.822614,29.7546667 128.822614,30.6852881 C128.822614,31.6159096 128.663578,32.5133258 128.347254,33.3775367 C128.032678,34.2417476 127.566056,35.0063427 126.952633,35.671322 C126.335714,36.3363013 125.597333,36.8675857 124.733122,37.266049 C123.868911,37.6645122 122.889356,37.8637439 121.792708,37.8637439 C120.695186,37.8637439 119.713883,37.6645122 118.849672,37.266049 C117.985461,36.8675857 117.247081,36.3363013 116.631036,35.671322 C116.015864,35.0063427 115.550991,34.2417476 115.236414,33.3775367 C114.919217,32.5133258 114.761928,31.6159096 114.761928,30.6852881 C114.761928,29.7546667 114.919217,28.8581243 115.236414,27.9930395 L115.236414,27.9930395 Z M109.801235,35.8460866 C110.48107,37.3910056 111.403827,38.7130998 112.567759,39.8097476 C113.730817,40.9063955 115.111458,41.7548776 116.705311,42.3516987 C118.301785,42.9502674 119.997002,43.2491149 121.791834,43.2491149 C123.586667,43.2491149 125.281009,42.9502674 126.87661,42.3516987 C128.472211,41.7548776 129.851104,40.9063955 131.014162,39.8097476 C132.178094,38.7130998 133.099977,37.3910056 133.781559,35.8460866 C134.462267,34.3011676 134.803932,32.5806102 134.803932,30.6852881 C134.803932,28.7908399 134.462267,27.0711563 133.781559,25.5253635 C133.099977,23.9795706 132.178094,22.6583503 131.014162,21.5617024 C129.851104,20.4641808 128.472211,19.6174463 126.87661,19.0197514 C125.281009,18.4211827 123.586667,18.1223352 121.791834,18.1223352 C119.997002,18.1223352 118.301785,18.4211827 116.705311,19.0197514 C115.111458,19.6174463 113.730817,20.4641808 112.567759,21.5617024 C111.403827,22.6583503 110.48107,23.9795706 109.801235,25.5253635 C109.119653,27.0711563 108.778863,28.7908399 108.778863,30.6852881 C108.779736,32.5797363 109.119653,34.3011676 109.801235,35.8460866 L109.801235,35.8460866 Z M174.659872,37.8637439 C170.612324,37.8637439 168.03542,34.3693258 168.03542,30.6197514 C168.03542,26.9138682 170.697959,23.4631412 174.659872,23.4631412 C178.793055,23.4631412 181.136648,26.7434727 181.136648,30.6197514 C181.136648,34.5397213 178.835872,37.8637439 174.659872,37.8637439 L174.659872,37.8637439 Z M187,18.7514878 L181.802501,18.7514878 L181.802501,22.7055367 L181.702011,22.7055367 C179.826787,19.8656121 176.987736,18.0410697 173.488949,18.0410697 C166.596234,18.0410697 161.954486,23.9717062 161.954486,30.4598418 C161.954486,37.2529416 166.393507,43.2849416 173.642742,43.2849416 C177.038418,43.2849416 179.877469,41.4603992 181.702011,38.7742674 L181.802501,38.7742674 L181.802501,42.65142 L187,42.65142 L187,18.7514878 L187,18.7514878 Z" id="Fill-4"></path>
            </g>
        </g>
    </g>
</svg>