<svg id="Layer_1" data-name="Layer 1" xmlns="http://www.w3.org/2000/svg" viewBox="0 0 137.56 30.63"><title>6OptimistHub</title><path d="M20,15.3a9.51,9.51,0,0,1-9.82,9.5,9.52,9.52,0,1,1,0-19A9.51,9.51,0,0,1,20,15.3Zm-14.73,0a4.81,4.81,0,0,0,4.81,5.08,5,5,0,0,0,5-5.08,4.86,4.86,0,0,0-4.91-5.05A4.87,4.87,0,0,0,5.24,15.3Z"/><path d="M27,23v7.65H22V6.12H27V7.54a9,9,0,0,1,5.34-1.6,9.23,9.23,0,0,1,9.21,9.29,9.32,9.32,0,0,1-9.21,9.39A9,9,0,0,1,27,23Zm-.07-7.65a4.93,4.93,0,0,0,5,4.91,4.83,4.83,0,0,0,4.8-4.91,4.8,4.8,0,0,0-4.8-4.9A4.86,4.86,0,0,0,26.89,15.33Z"/><path d="M43.56,6.12V0H48.5V6.19H53V10.6H48.5v7.26c0,1.64.75,2.28,2.42,2.28H53v4.23H50.57c-4.84,0-7-2.17-7-6.26v-12Z"/><path d="M117.72,6.12V0h4.94V6.07h4.48v4.41h-4.48v7.38c0,1.64.75,2.28,2.42,2.28h2.06v4.23h-2.42c-4.84,0-7-2.17-7-6.26V10.53"/><path d="M55,4.55V0H60V4.55Zm0,19.82V6.12H60V24.37Z"/><path d="M66.9,7.93A6.9,6.9,0,0,1,72,5.8a6.27,6.27,0,0,1,5.23,2.49,7.89,7.89,0,0,1,6-2.49c4.45,0,7.12,2.92,7.12,7.26V24.37H85.36V13.88c0-2.1-1.14-3.53-3.06-3.53-2.21,0-3.7,1.5-3.7,4V24.37H73.72V13.88c0-2.1-1.13-3.53-3-3.53-2.21,0-3.7,1.5-3.7,4V24.37H62V6.12H66.9Z"/><path d="M92.31,4.55V0h5V4.55Zm0,19.82V6.12h5V24.37Z"/><path d="M104.32,18.64c0,1.11.75,2.46,3.38,2.49,1.85,0,2.7-.85,2.7-1.71,0-3.2-10.77.08-10.77-7.61,0-3.31,2.91-5.9,7.54-5.9s7.54,2.38,7.82,6h-4.94c-.07-1.31-.61-2.31-2.81-2.31-1.43,0-2.6.46-2.6,1.6,0,3.28,11,.39,11,7.33,0,4.34-3.63,6.15-8.22,6.15-5,0-8-2.59-8.14-6.08Z"/><rect x="129.19" width="0.54" height="24.37"/><path d="M131.94,24.37a.16.16,0,0,1-.11-.05.13.13,0,0,1-.05-.12V23.06a.19.19,0,0,1,0-.11.15.15,0,0,1,.12-.07h1.83V21h-1.83a.16.16,0,0,1-.11-.05.14.14,0,0,1-.05-.13V19.68a.28.28,0,0,1,0-.13.15.15,0,0,1,.13-.06h5.37a.17.17,0,0,1,.12.05.18.18,0,0,1,0,.13V20.8a.17.17,0,0,1,0,.13.17.17,0,0,1-.12.05h-2.18v1.9h2.18a.14.14,0,0,1,.12.06.2.2,0,0,1,0,.14V24.2c0,.11-.05.17-.15.17Z"/><path d="M135.2,12.93a1.15,1.15,0,0,0,.48-.08,1,1,0,0,0,.33-.2.92.92,0,0,0,.18-.3,1.13,1.13,0,0,0,.06-.36,1,1,0,0,0-.07-.36.79.79,0,0,0-.2-.3.93.93,0,0,0-.33-.21,1.25,1.25,0,0,0-.45-.07h-3.26a.16.16,0,0,1-.11-.05.14.14,0,0,1-.05-.13V9.75a.17.17,0,0,1,.05-.14.16.16,0,0,1,.11,0h3.24a2.89,2.89,0,0,1,1.13.2,1.92,1.92,0,0,1,.73.53,2,2,0,0,1,.4.78,3.59,3.59,0,0,1,0,1.84,2.08,2.08,0,0,1-.41.78,2,2,0,0,1-.74.53,2.79,2.79,0,0,1-1.11.2h-3.24a.16.16,0,0,1-.11-.05.1.1,0,0,1-.05-.1V13.12a.19.19,0,0,1,0-.12.15.15,0,0,1,.12-.07Z"/><path d="M132,4.62a.21.21,0,0,1-.13,0,.16.16,0,0,1,0-.12V1.9a1.73,1.73,0,0,1,.12-.64,1.73,1.73,0,0,1,.36-.52,1.54,1.54,0,0,1,.52-.35,1.58,1.58,0,0,1,.65-.14,1.62,1.62,0,0,1,.54.1,1.48,1.48,0,0,1,.44.25,2,2,0,0,1,.6-.44,1.86,1.86,0,0,1,.74-.16,1.66,1.66,0,0,1,.66.14A1.87,1.87,0,0,1,137,.5a1.83,1.83,0,0,1,.38.53,1.59,1.59,0,0,1,.13.64V4.45a.16.16,0,0,1,0,.12.14.14,0,0,1-.12,0Zm1.51-2.89a.52.52,0,0,0-.21,0,.55.55,0,0,0-.3.3.64.64,0,0,0,0,.24v.82H134V2.32a.61.61,0,0,0,0-.24.72.72,0,0,0-.11-.19.57.57,0,0,0-.18-.12A.56.56,0,0,0,133.46,1.73Zm2.23-.2a.66.66,0,0,0-.23,0,.82.82,0,0,0-.2.12.9.9,0,0,0-.15.19.48.48,0,0,0-.06.24v1h1.28v-1a.47.47,0,0,0-.05-.24.62.62,0,0,0-.14-.19.72.72,0,0,0-.21-.12A.64.64,0,0,0,135.69,1.53Z"/></svg>