<?xml version="1.0" encoding="utf-8"?>
<svg viewBox="377.817 212.349 658.456 119.339" xmlns="http://www.w3.org/2000/svg">
  <defs>
    <clipPath clipPathUnits="userSpaceOnUse" id="clipPath18">
      <path d="M 0,566 H 566 V 0 H 0 Z" id="path16"/>
    </clipPath>
    <clipPath clipPathUnits="userSpaceOnUse" id="clipPath30">
      <path d="m 45.365,284.118 c 0,-19.368 15.712,-35.069 35.093,-35.069 v 0 c 19.381,0 35.093,15.701 35.093,35.069 v 0 c 0,19.367 -15.712,35.069 -35.093,35.069 v 0 c -19.381,0 -35.093,-15.702 -35.093,-35.069" id="path28"/>
    </clipPath>
    <clipPath clipPathUnits="userSpaceOnUse" id="clipPath106">
      <path d="M 0,566 H 566 V 0 H 0 Z" id="path104"/>
    </clipPath>
  </defs>
  <g id="g10" transform="matrix(1.333333, 0, 0, -1.333333, 343.696503, 653.431396)">
    <g id="g12">
      <g id="g14" clip-path="url(#clipPath18)">
        <g id="g20" transform="translate(45.3657,284.1182)">
          <path d="M 0,0 C 0,19.368 15.711,35.069 35.092,35.069 54.474,35.069 70.185,19.368 70.185,0 70.185,-19.368 54.474,-35.069 35.092,-35.069 15.711,-35.069 0,-19.368 0,0" style="fill:#ffffff;fill-opacity:1;fill-rule:nonzero;stroke:none" id="path22"/>
        </g>
      </g>
    </g>
    <g id="g24">
      <g id="g26" clip-path="url(#clipPath30)">
        <g id="g32" transform="translate(32.6987,298.9941)">
          <path d="m 0,0 c 0,32.109 26.029,58.137 58.138,58.137 32.109,0 58.137,-26.028 58.137,-58.137 0,-32.109 -26.028,-58.138 -58.137,-58.138 C 26.029,-58.138 0,-32.109 0,0" style="fill:#f33500;fill-opacity:1;fill-rule:nonzero;stroke:none" id="path34"/>
        </g>
        <g id="g36" transform="translate(44.4258,298.9937)">
          <path d="m 0,0 c 0,25.632 20.778,46.411 46.411,46.411 25.632,0 46.41,-20.779 46.41,-46.411 0,-25.632 -20.778,-46.411 -46.41,-46.411 C 20.778,-46.411 0,-25.632 0,0" style="fill:#f33500;fill-opacity:1;fill-rule:nonzero;stroke:none" id="path38"/>
        </g>
        <g id="g40" transform="translate(56.1523,298.9941)">
          <path d="M 0,0 C 0,19.155 15.528,34.684 34.684,34.684 53.84,34.684 69.368,19.155 69.368,0 69.368,-19.156 53.84,-34.685 34.684,-34.685 15.528,-34.685 0,-19.156 0,0" style="fill:#f33500;fill-opacity:1;fill-rule:nonzero;stroke:none" id="path42"/>
        </g>
        <g id="g44" transform="translate(58.4648,298.9941)">
          <path d="M 0,0 C 0,17.878 14.493,32.371 32.372,32.371 50.25,32.371 64.743,17.878 64.743,0 64.743,-17.879 50.25,-32.371 32.372,-32.371 14.493,-32.371 0,-17.879 0,0" style="fill:#f4400e;fill-opacity:1;fill-rule:nonzero;stroke:none" id="path46"/>
        </g>
        <g id="g48" transform="translate(60.7773,298.9941)">
          <path d="M 0,0 C 0,16.602 13.458,30.059 30.059,30.059 46.661,30.059 60.118,16.602 60.118,0 60.118,-16.602 46.661,-30.059 30.059,-30.059 13.458,-30.059 0,-16.602 0,0" style="fill:#f44b1b;fill-opacity:1;fill-rule:nonzero;stroke:none" id="path50"/>
        </g>
        <g id="g52" transform="translate(63.0894,298.9941)">
          <path d="M 0,0 C 0,15.324 12.422,27.747 27.747,27.747 43.071,27.747 55.494,15.324 55.494,0 55.494,-15.325 43.071,-27.747 27.747,-27.747 12.422,-27.747 0,-15.325 0,0" style="fill:#f55529;fill-opacity:1;fill-rule:nonzero;stroke:none" id="path54"/>
        </g>
        <g id="g56" transform="translate(65.4019,298.9941)">
          <path d="M 0,0 C 0,14.047 11.387,25.435 25.435,25.435 39.482,25.435 50.869,14.047 50.869,0 50.869,-14.047 39.482,-25.435 25.435,-25.435 11.387,-25.435 0,-14.047 0,0" style="fill:#f66037;fill-opacity:1;fill-rule:nonzero;stroke:none" id="path58"/>
        </g>
        <g id="g60" transform="translate(67.7139,298.9941)">
          <path d="M 0,0 C 0,12.77 10.352,23.122 23.123,23.122 35.893,23.122 46.245,12.77 46.245,0 46.245,-12.771 35.893,-23.123 23.123,-23.123 10.352,-23.123 0,-12.771 0,0" style="fill:#f66b44;fill-opacity:1;fill-rule:nonzero;stroke:none" id="path62"/>
        </g>
        <g id="g64" transform="translate(70.0264,298.9941)">
          <path d="M 0,0 C 0,11.493 9.317,20.81 20.81,20.81 32.304,20.81 41.62,11.493 41.62,0 41.62,-11.493 32.304,-20.811 20.81,-20.811 9.317,-20.811 0,-11.493 0,0" style="fill:#f77652;fill-opacity:1;fill-rule:nonzero;stroke:none" id="path66"/>
        </g>
        <g id="g68" transform="translate(72.3384,298.9941)">
          <path d="m 0,0 c 0,10.216 8.282,18.498 18.498,18.498 10.216,0 18.498,-8.282 18.498,-18.498 0,-10.216 -8.282,-18.498 -18.498,-18.498 C 8.282,-18.498 0,-10.216 0,0" style="fill:#f78160;fill-opacity:1;fill-rule:nonzero;stroke:none" id="path70"/>
        </g>
        <g id="g72" transform="translate(74.6509,298.9941)">
          <path d="m 0,0 c 0,8.939 7.247,16.186 16.186,16.186 8.939,0 16.186,-7.247 16.186,-16.186 0,-8.939 -7.247,-16.186 -16.186,-16.186 C 7.247,-16.186 0,-8.939 0,0" style="fill:#f88c6d;fill-opacity:1;fill-rule:nonzero;stroke:none" id="path74"/>
        </g>
        <g id="g76" transform="translate(76.9629,298.9941)">
          <path d="m 0,0 c 0,7.662 6.211,13.873 13.874,13.873 7.662,0 13.873,-6.211 13.873,-13.873 0,-7.663 -6.211,-13.874 -13.873,-13.874 C 6.211,-13.874 0,-7.663 0,0" style="fill:#f9967b;fill-opacity:1;fill-rule:nonzero;stroke:none" id="path78"/>
        </g>
        <g id="g80" transform="translate(79.2754,298.9941)">
          <path d="m 0,0 c 0,6.385 5.176,11.561 11.561,11.561 6.385,0 11.561,-5.176 11.561,-11.561 0,-6.385 -5.176,-11.562 -11.561,-11.562 C 5.176,-11.562 0,-6.385 0,0" style="fill:#f9a189;fill-opacity:1;fill-rule:nonzero;stroke:none" id="path82"/>
        </g>
        <g id="g84" transform="translate(81.5874,298.9941)">
          <path d="m 0,0 c 0,5.108 4.141,9.249 9.249,9.249 5.108,0 9.249,-4.141 9.249,-9.249 0,-5.108 -4.141,-9.249 -9.249,-9.249 C 4.141,-9.249 0,-5.108 0,0" style="fill:#faac96;fill-opacity:1;fill-rule:nonzero;stroke:none" id="path86"/>
        </g>
        <g id="g88" transform="translate(83.8994,298.9941)">
          <path d="m 0,0 c 0,3.831 3.106,6.937 6.937,6.937 3.831,0 6.937,-3.106 6.937,-6.937 0,-3.831 -3.106,-6.937 -6.937,-6.937 C 3.106,-6.937 0,-3.831 0,0" style="fill:#fbb7a4;fill-opacity:1;fill-rule:nonzero;stroke:none" id="path90"/>
        </g>
        <g id="g92" transform="translate(86.2119,298.9937)">
          <path d="M 0,0 C 0,2.554 2.07,4.625 4.625,4.625 7.179,4.625 9.249,2.554 9.249,0 9.249,-2.554 7.179,-4.624 4.625,-4.624 2.07,-4.624 0,-2.554 0,0" style="fill:#fbc2b2;fill-opacity:1;fill-rule:nonzero;stroke:none" id="path94"/>
        </g>
        <g id="g96" transform="translate(88.5244,298.9941)">
          <path d="M 0,0 C 0,1.277 1.035,2.312 2.312,2.312 3.589,2.312 4.625,1.277 4.625,0 4.625,-1.277 3.589,-2.313 2.312,-2.313 1.035,-2.313 0,-1.277 0,0" style="fill:#fcccbf;fill-opacity:1;fill-rule:nonzero;stroke:none" id="path98"/>
        </g>
      </g>
    </g>
    <g id="g100">
      <g id="g102" clip-path="url(#clipPath106)">
        <g id="g108" transform="translate(84.0181,288.5566)">
          <path d="M 0,0 C 0.026,-0.035 0.052,-0.069 0.078,-0.103" style="fill:#ffffff;fill-opacity:1;fill-rule:nonzero;stroke:none" id="path110"/>
        </g>
        <g id="g112" transform="translate(84.0181,288.5566)">
          <path d="M 0,0 C -0.275,0.354 -0.578,0.77 -1.397,0.77 -2.295,0.77 -2.194,0.304 -2.97,0.467 -3.746,0.631 -3.062,1.952 -3.981,2.156 -4.9,2.36 -4.789,1.582 -5.504,1.644 -6.219,1.705 -6.479,1.926 -6.866,1.586 -7.252,1.245 -7.546,1.489 -8.486,1.224 -9.426,0.958 -8.55,1.699 -9.306,1.475 -10.062,1.25 -9.417,0.893 -10.466,0.816 c -1.05,-0.076 -1.309,-0.45 -1.81,-0.834 -0.556,-0.424 -0.974,-0.406 -1.138,-1.08 -0.163,-0.674 -0.927,-1.037 -1.744,-1.323 -0.817,-0.286 -0.327,-0.435 -0.613,-0.681 -0.286,-0.245 -0.264,-0.533 0.012,-0.659 0.277,-0.127 0.491,-0.307 0.164,-0.674 -0.327,-0.368 -0.736,-0.123 -0.654,0.286 0.082,0.408 -0.279,0.362 -0.605,0.178 -0.328,-0.183 -0.064,-0.422 0.146,-0.855 0.23,-0.472 -0.401,-0.653 -0.687,-1.51 -0.286,-0.858 -0.409,-0.294 -0.264,0.43 0.082,0.408 -0.225,0.099 -0.53,-0.628 -0.266,-0.634 0.041,-0.598 0.224,-0.966 0.184,-0.367 0.407,-0.565 0.223,-1.076 -0.183,-0.512 -0.632,-0.578 -0.877,-1.211 -0.245,-0.634 -0.817,-0.041 -0.838,-0.613 -0.02,-0.573 0.707,-0.154 0.932,-0.317 0.225,-0.164 0.499,-0.479 0.213,-0.848 -0.286,-0.368 -0.85,-0.584 -0.543,-0.686 0.306,-0.103 1.074,-0.05 1.217,-0.499 0.143,-0.449 -0.266,-0.298 -0.959,-0.168 -0.693,0.128 -0.561,-0.494 -0.272,-0.799 0.289,-0.304 0.576,-0.549 0.639,-1.075 0.063,-0.527 -0.205,-0.225 -0.328,0.204 -0.122,0.429 -0.244,0.285 -0.224,-0.327 0.02,-0.612 -0.095,-0.294 0.067,-0.518 0.164,-0.225 0.394,0.088 0.394,0.088 0,0 0.463,-0.304 0.585,-0.754 0.122,-0.45 -0.085,-0.591 0.283,-0.979 0.368,-0.389 0.488,-0.607 0.695,-1.206 0.208,-0.601 0.57,-0.717 1.04,-0.717 0.47,0 0.347,-0.222 0.303,-0.511 -0.056,-0.379 -0.405,-0.122 -0.855,-0.02 -0.449,0.102 -0.449,-0.183 0.062,-0.489 0.511,-0.307 0.68,-0.299 1.225,0.02 0.103,0.061 0.307,0.061 0.491,-0.02 0.534,-0.239 0.572,-0.083 0.797,-0.736 0.225,-0.654 -0.347,-0.511 -0.143,-0.981 0.204,-0.469 0.592,-0.245 0.572,0.327 -0.021,0.572 0.04,0.654 0.367,0.348 0.328,-0.307 0.141,-0.395 0.467,-1.31 0.326,-0.914 0.698,-0.203 0.882,0.492 0.183,0.694 0.327,0.245 0.879,-0.47 0.55,-0.714 0.287,-0.697 1.206,-0.574 0.92,0.122 0.407,0.105 1.142,0.166 0.736,0.061 1.369,-0.061 1.001,-0.286 -0.367,-0.225 -0.622,-0.184 -0.887,-0.184 -0.266,0 -1.053,-0.061 -0.175,-0.327 0.879,-0.265 1.757,-0.164 2.451,-0.082 0.695,0.082 0.695,0.756 1.287,0.859 0.593,0.101 0.225,-0.348 0.797,-0.614 0.573,-0.265 1.168,0.093 1.716,0.388 0.445,0.241 0.475,0.661 0.884,0.376 0.409,-0.287 0.496,-0.275 1.221,-0.294 0.724,-0.018 0.495,0.116 0.653,0.307 0.159,0.19 -0.225,0.654 0.021,0.858 0.245,0.203 0.286,0.122 0.633,-0.143 0.347,-0.265 0.695,-0.511 1.001,-0.368 0.306,0.143 0.117,0.236 0.383,0.582 0.266,0.348 -0.138,0.624 0.025,0.747 0.164,0.121 0.403,0.051 0.628,-0.255 0.225,-0.307 0.639,-0.053 1.538,0.396 0.899,0.45 0.389,0.797 0.735,1.043 0.348,0.244 0.593,-0.246 1.022,0.143 0.43,0.388 -0.021,0.797 0.47,1.042 0.49,0.245 0.885,-0.136 1.068,0.027 0.185,0.163 0.31,0.236 0.453,0.339 0.143,0.101 0.212,0.173 0.212,0.173 0,0 0.053,-0.691 0.359,-0.098 0.306,0.593 -0.216,0.238 -0.295,0.376 -0.078,0.137 -0.122,0.225 0.143,0.367 0.331,0.178 0.358,0.318 0.491,0.777 0.133,0.459 0.164,0.326 0.681,0.599 0.517,0.272 0.506,0.191 0.56,0.49 0.054,0.299 0.118,0.765 0.417,1.174 0.3,0.409 0.59,0.382 0.603,-0.138 0.012,-0.521 -0.491,-0.463 -0.409,-0.818 0.082,-0.353 0.627,0.3 0.899,0.981 0.273,0.68 -0.667,0.789 -0.667,1.306 0,0.518 0.116,0.513 0.42,0.543 0.302,0.032 0.493,0.051 0.602,0.406 0.109,0.353 -0.134,1.129 -0.134,1.129 -0.06,0.481 0.112,0.557 0.526,0.445 0.413,-0.113 0.645,0.069 0.796,0.335 0.152,0.265 0.144,0.437 -0.215,0.543 -0.358,0.106 -1.274,0.195 -0.947,0.767 0.327,0.573 0.682,-0.136 1.171,0.354 0.491,0.491 -0.436,0.79 -0.217,1.144 0.217,0.355 0.871,0.164 1.198,0.654 0.065,0.097 0.224,0.161 0.246,0.245 0,0 0.223,0.021 0.326,0.845 0.109,0.871 -0.299,0.871 -0.572,0.572 -0.272,-0.3 0.216,-0.675 0.136,-0.817 -0.08,-0.143 -0.331,0.006 -0.331,0.006 -0.127,0.068 -0.288,0.13 -0.485,0.184 -0.79,0.218 -0.872,1.416 -0.409,1.335 0.463,-0.083 0.409,-0.433 0.872,-0.161 0.463,0.273 0.408,0.515 0.408,0.515 0.218,1.226 -0.675,1.858 -0.763,2.233 -0.088,0.376 0.17,0.34 0.115,0.912 -0.055,0.572 -0.733,0.775 -0.733,0.775 0,1.198 -0.729,1.318 -0.729,1.318 -0.953,0.272 -0.885,0.879 -0.857,1.26 0.026,0.381 0.161,0.828 -0.22,1.482 -0.382,0.654 -0.654,-0.3 -1.607,-0.272 -0.954,0.027 -0.409,0.708 -0.054,1.28 0.354,0.572 0.436,1.089 0.163,1.117 C 10.029,6.16 9.703,5.751 9.376,6.46 9.049,7.168 8.232,7.113 8.232,7.113 7.605,7.223 7.523,7.604 7.305,8.393 7.088,9.183 7.36,9.265 6.843,9.401 6.325,9.538 5.922,9.266 5.823,9.933 5.78,10.218 5.867,10.305 5.509,10.5 4.907,10.83 4.691,9.892 4.255,10.682 3.978,11.183 4.527,11.281 3.656,11.58 2.784,11.88 3.223,11.655 2.851,12.57 2.479,13.487 1.45,13.433 1.477,12.942 1.504,12.452 2.049,12.397 2.866,10.981 3.683,9.564 1.287,11.472 0.823,12.125 0.36,12.778 0.005,13.28 -0.321,13.444 c -0.327,0.164 -0.292,-0.186 -0.864,0.113 -0.571,0.3 -0.552,-0.124 -0.879,0.229 -0.327,0.355 -0.763,0.572 -1.117,0.355 -0.355,-0.219 -0.72,-0.51 -1.074,-0.048 -0.354,0.463 -0.742,0.706 -1.068,0.433 -0.327,-0.272 -0.555,-0.657 -1.236,-0.086 -0.681,0.573 -0.953,0.027 -1.525,-0.327 -0.573,-0.353 -0.658,-0.323 -1.451,-0.207 -0.792,0.116 -1.3,0.044 -1.736,-0.392 -0.436,-0.436 -0.437,-0.556 -1.253,-0.789 -0.815,-0.235 -0.79,-0.627 -0.191,-0.899 0.6,-0.273 1.226,-0.736 0.299,-0.627 -0.925,0.109 -1.143,0.142 -1.143,-0.347 0,-0.491 0.764,-0.732 1.071,-0.649 0.309,0.083 1.027,-0.339 1.217,-0.12 0.19,0.218 0.735,0.244 1.389,0.354 0.654,0.108 -0.19,-0.333 0.212,-0.467 0.4,-0.134 1.69,-0.074 2.566,-0.133 0.709,-0.047 0.702,0.15 1.539,-0.136 0.837,-0.286 0.982,-0.238 1.982,-0.483 1.001,-0.245 0.675,0.708 1.675,0.32 C -0.907,9.149 -1.458,8.78 -1.887,8.964 -2.316,9.148 -2.684,8.884 -1.642,8.332 -0.6,7.78 -0.531,8.057 1.226,7.057 2.983,6.056 4.482,4.714 5.095,3.979 5.708,3.243 5.467,4.042 6.08,3.389 6.692,2.735 5.508,2.776 6.018,1.836 6.53,0.896 7.103,1.209 7.511,0.311 7.92,-0.588 8.669,-2.941 8.812,-3.901 c 0.143,-0.96 0.189,-2.005 0.455,-2.823 0.266,-0.816 0.694,-0.285 0.858,-0.857 0.163,-0.571 0,-1.042 -0.449,-0.571 -0.45,0.468 -0.392,-0.481 -0.657,-1.808 -0.266,-1.328 -0.721,-2.625 -1.377,-3.823 -0.657,-1.198 -1.7,-2.228 -2.461,-2.889 -0.762,-0.661 -0.922,-0.8 -1.676,-1.208 -0.754,-0.407 -0.476,-0.497 -0.212,-0.393 0.267,0.101 1.051,0.212 0.274,-0.278 -0.776,-0.49 -0.849,0.214 -1.633,-0.132 -0.784,-0.345 -2.202,-0.757 -3.023,-0.862 -0.821,-0.105 -0.022,-0.15 -0.656,-0.476 -0.632,-0.328 -0.198,0.292 -1.118,0.271 -0.919,-0.021 -1.481,0.169 -3.031,0.455 -1.55,0.285 -3.577,1.637 -3.981,2.03 -0.404,0.394 -0.817,0.267 -1.736,1.288 -0.92,1.021 -0.512,1.552 -0.858,2.471 -0.348,0.92 -0.736,0.43 -1.001,1.635 -0.266,1.205 0.142,1.042 0.142,1.389 0,0.347 -0.157,0.556 -0.116,1.537 0.041,0.98 0.197,1.36 0.198,1.895 0.002,0.535 -0.224,-0.123 -0.408,-1.143 -0.184,-1.023 -0.654,-0.511 -0.45,0.408 0.205,0.919 0.247,1.161 0.983,1.569 0.735,0.409 0.329,0.383 0.55,1.066 0.22,0.683 0.551,0.674 0.817,1.287 0.265,0.612 -0.143,0.387 0.387,0.94 0.532,0.551 0.604,0.131 1.053,0.233 0.449,0.102 0.401,0.196 1.233,0.591 0.832,0.395 1.676,0.434 2.575,0.466 0.897,0.032 1.533,-0.158 2.434,-0.419 0.737,-0.214 0.857,-0.014 1.429,-0.115 0.572,-0.103 0.163,-0.654 0.837,-0.879 0.675,-0.225 0.517,0.556 0.925,0.331 0.409,-0.224 1.016,-0.208 1.343,0.486 0.327,0.695 -0.301,0.624 -0.102,1.041 0.218,0.457 0.218,0.539 -0.545,0.211 -0.763,-0.326 -1.879,-0.461 -1.771,0.545 0.11,1.008 0.569,0.522 1.144,0.137 C -0.237,-0.681 0.511,-0.658 0,0" style="fill:#ffffff;fill-opacity:1;fill-rule:nonzero;stroke:none" id="path114"/>
        </g>
        <g id="g116" transform="translate(88.8379,299.3374)">
          <path d="m 0,0 c 0.208,0 0.488,0.297 0.488,0.505 0,0.209 -0.169,0.378 -0.377,0.378 -0.209,0 -0.379,-0.169 -0.379,-0.378 C -0.268,0.297 -0.208,0 0,0" style="fill:#ffffff;fill-opacity:1;fill-rule:nonzero;stroke:none" id="path118"/>
        </g>
        <g id="g120" transform="translate(93.9932,295.1523)">
          <path d="m 0,0 c 0.2,0 0.467,0.285 0.467,0.484 0,0.2 -0.162,0.362 -0.361,0.362 -0.2,0 -0.362,-0.162 -0.362,-0.362 C -0.256,0.285 -0.2,0 0,0" style="fill:#ffffff;fill-opacity:1;fill-rule:nonzero;stroke:none" id="path122"/>
        </g>
        <g id="g124" transform="translate(95.1235,293.1216)">
          <path d="M 0,0 C 0.266,0 0.482,0.19 0.482,0.424 0.482,0.658 0.266,0.847 0,0.847 -0.266,0.847 -0.646,0.495 -0.646,0.261 -0.646,-0.154 -0.42,0 0,0" style="fill:#ffffff;fill-opacity:1;fill-rule:nonzero;stroke:none" id="path126"/>
        </g>
        <g id="g128" transform="translate(98.8652,286.4307)">
          <path d="M 0,0 C 0.221,0 0.399,0.178 0.399,0.398 0.399,0.619 0.221,0.797 0,0.797 -0.22,0.797 -0.399,0.619 -0.399,0.398 -0.399,0.178 -0.22,0 0,0" style="fill:#ffffff;fill-opacity:1;fill-rule:nonzero;stroke:none" id="path130"/>
        </g>
        <g id="g132" transform="translate(97.6846,276.9023)">
          <path d="M 0,0 C 0.214,0 0.389,0.173 0.389,0.389 0.389,0.603 0.214,0.775 0,0.775 -0.214,0.775 -0.388,0.603 -0.388,0.389 -0.388,0.173 -0.214,0 0,0" style="fill:#ffffff;fill-opacity:1;fill-rule:nonzero;stroke:none" id="path134"/>
        </g>
        <g id="g136" transform="translate(95.9526,275.4404)">
          <path d="M 0,0 C 0,0 0.241,0.124 0.247,-0.062 0.252,-0.249 0.551,-0.3 0.524,-0.6 0.497,-0.899 0.874,-0.662 0.764,-0.226 0.655,0.21 0.636,0.561 0.313,0.387 -0.009,0.214 -0.138,0.227 0,0" style="fill:#ffffff;fill-opacity:1;fill-rule:nonzero;stroke:none" id="path138"/>
        </g>
        <g id="g140" transform="translate(91.4165,268.7695)">
          <path d="m 0,0 c 0.198,0 0.388,0.478 0.388,0.676 0,0.197 -0.16,0.358 -0.359,0.358 -0.197,0 -0.387,-0.478 -0.387,-0.677 C -0.358,0.16 -0.198,0 0,0" style="fill:#ffffff;fill-opacity:1;fill-rule:nonzero;stroke:none" id="path142"/>
        </g>
        <g id="g144" transform="translate(87.167,266.9629)">
          <path d="m 0,0 c 0,0 -0.076,-0.139 -0.17,-0.212 -0.094,-0.074 -0.096,-0.149 0.048,-0.251 0.143,-0.103 0.315,-0.15 0.397,0.114 C 0.357,-0.083 0.132,0.186 0,0" style="fill:#ffffff;fill-opacity:1;fill-rule:nonzero;stroke:none" id="path146"/>
        </g>
        <g id="g148" transform="translate(65.4185,280.5215)">
          <path d="m 0,0 c 0.226,0 0.41,0.157 0.41,0.352 0,0.194 -0.456,0.679 -0.683,0.679 -0.226,0 -0.409,-0.157 -0.409,-0.351 C -0.682,0.485 -0.227,0 0,0" style="fill:#ffffff;fill-opacity:1;fill-rule:nonzero;stroke:none" id="path150"/>
        </g>
        <g id="g152" transform="translate(70.0532,287.4063)">
          <path d="m 0,0 c 0.141,0 0.255,0.162 0.255,0.361 0,0.2 -0.274,0.46 -0.415,0.46 -0.14,0 -0.255,-0.162 -0.255,-0.362 C -0.415,0.261 -0.14,0 0,0" style="fill:#ffffff;fill-opacity:1;fill-rule:nonzero;stroke:none" id="path154"/>
        </g>
        <g id="g156" transform="translate(334.3125,291.3457)">
          <path d="m 0,0 c 2.284,2.937 5.092,4.568 8.878,4.568 8.485,0 10.444,-6.134 10.444,-13.314 V -26.955 H 14.1 v 17.296 c 0,4.96 -0.392,9.398 -6.462,9.398 C 0.457,-0.261 0,-6.918 0,-12.4 V -26.955 H -5.222 V 3.72 L 0,3.72 Z m -82.504,-16.904 9.139,20.624 h 5.875 L -82.504,-28.979 -97.584,3.72 h 5.941 z m -77.088,-10.051 h -5.222 v 4.242 c -2.807,-3.394 -6.397,-5.091 -10.706,-5.091 -9.008,0 -14.687,7.636 -14.687,16.121 0,8.746 5.549,16.251 14.753,16.251 4.178,0 7.964,-1.957 10.51,-5.221 l 0.13,4.373 h 5.222 z m -25.262,15.664 c 0,-6.005 3.525,-11.683 10.053,-11.683 6.723,0 10.248,5.417 10.248,11.618 0,6.134 -3.851,11.095 -10.313,11.095 -6.072,0 -9.988,-5.287 -9.988,-11.03 m 47.454,0 c 0,-6.005 3.525,-11.683 10.053,-11.683 6.723,0 10.248,5.417 10.248,11.618 0,6.134 -3.851,11.095 -10.313,11.095 -6.071,0 -9.988,-5.287 -9.988,-11.03 m 20.04,-11.422 c -2.676,-3.329 -6.528,-5.091 -10.705,-5.091 -9.008,0 -14.688,7.636 -14.688,16.121 0,8.746 5.549,16.251 14.753,16.251 4.112,0 8.029,-1.957 10.51,-5.221 l 0.13,27.543 h 5.222 v -53.845 h -5.222 z m 67.425,11.422 c 0,-6.005 3.525,-11.683 10.053,-11.683 6.724,0 10.248,5.417 10.248,11.618 0,6.134 -3.85,11.095 -10.313,11.095 -6.071,0 -9.988,-5.287 -9.988,-11.03 m 25.263,-15.664 h -5.223 v 4.242 c -2.806,-3.394 -6.397,-5.091 -10.705,-5.091 -9.008,0 -14.687,7.636 -14.687,16.121 0,8.746 5.549,16.251 14.752,16.251 4.178,0 7.965,-1.957 10.511,-5.221 l 0.129,4.373 h 5.223 z m 91.901,15.664 c 0,-6.005 3.525,-11.683 10.053,-11.683 6.724,0 10.249,5.417 10.249,11.618 0,6.134 -3.851,11.095 -10.314,11.095 -6.071,0 -9.988,-5.287 -9.988,-11.03 M 92.492,-26.955 H 87.27 v 4.242 c -2.807,-3.394 -6.397,-5.091 -10.706,-5.091 -9.008,0 -14.687,7.636 -14.687,16.121 0,8.746 5.548,16.251 14.752,16.251 4.179,0 7.965,-1.957 10.51,-5.221 L 87.27,3.72 h 5.222 z m 21.865,15.664 c 0,-6.005 3.526,-11.683 10.053,-11.683 6.723,0 10.248,5.417 10.248,11.618 0,6.134 -3.851,11.095 -10.313,11.095 -6.072,0 -9.988,-5.287 -9.988,-11.03 m 25.262,-14.163 c 0,-4.896 0,-9.138 -3.133,-13.184 -2.872,-3.655 -7.31,-5.417 -11.881,-5.417 -8.55,0 -14.882,5.417 -15.079,14.097 h 5.223 c 0.065,-5.678 4.178,-9.268 9.792,-9.268 8.094,0 9.856,5.94 9.856,12.858 v 3.655 c -2.611,-3.198 -6.658,-5.091 -10.77,-5.091 -8.943,0 -14.623,7.506 -14.623,16.056 0,8.615 5.745,16.316 14.818,16.316 4.243,0 7.964,-1.892 10.446,-5.221 l 0.129,4.373 h 5.222 z m 41.184,17.165 c -0.718,4.438 -4.44,8.028 -9.009,8.028 -4.504,0 -8.682,-3.59 -9.335,-8.028 z m -18.605,-4.438 c 0.066,-5.678 4.113,-10.247 10.053,-10.247 4.439,0 7.312,2.676 9.335,6.331 l 4.439,-2.545 c -2.937,-5.483 -7.899,-8.616 -14.166,-8.616 -9.138,0 -15.013,6.984 -15.013,15.795 0,9.072 5.287,16.577 14.883,16.577 9.857,0 15.08,-8.157 14.557,-17.295 z M 44.512,-26.955 H 39.289 V -1.109 H 36.091 V 3.72 h 3.198 v 11.03 h 5.223 V 3.72 h 5.483 v -4.829 h -5.483 z" style="fill:#f33500;fill-opacity:1;fill-rule:evenodd;stroke:none" id="path158"/>
        </g>
      </g>
    </g>
  </g>
</svg>