<?xml version="1.0" encoding="utf-8"?>
<!-- Generator: Adobe Illustrator 16.0.0, SVG Export Plug-In . SVG Version: 6.00 Build 0)  -->
<!DOCTYPE svg PUBLIC "-//W3C//DTD SVG 1.1//EN" "http://www.w3.org/Graphics/SVG/1.1/DTD/svg11.dtd">
<svg version="1.1" id="katman_1" xmlns="http://www.w3.org/2000/svg" xmlns:xlink="http://www.w3.org/1999/xlink" x="0px" y="0px"
	 width="120px" height="31.1px" viewBox="0 0 120 31.1" enable-background="new 0 0 120 31.1" xml:space="preserve">
<g>
	<path fill-rule="evenodd" clip-rule="evenodd" fill="#006ECE" d="M41.11,8.401c-0.581,1.563-1.191,3.114-1.729,4.691
		c-0.256,0.75-0.573,1.162-1.479,1.164c-0.949,0.002-1.36-0.339-1.641-1.216c-0.503-1.571-1.143-3.098-2.069-4.583
		c0,1.566-0.056,3.134,0.019,4.696c0.052,1.089-0.564,1.06-1.336,1.086c-0.823,0.028-1.14-0.229-1.124-1.091
		c0.047-2.39,0.041-4.782,0.002-7.172c-0.013-0.803,0.203-1.093,1.072-1.157c1.893-0.138,3.42-0.014,3.768,2.369
		c0.155,1.057,0.734,2.052,1.175,3.217c0.921-1.415,1.302-2.911,1.755-4.346c0.679-2.152,2.358-1.043,3.575-1.149
		c1.313-0.114,0.729,1.112,0.751,1.737c0.076,2.129-0.011,4.265,0.047,6.396c0.025,0.94-0.303,1.21-1.219,1.206
		c-0.897-0.004-1.276-0.229-1.234-1.19c0.068-1.538,0.018-3.081,0.018-4.622C41.344,8.425,41.227,8.413,41.11,8.401z"/>
	<path fill-rule="evenodd" clip-rule="evenodd" fill="#006ECE" d="M95.076,9.919c0-1.336,0.056-2.677-0.018-4.009
		c-0.061-1.097,0.584-1.044,1.346-1.077c0.845-0.036,1.127,0.272,1.11,1.113c-0.045,2.198,0.017,4.398-0.036,6.595
		c-0.014,0.558,0.44,1.524-0.487,1.6c-0.994,0.081-2.197,0.613-2.991-0.628c-1.027-1.606-2.105-3.179-3.491-5.259
		c0,2.009-0.051,3.407,0.018,4.798c0.047,0.958-0.327,1.199-1.23,1.196c-0.892-0.003-1.27-0.222-1.241-1.188
		c0.062-2.068-0.035-4.141,0.049-6.207c0.027-0.66-0.565-1.781,0.557-1.929c1.115-0.147,2.436-0.549,3.265,0.9
		c0.83,1.45,1.834,2.799,2.762,4.193C94.816,9.985,94.946,9.952,95.076,9.919z"/>
	<path fill-rule="evenodd" clip-rule="evenodd" fill="#016ECE" d="M61.839,10.888c0.948,1.076,1.828,2.074,2.741,3.11
		c-2.239,0.847-3.508-0.279-4.668-1.803c-0.396-0.521-0.768-1.438-1.619-1.099c-0.738,0.295-0.364,1.156-0.358,1.752
		c0.009,0.906-0.107,1.414-1.237,1.412c-1.088-0.002-1.284-0.42-1.26-1.373c0.055-2.2,0.098-4.406-0.014-6.602
		c-0.065-1.288,0.454-1.537,1.57-1.455c1.095,0.081,2.201,0.038,3.301,0.013c1.65-0.036,3.202,0.203,3.744,2.043
		C64.606,8.811,63.746,10.135,61.839,10.888z"/>
	<path fill-rule="evenodd" clip-rule="evenodd" fill="#016FCE" d="M68.354,22.973c0.934,1.073,1.769,2.032,2.693,3.095
		c-1.814,0.523-3.213,0.309-4.189-1.313c-0.196-0.326-0.502-0.587-0.76-0.875c-0.34-0.378-0.644-0.916-1.241-0.745
		c-0.707,0.202-0.309,0.865-0.413,1.321c-0.134,0.593,0.329,1.34-0.351,1.781c-0.862,0.56-2.101-0.131-2.113-1.177
		c-0.027-2.259,0.048-4.52-0.033-6.774c-0.04-1.141,0.396-1.447,1.449-1.376c1.092,0.075,2.193,0.041,3.29,0.011
		c1.719-0.046,3.344,0.216,3.89,2.115C71.112,20.903,70.242,22.239,68.354,22.973z"/>
	<path fill-rule="evenodd" clip-rule="evenodd" fill="#026FCE" d="M45.804,9.433c0-4.586,0-4.586,4.6-4.585
		c0.84,0,1.681,0.018,2.52-0.001c0.656-0.015,0.919,0.268,0.913,0.927c-0.006,0.649-0.067,1.159-0.903,1.146
		c-1.163-0.019-2.326,0.005-3.489,0.001c-0.562-0.002-1.042,0.062-1.04,0.802c0.002,0.819,0.604,0.682,1.091,0.69
		c0.969,0.018,1.939,0.026,2.907,0c0.719-0.02,1.238,0.039,1.241,0.999c0.002,0.93-0.32,1.272-1.244,1.221
		c-1.031-0.058-2.067-0.008-3.101-0.008c-0.493,0-0.897,0.086-0.893,0.719c0.003,0.608,0.372,0.761,0.882,0.763
		c1.163,0.005,2.327,0.034,3.489,0.001c0.891-0.025,1.058,0.44,1.064,1.212c0.007,0.862-0.492,0.908-1.129,0.904
		c-1.938-0.011-3.877-0.034-5.815,0.01c-0.844,0.019-1.146-0.277-1.107-1.12C45.846,11.89,45.805,10.661,45.804,9.433z"/>
	<path fill-rule="evenodd" clip-rule="evenodd" fill="#016FCE" d="M72.099,21.622c-0.001-4.696-0.001-4.696,4.682-4.696
		c0.582,0,1.164,0.003,1.746-0.001c0.767-0.004,1.546-0.184,1.506,1.095c-0.036,1.135-0.713,1.012-1.422,1.013
		c-0.905,0-1.812-0.027-2.715,0.012c-0.525,0.021-1.275-0.224-1.311,0.694c-0.044,1.119,0.846,0.726,1.394,0.759
		c0.967,0.058,1.94,0.053,2.908,0.007c0.915-0.043,1.045,0.449,1.048,1.208c0.004,0.764-0.309,1.029-1.039,1.01
		c-1.099-0.029-2.198-0.012-3.297-0.002c-0.515,0.004-1.063-0.054-1.034,0.755c0.028,0.78,0.564,0.737,1.083,0.741
		c1.1,0.007,2.2,0.046,3.297-0.009c0.886-0.044,1.074,0.359,1.076,1.154c0.003,0.823-0.398,0.967-1.077,0.939
		c-0.711-0.029-1.423-0.006-2.134-0.006C72.099,26.295,72.099,26.295,72.099,21.622z"/>
	<path fill-rule="evenodd" clip-rule="evenodd" fill="#016FCE" d="M19.784,14.103c1.271-2.889,2.492-5.579,3.63-8.303
		c0.34-0.813,0.853-1.073,1.633-0.944c0.821,0.136,1.883-0.482,2.395,0.668c1.249,2.808,2.47,5.627,3.768,8.59
		c-1.512,0.094-2.849,0.619-3.43-1.308c-0.225-0.748-4.057-0.743-4.611-0.104C21.812,14.268,21.812,14.268,19.784,14.103z"/>
	<path fill-rule="evenodd" clip-rule="evenodd" fill="#016FCE" d="M76.063,14.114c1.285-2.915,2.545-5.658,3.697-8.446
		c0.42-1.014,1.178-0.831,1.911-0.807c0.776,0.025,1.665-0.324,2.13,0.785c1.164,2.78,2.407,5.526,3.692,8.455
		c-1.471,0.112-2.754,0.637-3.396-1.242c-0.299-0.875-4.146-0.812-4.729-0.038C78.284,14.265,78.284,14.265,76.063,14.114z"/>
	<path fill-rule="evenodd" clip-rule="evenodd" fill="#F9FBFD" d="M31.8,16.961c0.413-0.582,1.033-0.407,1.586-0.409
		c2.815-0.015,5.63-0.014,8.445-0.002c0.558,0.003,1.168-0.151,1.616,0.367c-0.774,0.708-1.603,0.495-2.288,0.37
		c0.82,0.802,1.594,1.997,2.602,2.993c0.919,0.907,0.856,1.814-0.048,2.68c-0.93,0.892-1.677,1.948-2.578,2.861
		c0.762,0.051,1.624-0.242,2.302,0.423c-1.031,0.827-2.231,0.345-3.345,0.382c-2.381,0.08-4.766,0.037-7.149,0.015
		c-0.539-0.005-1.434,0.199-1.435-0.564c-0.002-3.043-0.606-6.114,0.303-9.126c0.954,1.485,0.488,3.143,0.519,4.721
		c0.084,4.323-0.368,4.013,4.156,4.018c0.63,0.001,1.282,0.076,2.073-0.352c-0.908-0.654-1.816-0.371-2.633-0.483
		c-0.915-0.125-1.983-0.207-2.027-1.363c-0.049-1.3,1.125-1.157,1.989-1.272c0.914-0.123,1.917,0.195,2.886-0.564
		c-0.932-0.952-2.013-0.529-2.955-0.678c-0.797-0.126-1.879,0.038-1.92-1.136c-0.042-1.187,0.974-1.345,1.898-1.489
		c0.867-0.135,1.8,0.177,2.78-0.449c-0.971-0.604-1.934-0.316-2.832-0.4C34.423,17.378,33.021,17.836,31.8,16.961z"/>
	<path fill-rule="evenodd" clip-rule="evenodd" fill="#016FCE" d="M43.438,26.244c-0.958,0-1.915,0-3.229,0
		c0.78-0.908,1.379-1.624,1.998-2.324c2.065-2.339,2.067-2.336-0.049-4.753c-0.55-0.629-1.095-1.262-1.953-2.25
		c1.293,0,2.268,0,3.243,0c0.079,0.1,0.156,0.201,0.238,0.297c2.295,2.682,2.295,2.682,4.442-0.204
		c0.043-0.048,0.082-0.13,0.131-0.137c0.998-0.147,2.434-0.574,2.866,0.186c0.605,1.063-0.7,1.894-1.421,2.675
		c-1.492,1.614-1.511,1.771-0.084,3.527c0.122,0.15,0.26,0.287,0.373,0.443c0.578,0.8,2.092,1.595,1.473,2.401
		c-0.611,0.798-2.188,0.522-3.334,0.057C45.899,23.096,45.899,23.096,43.438,26.244z"/>
	<path fill-rule="evenodd" clip-rule="evenodd" fill="#016FCE" d="M98.581,16.952c-0.087,1.646-0.866,2.257-2.392,2.099
		c-0.829-0.085-1.68-0.015-2.517,0.047c-0.392,0.029-0.781,0.238-0.767,0.715c0.015,0.467,0.381,0.648,0.796,0.667
		c0.84,0.036,1.686-0.015,2.52,0.067c1.892,0.186,2.857,1.161,2.792,2.804c-0.069,1.768-1.072,2.763-2.779,2.896
		c-1.543,0.12-3.103,0.02-4.654,0.056c-0.76,0.018-1.011-0.308-1.006-1.041c0.004-0.732,0.265-1.063,1.018-1.049
		c1.229,0.025,2.458,0.009,3.687-0.001c0.546-0.005,1.113-0.108,1.138-0.772c0.026-0.74-0.596-0.71-1.114-0.719
		c-0.711-0.013-1.427,0.038-2.133-0.025c-1.838-0.166-2.806-1.166-2.798-2.823c0.007-1.608,1.032-2.785,2.771-2.895
		C94.937,16.865,96.743,16.952,98.581,16.952z"/>
	<path fill-rule="evenodd" clip-rule="evenodd" fill="#016FCE" d="M89.365,16.962c-0.111,1.665-0.919,2.256-2.438,2.089
		c-0.827-0.091-1.679-0.021-2.514,0.044c-0.4,0.031-0.763,0.293-0.732,0.753c0.029,0.455,0.392,0.628,0.816,0.642
		c0.903,0.028,1.816-0.025,2.709,0.087c1.615,0.204,2.607,1.045,2.54,2.815c-0.065,1.693-1.01,2.676-2.61,2.833
		s-3.227,0.042-4.842,0.072c-0.672,0.013-0.9-0.293-0.889-0.933c0.011-0.628,0.028-1.163,0.886-1.146
		c1.227,0.024,2.455,0.008,3.683-0.008c0.606-0.008,1.297-0.105,1.224-0.877c-0.059-0.624-0.718-0.617-1.247-0.618
		c-0.711-0.001-1.431,0.056-2.13-0.034c-1.577-0.2-2.665-0.953-2.707-2.713c-0.038-1.61,0.968-2.857,2.675-2.978
		C85.635,16.862,87.497,16.962,89.365,16.962z"/>
	<path fill-rule="evenodd" clip-rule="evenodd" fill="#016FCE" d="M52.031,16.951c1.868-0.006,3.739-0.064,5.605-0.003
		c1.994,0.065,3.231,1.31,3.242,3.109c0.012,1.798-1.226,2.971-3.203,3.167c-0.987,0.099-2.039-0.364-2.964,0.311
		c-0.342,0.529-0.161,1.122-0.194,1.688c-0.034,0.575,0.06,1.238-0.809,1.212c-0.774-0.024-1.867,0.361-2.019-0.846
		C51.326,22.701,50.809,19.785,52.031,16.951z"/>
	<path fill-rule="evenodd" clip-rule="evenodd" fill="#0370CE" d="M75.592,12.188c-0.254,2.165-1.501,2.304-3.064,1.86
		c-2.21-0.626-3.274-2.403-3.075-5.127c0.16-2.201,1.576-3.769,3.727-4.01c0.956-0.107,1.932-0.033,2.897-0.068
		c0.678-0.024,1.104,0.134,1.084,0.949c-0.018,0.722-0.085,1.3-1.013,1.259c-0.449-0.02-0.902,0.016-1.353,0
		c-1.653-0.056-2.812,0.558-2.881,2.355c-0.065,1.718,0.862,2.617,2.582,2.696C74.811,12.116,75.125,12.151,75.592,12.188z"/>
	<path fill-rule="evenodd" clip-rule="evenodd" fill="#FCFDFD" d="M52.031,16.951c-0.013,2.646-0.008,5.294-0.05,7.94
		c-0.013,0.86,0.011,1.434,1.181,1.442c1.211,0.009,1.399-0.525,1.322-1.512c-0.034-0.431-0.137-0.911,0.227-1.287
		c0.002,0.389-0.039,0.783,0.013,1.165c0.208,1.506-0.36,2.215-1.928,1.95c-1.545-0.261-3.202,0.547-4.666-0.488
		c1.027,0.056,2.053,0.112,3.583,0.195c-0.94-1.063-1.601-1.807-2.257-2.554c-2.025-2.306-2.022-2.304-0.024-4.525
		c0.595-0.66,1.171-1.337,1.985-2.269c-1.31,0-2.3,0-3.29,0C49.416,16.175,50.722,16.461,52.031,16.951z"/>
	<path fill-rule="evenodd" clip-rule="evenodd" fill="#006ECE" d="M65.573,9.454c0-1.161,0.06-2.327-0.019-3.483
		c-0.069-1.024,0.438-1.129,1.275-1.145c0.918-0.017,1.242,0.286,1.223,1.215c-0.051,2.322-0.069,4.647,0.006,6.968
		c0.037,1.119-0.49,1.208-1.395,1.24c-1.062,0.038-1.128-0.506-1.102-1.311C65.602,11.778,65.572,10.616,65.573,9.454z"/>
	<path fill-rule="evenodd" clip-rule="evenodd" fill="#EAF3FA" d="M59.683,8.859c-0.624-0.236-1.775,0.528-1.792-0.962
		c-0.014-1.266,0.915-0.992,1.624-0.986c0.851,0.007,2.068-0.252,2.116,0.992C61.68,9.138,60.471,8.732,59.683,8.859z"/>
	<path fill-rule="evenodd" clip-rule="evenodd" fill="#EBF3FA" d="M66.073,20.945c-0.675-0.147-1.681,0.39-1.655-0.984
		c0.023-1.343,0.998-0.915,1.674-0.937c0.814-0.025,2.01-0.174,2.05,0.909C68.192,21.327,66.854,20.772,66.073,20.945z"/>
	<path fill-rule="evenodd" clip-rule="evenodd" fill="#E1EDF8" d="M25.473,7.056c0.534,1.313,0.884,2.173,1.261,3.102
		c-0.886,0.146-1.951,0.497-2.229-0.118C24.118,9.186,25.01,8.326,25.473,7.056z"/>
	<path fill-rule="evenodd" clip-rule="evenodd" fill="#E0EDF8" d="M82.908,10.238c-0.749,0-1.444,0-2.282,0
		c0.043-1.084,0.634-1.914,1.046-2.911C82.356,8.234,82.707,9.158,82.908,10.238z"/>
	<path fill-rule="evenodd" clip-rule="evenodd" fill="#016FCE" d="M31.8,16.961c2.197-0.011,4.394-0.021,6.591-0.031
		c0.646-0.002,1.282-0.104,1.299,0.918c0.016,0.973-0.399,1.222-1.272,1.188c-1.097-0.044-2.197-0.007-3.295-0.001
		c-0.521,0.003-0.864,0.197-0.873,0.787c-0.009,0.665,0.454,0.686,0.919,0.69c1.099,0.009,2.199,0.043,3.296-0.006
		c0.845-0.037,1.114,0.295,1.12,1.125c0.006,0.86-0.322,1.129-1.142,1.092c-1.096-0.049-2.197-0.012-3.295-0.007
		c-0.476,0.003-0.919,0.042-0.899,0.703c0.018,0.574,0.326,0.798,0.861,0.799c1.163,0.001,2.328,0.043,3.489-0.003
		c0.872-0.034,1.088,0.361,1.086,1.159c-0.003,0.837-0.454,0.957-1.108,0.916c-0.064-0.004-0.129,0.001-0.193,0
		c-2.123-0.038-4.831,0.697-6.202-0.338c-1.316-0.995-0.299-3.861-0.401-5.901c-0.052-1.03,0.017-2.066,0.031-3.101L31.8,16.961z"/>
	<path fill-rule="evenodd" clip-rule="evenodd" fill="#E2EEF9" d="M56.318,21.199c-0.855-0.108-1.872,0.338-1.89-1.083
		c-0.018-1.391,0.95-1.138,1.737-1.108c0.84,0.032,2.048-0.272,2.077,1.067C58.272,21.468,57.032,21.056,56.318,21.199z"/>
</g>
</svg>
