<?xml version="1.0" encoding="utf-8"?>
<!-- Generator: Adobe Illustrator 16.0.0, SVG Export Plug-In . SVG Version: 6.00 Build 0)  -->
<!DOCTYPE svg PUBLIC "-//W3C//DTD SVG 1.1//EN" "http://www.w3.org/Graphics/SVG/1.1/DTD/svg11.dtd">
<svg version="1.1" id="Layer_1" xmlns="http://www.w3.org/2000/svg" xmlns:xlink="http://www.w3.org/1999/xlink" x="0px" y="0px"
	 width="841.891px" height="156px" viewBox="0 222.14 841.891 156" enable-background="new 0 222.14 841.891 156"
	 xml:space="preserve">
<g>
	<path fill="#FFFFFF" d="M14.703,230.062c0,44.917,0,88.895,0,133.41c8.175,0,16.002,0,23.759,0
		c0.685-2.995,1.289-5.639,2.048-8.952c1.797,1.233,2.668,1.768,3.469,2.391c22.97,17.876,54.049,7.515,59.213-21.005
		c2.689-14.848,1.565-30.497,1.228-45.766c-0.595-26.868-20.728-41.768-46.861-34.889c-5.641,1.485-10.841,4.643-17.505,7.585
		c0-11.467,0-22.148,0-32.774C31.004,230.062,23.124,230.062,14.703,230.062z M672.51,363.976c0-36.729,0-72.4,0-108.404
		c-8.522,0-16.59,0-24.868,0c-0.572,3.584-1.086,6.786-1.675,10.471c-15.409-16.246-40.777-16.525-56.313-1.263
		c-19.819,19.477-22.19,57.559-6.406,82.269c12.521,19.6,43.402,24.018,58.659,8.195c0.906-0.94,2.521-1.202,2.442-1.166
		c2.532,3.761,4.203,9.022,6.737,9.477C657.956,364.782,665.193,363.976,672.51,363.976z M194.75,363.255c8.169,0,16.142,0,23.987,0
		c0-36.368,0-71.979,0-107.613c-8.446,0-16.267,0-23.905,0c-0.534,3.491-0.988,6.46-1.462,9.564
		c-1.377-0.442-1.979-0.46-2.312-0.768c-17.931-16.691-45.709-13.813-59.863,6.225c-14.983,21.214-15.781,53.856-1.844,75.495
		c12.698,19.712,37.333,24.636,56.513,11.321c2.237-1.554,4.598-2.929,7.659-4.865C194.015,356.879,194.371,359.962,194.75,363.255z
		 M265.534,363.437c0-15.675-0.046-30.513,0.019-45.351c0.033-7.414-0.417-14.925,0.564-22.228
		c1.7-12.651,9.678-19.656,20.21-18.976c10.395,0.672,17.808,9.896,17.832,22.313c0.034,18.57-0.007,37.145,0.025,55.714
		c0.005,2.795,0.238,5.59,0.365,8.373c9.087,0,17.381,0,26.02,0c0-24.854,0.604-49.002-0.184-73.107
		c-0.684-20.975-12.128-33.445-31.645-36.348c-11.738-1.744-22.077,2.609-32.129,9.569c-0.835-3.216-1.45-5.592-1.979-7.624
		c-8.322,0-16.133,0-24.006,0c0,36.127,0,71.615,0,107.663C248.8,363.437,256.616,363.437,265.534,363.437z M347.54,363.156
		c44.896-45.352,88.428-89.322,132.164-133.499c-8.976,0-18.418-0.345-27.81,0.188c-3.266,0.187-7.156,1.774-9.487,4.035
		c-15.605,15.14-30.773,30.728-46.28,45.971c-7.408,7.279-15.244,14.125-23.271,21.521c-0.597-1.702-1.054-2.407-1.063-3.12
		c-0.097-8.75-0.158-17.498-0.17-26.247c-0.022-16.871-0.005-16.64-16.972-16.593c-5.633,0.017-7.3,1.854-7.215,7.355
		c0.279,18.026,0.104,36.063,0.104,54.095C347.54,331.658,347.54,346.457,347.54,363.156z M469.96,363.299
		c44.91-45.593,88.391-89.733,131.643-133.641c-8.793,0-18.348-0.387-27.842,0.202c-3.507,0.217-7.68,1.903-10.171,4.332
		c-20.868,20.343-41.411,41.02-62.066,61.581c-1.919,1.91-3.938,3.715-5.912,5.572c-0.666-0.278-1.335-0.558-2.003-0.836
		c0-14.638,0-29.275,0-44.184c-8.654,0-16.082,0-23.647,0C469.96,291.756,469.96,326.403,469.96,363.299z M781.627,230.038
		c0,4.147,0,7.788,0,11.429c-0.007,12.63-0.007,12.63-12.557,14.523c-1.15,6.593-2.336,13.38-3.595,20.581
		c2.617,0.224,3.903,0.395,5.195,0.438c10.936,0.354,10.944,0.35,10.952,10.918c0.01,14.313,0.585,28.657-0.146,42.936
		c-0.912,17.901,7.955,31.883,30.647,33.164c14.961,0.846,14.562,1.019,15.044-13.773c0.229-7.098-1.94-9.52-8.948-8.839
		c-7.794,0.759-11.104-4.216-11.221-11.169c-0.259-15.636,0.007-31.278-0.143-46.918c-0.048-4.975,2.317-6.513,6.855-6.321
		c4.132,0.175,8.274,0.037,12.717,0.037c0-7.838,0-14.587,0-21.91c-3.449,0-6.331,0.007-9.212-0.001
		c-10.296-0.025-10.299-0.027-10.318-10.684c-0.011-4.688-0.001-9.377-0.001-14.409
		C798.293,230.038,790.681,230.038,781.627,230.038z M754.193,254.186c-12.984-2.231-24.039,1.456-34.372,9.91
		c-0.542-3.797-0.892-6.263-1.233-8.67c-8.574,0-16.477,0-24.219,0c-0.42,0.746-0.901,1.201-0.902,1.66
		c-0.15,34.184-0.308,68.367-0.229,102.547c0.003,1.436,2.164,4.034,3.429,4.103c7.318,0.396,14.672,0.193,22.659,0.193
		c0-20.936-0.006-40.78,0.002-60.626c0.008-19.252,6.129-25.613,24.922-26.62c2.255-0.121,5.789-2.011,6.322-3.796
		C752.351,266.919,753.038,260.624,754.193,254.186z M395.544,332.64c5.692,9.202,11.532,18.813,17.606,28.274
		c0.886,1.373,2.873,2.831,4.391,2.878c9.133,0.266,18.272,0.132,29.021,0.132c-11.342-17.601-21.765-33.771-31.979-49.629
		C408.094,320.549,402.049,326.373,395.544,332.64z M536.843,314.164c-6.733,6.56-12.914,12.575-19.184,18.68
		c5.696,8.938,11.202,17.863,17.058,26.557c1.309,1.943,3.773,4.251,5.815,4.362c8.858,0.479,17.758,0.204,28.18,0.204
		C557.499,346.447,547.225,330.39,536.843,314.164z"/>
	<path fill="#ED1D24" d="M14.703,230.062c8.421,0,16.301,0,25.35,0c0,10.626,0,21.308,0,32.774c6.664-2.942,11.864-6.1,17.505-7.585
		c26.134-6.879,46.267,8.021,46.861,34.889c0.338,15.269,1.463,30.918-1.228,45.766c-5.165,28.52-36.245,38.881-59.213,21.005
		c-0.801-0.623-1.672-1.156-3.469-2.391c-0.759,3.314-1.363,5.957-2.048,8.952c-7.757,0-15.584,0-23.759,0
		C14.703,318.957,14.703,274.979,14.703,230.062z M40.133,309.159c0.835,6.611,1.104,13.277,2.622,19.647
		c2,8.38,7.61,12.256,16.123,12.492c9.297,0.261,15.176-3.103,17.646-11.61c3.907-13.459,4.124-27.199-0.105-40.656
		c-2.655-8.448-8.063-11.769-16.84-11.634c-8.46,0.13-14.966,4.683-16.874,12.878C41.276,296.405,40.958,302.789,40.133,309.159z"/>
	<path fill="#ED1D24" d="M672.51,363.976c-7.316,0-14.554,0.806-21.424-0.423c-2.534-0.453-4.205-5.716-6.737-9.477
		c0.078-0.037-1.536,0.226-2.442,1.166c-15.257,15.821-46.139,11.403-58.659-8.195c-15.784-24.71-13.414-62.792,6.406-82.269
		c15.536-15.263,40.904-14.983,56.313,1.263c0.589-3.685,1.103-6.887,1.675-10.471c8.278,0,16.346,0,24.868,0
		C672.51,291.576,672.51,327.249,672.51,363.976z M599.241,309.618c0.186,0.002,0.37,0.004,0.555,0.007
		c0,4.24-0.336,8.513,0.067,12.714c0.948,9.886,7.891,17.544,16.534,18.735c13.479,1.856,23.257-2.12,26.492-12.034
		c4.277-13.107,4.249-26.593-0.129-39.731c-2.035-6.105-6.631-9.848-13.359-10.986c-19.816-3.359-28.84,3.872-29.749,24.152
		C599.546,304.857,599.38,307.238,599.241,309.618z"/>
	<path fill="#ED1D24" d="M194.75,363.255c-0.379-3.293-0.735-6.376-1.228-10.641c-3.062,1.938-5.421,3.313-7.659,4.865
		c-19.179,13.313-43.813,8.391-56.513-11.321c-13.938-21.639-13.14-54.281,1.844-75.495c14.154-20.038,41.934-22.916,59.863-6.225
		c0.332,0.308,0.935,0.325,2.312,0.768c0.474-3.104,0.928-6.073,1.462-9.564c7.64,0,15.459,0,23.905,0c0,35.634,0,71.245,0,107.613
		C210.892,363.255,202.919,363.255,194.75,363.255z M193.025,309.517c-0.725-5.586-1.083-11.146-2.229-16.538
		c-2.078-9.771-9.487-15.054-21.007-15.582c-11.226-0.517-20.443,4.269-21.779,14.091c-1.571,11.543-1.619,23.611-0.128,35.17
		c1.377,10.676,9.148,14.77,21.922,14.654c11.537-0.107,18.585-5.076,20.905-15.384
		C191.916,320.562,192.278,315.007,193.025,309.517z"/>
	<path fill="#ED1D24" d="M265.534,363.437c-8.917,0-16.734,0-24.907,0c0-36.048,0-71.536,0-107.663c7.873,0,15.685,0,24.006,0
		c0.527,2.032,1.143,4.408,1.979,7.624c10.052-6.96,20.392-11.313,32.128-9.569c19.518,2.902,30.962,15.373,31.646,36.349
		c0.788,24.104,0.184,48.253,0.184,73.106c-8.638,0-16.932,0-26.02,0c-0.127-2.782-0.36-5.578-0.365-8.373
		c-0.032-18.569,0.009-37.144-0.025-55.714c-0.024-12.417-7.438-21.641-17.832-22.312c-10.532-0.682-18.51,6.323-20.21,18.975
		c-0.981,7.303-0.531,14.813-0.564,22.228C265.489,332.926,265.534,347.762,265.534,363.437z"/>
	<path fill="#ED1D24" d="M347.54,363.156c0-16.699,0-31.498,0-46.292c0-18.032,0.175-36.068-0.104-54.095
		c-0.084-5.502,1.582-7.34,7.215-7.355c16.967-0.047,16.949-0.276,16.972,16.593c0.012,8.75,0.073,17.497,0.17,26.247
		c0.011,0.713,0.467,1.418,1.063,3.121c8.027-7.396,15.863-14.242,23.271-21.521c15.506-15.243,30.674-30.831,46.28-45.971
		c2.331-2.261,6.223-3.85,9.487-4.035c9.392-0.534,18.834-0.188,27.81-0.188C435.969,273.834,392.437,317.804,347.54,363.156z"/>
	<path fill="#ED1D24" d="M469.96,363.299c0-36.896,0-71.543,0-106.974c7.565,0,14.993,0,23.647,0c0,14.908,0,29.546,0,44.184
		c0.668,0.278,1.337,0.558,2.003,0.836c1.975-1.856,3.993-3.662,5.912-5.572c20.655-20.562,41.198-41.237,62.066-61.581
		c2.49-2.428,6.664-4.114,10.171-4.332c9.494-0.589,19.049-0.202,27.842-0.202C558.35,273.564,514.87,317.706,469.96,363.299z"/>
	<path fill="#ED1D24" d="M781.627,230.038c9.055,0,16.666,0,25.273,0c0,5.032-0.01,9.721,0.001,14.409
		c0.021,10.656,0.022,10.658,10.318,10.684c2.881,0.009,5.763,0.001,9.212,0.001c0,7.323,0,14.072,0,21.91
		c-4.441,0-8.585,0.138-12.717-0.037c-4.538-0.191-6.903,1.347-6.855,6.321c0.148,15.64-0.116,31.282,0.143,46.918
		c0.115,6.953,3.427,11.928,11.221,11.169c7.008-0.681,9.178,1.741,8.948,8.839c-0.482,14.792-0.083,14.619-15.044,13.773
		c-22.692-1.281-31.561-15.263-30.647-33.164c0.729-14.276,0.154-28.621,0.146-42.935c-0.008-10.57-0.018-10.564-10.952-10.919
		c-1.292-0.043-2.578-0.214-5.195-0.438c1.259-7.201,2.443-13.988,3.595-20.581c12.55-1.895,12.55-1.895,12.557-14.522
		C781.627,237.826,781.627,234.185,781.627,230.038z"/>
	<path fill="#ED1D24" d="M754.193,254.186c-1.154,6.438-1.842,12.731-3.621,18.7c-0.533,1.785-4.067,3.675-6.322,3.796
		c-18.793,1.007-24.914,7.368-24.922,26.62c-0.008,19.846-0.002,39.69-0.002,60.626c-7.987,0-15.341,0.203-22.658-0.193
		c-1.266-0.067-3.427-2.667-3.43-4.103c-0.079-34.181,0.077-68.364,0.229-102.547c0.001-0.458,0.482-0.914,0.902-1.66
		c7.742,0,15.645,0,24.219,0c0.343,2.408,0.691,4.873,1.233,8.67C730.154,255.642,741.208,251.955,754.193,254.186z"/>
	<path fill="#ED1D24" d="M395.544,332.64c6.505-6.269,12.55-12.093,19.038-18.345c10.216,15.856,20.639,32.028,31.979,49.629
		c-10.748,0-19.889,0.134-29.021-0.132c-1.518-0.047-3.505-1.505-4.391-2.878C407.076,351.455,401.237,341.844,395.544,332.64z"/>
	<path fill="#ED1D24" d="M536.843,314.164c10.383,16.228,20.656,32.283,31.869,49.803c-10.422,0-19.32,0.273-28.18-0.204
		c-2.042-0.111-4.508-2.419-5.815-4.362c-5.854-8.691-11.36-17.618-17.058-26.557C523.928,326.739,530.109,320.722,536.843,314.164z
		"/>
	<path fill="#FFFFFF" d="M40.133,309.159c0.825-6.37,1.143-12.754,2.57-18.883c1.908-8.195,8.414-12.748,16.874-12.878
		c8.777-0.134,14.185,3.187,16.84,11.634c4.229,13.457,4.014,27.197,0.105,40.656c-2.471,8.509-8.349,11.871-17.646,11.61
		c-8.514-0.236-14.123-4.112-16.123-12.492C41.237,322.436,40.968,315.77,40.133,309.159z"/>
	<path fill="#FFFFFF" d="M599.241,309.618c0.139-2.38,0.305-4.761,0.411-7.145c0.909-20.281,9.933-27.513,29.749-24.152
		c6.729,1.139,11.324,4.881,13.359,10.986c4.378,13.14,4.406,26.624,0.129,39.731c-3.235,9.914-13.014,13.892-26.492,12.034
		c-8.645-1.191-15.586-8.851-16.534-18.735c-0.403-4.201-0.067-8.474-0.067-12.715C599.612,309.622,599.427,309.62,599.241,309.618z
		"/>
	<path fill="#FFFFFF" d="M193.025,309.517c-0.747,5.488-1.108,11.045-2.315,16.412c-2.32,10.308-9.368,15.275-20.905,15.384
		c-12.771,0.114-20.545-3.979-21.922-14.654c-1.491-11.559-1.442-23.627,0.128-35.17c1.335-9.822,10.554-14.607,21.779-14.091
		c11.52,0.528,18.929,5.811,21.007,15.582C191.942,298.371,192.3,303.931,193.025,309.517z"/>
</g>
</svg>
