<svg id="svg" version="1.1" xmlns="http://www.w3.org/2000/svg" xmlns:xlink="http://www.w3.org/1999/xlink" width="400" height="153.07692307692307" viewBox="0, 0, 400,153.07692307692307"><g id="svgg"><path id="path0" d="M186.250 46.589 C 185.792 46.718,184.708 46.906,183.842 47.007 C 182.976 47.109,182.067 47.296,181.822 47.422 C 181.578 47.549,180.923 47.726,180.367 47.815 C 179.810 47.905,179.182 48.090,178.969 48.227 C 178.757 48.363,178.283 48.528,177.917 48.592 C 177.550 48.656,177.137 48.806,177.000 48.925 C 176.862 49.044,176.396 49.231,175.963 49.339 C 175.531 49.448,175.090 49.641,174.985 49.769 C 174.879 49.896,174.716 50.000,174.622 50.000 C 174.359 50.000,171.959 51.184,171.703 51.440 C 171.578 51.565,171.374 51.667,171.250 51.667 C 171.126 51.667,170.909 51.782,170.768 51.923 C 170.627 52.064,170.247 52.290,169.923 52.425 C 169.598 52.560,169.333 52.736,169.333 52.815 C 169.333 52.895,169.108 53.053,168.833 53.167 C 168.558 53.281,168.333 53.424,168.333 53.484 C 168.333 53.545,168.098 53.734,167.810 53.904 C 167.523 54.074,167.156 54.334,166.996 54.481 C 166.836 54.629,166.340 55.047,165.894 55.409 C 164.390 56.632,160.167 60.993,160.167 61.322 C 160.167 61.410,160.034 61.579,159.872 61.699 C 159.711 61.819,159.485 62.104,159.371 62.333 C 159.257 62.563,158.865 63.163,158.499 63.667 C 158.133 64.171,157.834 64.665,157.834 64.766 C 157.833 64.866,157.688 65.080,157.509 65.241 C 157.331 65.403,157.139 65.747,157.082 66.006 C 157.025 66.265,156.875 66.563,156.748 66.668 C 156.621 66.774,156.429 67.135,156.321 67.472 C 156.213 67.808,156.027 68.196,155.909 68.333 C 155.790 68.471,155.640 68.808,155.575 69.083 C 155.510 69.358,155.323 69.808,155.159 70.083 C 154.995 70.358,154.807 70.883,154.740 71.250 C 154.673 71.617,154.479 72.178,154.309 72.498 C 154.139 72.817,154.000 73.288,154.000 73.544 C 154.000 73.801,153.845 74.471,153.656 75.033 C 153.466 75.595,153.245 76.849,153.164 77.819 C 153.084 78.790,152.936 80.305,152.835 81.187 C 152.690 82.462,152.704 83.232,152.900 84.937 C 153.035 86.118,153.194 87.643,153.253 88.326 C 153.312 89.009,153.463 89.768,153.590 90.012 C 153.716 90.256,153.892 90.911,153.982 91.467 C 154.071 92.023,154.255 92.652,154.389 92.864 C 154.524 93.076,154.687 93.506,154.753 93.819 C 154.818 94.132,155.039 94.703,155.244 95.088 C 155.448 95.472,155.662 95.929,155.720 96.102 C 155.777 96.275,155.899 96.529,155.991 96.667 C 156.083 96.804,156.276 97.179,156.419 97.500 C 156.854 98.477,157.207 99.077,157.420 99.204 C 157.532 99.271,157.723 99.568,157.846 99.864 C 157.969 100.160,158.185 100.532,158.326 100.690 C 158.468 100.847,158.748 101.188,158.949 101.447 C 160.604 103.575,162.253 105.347,163.448 106.284 C 163.706 106.485,164.329 106.975,164.833 107.372 C 165.337 107.769,165.938 108.220,166.167 108.375 C 166.396 108.529,166.914 108.890,167.319 109.176 C 167.723 109.462,168.211 109.765,168.402 109.849 C 168.593 109.934,169.125 110.227,169.583 110.501 C 170.042 110.775,170.529 111.046,170.667 111.103 C 170.804 111.161,171.373 111.424,171.930 111.687 C 172.487 111.951,173.034 112.167,173.145 112.167 C 173.256 112.167,173.550 112.310,173.798 112.484 C 174.047 112.659,174.550 112.852,174.917 112.913 C 175.283 112.975,175.754 113.134,175.962 113.269 C 176.171 113.403,176.764 113.591,177.280 113.686 C 177.796 113.782,178.376 113.959,178.568 114.081 C 178.760 114.202,179.404 114.353,180.000 114.416 C 180.596 114.479,181.308 114.641,181.583 114.776 C 181.858 114.910,182.983 115.095,184.083 115.188 C 185.183 115.280,186.557 115.463,187.135 115.594 C 188.613 115.930,196.331 115.922,197.750 115.582 C 198.300 115.451,199.500 115.294,200.417 115.234 C 201.333 115.174,202.496 114.988,203.000 114.822 C 203.504 114.656,204.362 114.467,204.906 114.403 C 205.450 114.339,206.200 114.156,206.573 113.995 C 206.945 113.835,207.597 113.655,208.020 113.595 C 208.444 113.535,209.078 113.339,209.430 113.160 C 209.782 112.980,210.252 112.833,210.474 112.833 C 210.696 112.833,211.111 112.691,211.397 112.518 C 211.683 112.344,212.231 112.151,212.615 112.088 C 213.000 112.025,213.397 111.874,213.499 111.752 C 213.600 111.629,214.051 111.441,214.500 111.333 C 214.949 111.226,215.405 111.031,215.512 110.902 C 215.620 110.773,215.824 110.667,215.966 110.667 C 216.208 110.667,218.120 109.831,218.667 109.486 C 218.804 109.400,219.124 109.247,219.379 109.147 C 220.169 108.836,220.166 108.867,220.170 98.386 C 220.174 86.564,220.283 85.290,221.398 83.928 C 222.371 82.741,223.514 82.269,225.667 82.167 L 227.417 82.083 227.417 81.083 L 227.417 80.083 212.667 80.083 L 197.917 80.083 197.867 81.020 C 197.808 82.154,197.818 82.159,200.250 82.168 C 201.512 82.173,202.083 82.250,202.603 82.486 C 202.980 82.657,203.508 82.845,203.775 82.904 C 204.203 82.998,205.254 83.855,205.757 84.520 C 206.779 85.869,206.970 88.080,206.987 98.698 L 207.000 107.312 206.384 107.894 C 206.032 108.225,205.513 108.522,205.175 108.585 C 204.850 108.645,204.461 108.804,204.312 108.938 C 204.163 109.072,203.751 109.225,203.396 109.279 C 203.041 109.332,202.525 109.510,202.250 109.673 C 201.975 109.836,201.300 110.044,200.750 110.136 C 200.200 110.228,199.412 110.434,199.000 110.593 C 197.789 111.059,189.823 111.018,188.417 110.537 C 187.867 110.349,187.117 110.145,186.750 110.084 C 186.383 110.022,185.858 109.837,185.583 109.673 C 185.308 109.508,184.810 109.325,184.475 109.266 C 184.141 109.206,183.779 109.052,183.672 108.923 C 183.565 108.794,183.262 108.641,183.000 108.583 C 182.738 108.526,182.428 108.364,182.313 108.225 C 182.197 108.086,181.817 107.857,181.468 107.718 C 181.119 107.578,180.833 107.409,180.833 107.342 C 180.833 107.275,180.649 107.136,180.423 107.033 C 180.198 106.931,179.879 106.730,179.715 106.589 C 179.551 106.447,178.902 105.910,178.273 105.396 C 177.192 104.511,176.335 103.654,175.583 102.705 C 174.247 101.018,173.857 100.499,173.456 99.875 C 173.205 99.485,172.813 98.881,172.583 98.533 C 172.354 98.184,172.167 97.782,172.167 97.639 C 172.167 97.495,172.021 97.194,171.844 96.968 C 171.666 96.742,171.467 96.338,171.402 96.070 C 171.336 95.802,171.144 95.404,170.975 95.186 C 170.805 94.967,170.667 94.627,170.667 94.429 C 170.667 94.232,170.518 93.779,170.336 93.423 C 170.155 93.066,169.933 92.377,169.843 91.892 C 169.753 91.406,169.574 90.800,169.444 90.546 C 169.315 90.291,169.157 89.558,169.095 88.917 C 169.032 88.275,168.854 87.337,168.699 86.833 C 168.286 85.492,168.280 76.040,168.691 74.667 C 168.843 74.162,169.018 73.189,169.080 72.503 C 169.143 71.817,169.306 70.992,169.443 70.670 C 169.580 70.347,169.766 69.634,169.856 69.085 C 169.946 68.537,170.122 67.974,170.246 67.835 C 170.370 67.697,170.527 67.284,170.595 66.918 C 170.663 66.552,170.895 65.922,171.109 65.518 C 171.324 65.114,171.500 64.649,171.500 64.485 C 171.500 64.321,171.581 64.136,171.680 64.075 C 171.780 64.013,172.006 63.653,172.183 63.273 C 172.360 62.894,172.686 62.283,172.908 61.917 C 173.130 61.550,173.468 60.969,173.659 60.625 C 173.850 60.281,174.075 60.000,174.159 60.000 C 174.242 60.000,174.359 59.847,174.419 59.660 C 174.526 59.322,177.572 56.188,178.345 55.619 C 178.568 55.456,179.042 55.099,179.398 54.828 C 179.754 54.556,180.150 54.333,180.278 54.333 C 180.406 54.333,180.553 54.222,180.606 54.085 C 180.658 53.948,180.993 53.749,181.351 53.642 C 181.708 53.535,182.000 53.387,182.000 53.314 C 182.000 53.240,182.319 53.089,182.708 52.978 C 183.098 52.867,183.532 52.679,183.673 52.560 C 183.815 52.442,184.340 52.258,184.840 52.152 C 185.341 52.046,185.958 51.853,186.211 51.724 C 186.828 51.409,192.101 50.945,193.583 51.075 C 194.225 51.131,195.634 51.249,196.714 51.337 C 197.795 51.426,198.884 51.604,199.134 51.733 C 199.385 51.863,200.023 52.049,200.552 52.147 C 201.082 52.245,201.678 52.439,201.878 52.579 C 202.077 52.719,202.354 52.833,202.493 52.833 C 202.632 52.833,203.121 53.012,203.581 53.230 C 204.041 53.448,204.604 53.714,204.833 53.821 C 205.063 53.928,205.550 54.197,205.917 54.418 C 206.283 54.639,206.808 54.947,207.083 55.102 C 207.358 55.256,207.681 55.522,207.801 55.691 C 207.921 55.861,208.100 56.000,208.199 56.000 C 208.298 56.000,208.549 56.169,208.757 56.375 C 208.965 56.581,209.604 57.163,210.177 57.667 C 210.750 58.171,211.697 59.183,212.280 59.917 C 212.864 60.650,213.490 61.425,213.671 61.639 C 213.852 61.853,214.000 62.120,214.000 62.232 C 214.000 62.344,214.188 62.689,214.417 63.000 C 214.646 63.311,214.833 63.691,214.833 63.845 C 214.833 64.000,214.945 64.219,215.082 64.332 C 215.219 64.446,215.413 64.849,215.514 65.228 C 215.615 65.607,215.795 66.029,215.915 66.167 C 216.034 66.304,216.218 66.838,216.323 67.353 C 216.590 68.661,217.021 69.034,218.187 68.968 L 219.083 68.917 219.025 66.833 C 218.993 65.688,218.861 64.235,218.731 63.606 C 218.602 62.976,218.423 61.064,218.333 59.356 C 218.243 57.648,218.059 55.726,217.925 55.086 C 217.790 54.447,217.635 52.797,217.580 51.420 C 217.400 46.871,217.243 46.338,216.083 46.338 C 215.133 46.338,215.008 46.476,214.811 47.738 C 214.424 50.227,212.423 51.565,210.794 50.424 C 210.591 50.283,210.229 50.167,209.988 50.167 C 209.747 50.167,209.197 49.979,208.766 49.750 C 208.335 49.521,207.818 49.333,207.616 49.333 C 207.415 49.332,207.019 49.191,206.736 49.019 C 206.453 48.846,205.891 48.652,205.486 48.587 C 205.081 48.521,204.576 48.358,204.364 48.223 C 204.152 48.088,203.514 47.904,202.947 47.813 C 202.380 47.722,201.759 47.545,201.566 47.419 C 201.373 47.293,200.548 47.115,199.732 47.023 C 198.917 46.931,197.803 46.738,197.257 46.594 C 195.901 46.238,187.517 46.234,186.250 46.589 M20.242 48.057 C 20.188 48.272,20.167 48.741,20.197 49.099 L 20.250 49.750 22.667 49.843 C 24.374 49.908,25.230 50.011,25.583 50.194 C 25.858 50.337,26.299 50.505,26.562 50.568 C 27.634 50.826,29.162 52.577,29.410 53.833 C 29.474 54.154,29.651 54.754,29.804 55.167 C 30.061 55.856,30.083 57.935,30.083 80.667 L 30.083 105.417 29.708 106.459 C 29.502 107.032,29.333 107.641,29.333 107.812 C 29.333 107.982,29.183 108.312,29.000 108.545 C 28.817 108.779,28.667 109.044,28.667 109.136 C 28.667 109.427,27.283 110.633,26.417 111.097 C 25.727 111.466,25.142 111.592,23.028 111.826 C 21.246 112.023,20.426 112.181,20.322 112.346 C 20.136 112.640,20.125 113.676,20.305 113.959 C 20.410 114.125,23.862 114.160,37.010 114.126 L 53.583 114.083 53.635 113.268 C 53.706 112.154,53.691 112.147,50.650 111.812 C 48.932 111.622,47.861 111.429,47.688 111.277 C 47.539 111.146,47.239 110.985,47.022 110.919 C 46.581 110.784,45.167 109.382,45.167 109.079 C 45.167 108.972,45.026 108.722,44.855 108.525 C 44.683 108.327,44.491 107.772,44.429 107.291 C 44.366 106.810,44.206 106.095,44.074 105.703 C 43.715 104.637,43.712 56.875,44.071 55.797 C 44.202 55.405,44.359 54.708,44.419 54.250 C 44.480 53.792,44.663 53.228,44.825 52.997 C 44.987 52.766,45.171 52.416,45.233 52.220 C 45.383 51.749,46.655 50.716,47.266 50.569 C 47.532 50.506,47.975 50.337,48.250 50.194 C 48.603 50.011,49.460 49.908,51.167 49.843 L 53.583 49.750 53.583 48.750 L 53.583 47.750 36.962 47.708 L 20.340 47.665 20.242 48.057 M66.403 47.892 C 66.354 48.020,66.337 48.491,66.365 48.938 L 66.417 49.750 67.931 49.857 C 68.796 49.918,69.668 50.078,69.965 50.232 C 70.250 50.379,70.602 50.500,70.747 50.500 C 71.468 50.500,74.000 52.142,74.000 52.609 C 74.000 52.726,74.150 52.902,74.333 53.000 C 74.517 53.098,74.667 53.277,74.667 53.398 C 74.667 53.518,74.842 53.947,75.056 54.350 C 75.434 55.062,75.678 56.367,76.003 59.417 C 76.201 61.271,76.200 99.475,76.002 101.750 C 75.524 107.240,75.222 108.350,73.792 109.863 C 72.970 110.734,71.189 111.667,70.349 111.667 C 68.150 111.667,67.000 112.159,67.000 113.102 C 67.000 114.259,65.973 114.167,78.837 114.167 L 90.471 114.167 90.578 113.534 C 90.804 112.193,89.679 111.653,86.680 111.665 C 85.734 111.669,82.833 109.768,82.833 109.145 C 82.833 109.048,82.683 108.779,82.500 108.545 C 82.317 108.312,82.167 107.917,82.167 107.666 C 82.167 107.415,82.020 106.751,81.840 106.189 C 81.563 105.321,81.298 72.202,81.493 62.726 C 81.514 61.690,82.281 62.350,87.939 68.273 C 89.340 69.739,95.177 75.772,97.917 78.585 C 99.200 79.902,102.125 82.906,104.417 85.259 C 106.708 87.612,109.558 90.530,110.750 91.743 C 111.942 92.956,114.426 95.516,116.271 97.432 C 118.117 99.349,120.463 101.779,121.487 102.833 C 125.919 107.400,129.537 111.116,131.138 112.747 L 132.860 114.500 134.763 114.500 C 135.810 114.500,136.684 114.481,136.706 114.458 C 136.728 114.435,136.784 101.329,136.831 85.333 C 136.911 58.087,136.935 56.211,137.208 55.630 C 137.369 55.290,137.501 54.840,137.502 54.630 C 137.504 54.421,137.612 54.063,137.742 53.833 C 137.873 53.604,138.086 53.192,138.215 52.917 C 138.412 52.496,139.089 51.812,140.138 50.973 C 140.259 50.876,140.713 50.703,141.145 50.589 C 141.578 50.475,142.110 50.286,142.327 50.170 C 142.544 50.054,143.441 49.912,144.319 49.854 L 145.917 49.750 145.917 48.750 L 145.917 47.750 134.250 47.750 L 122.583 47.750 122.583 48.750 L 122.583 49.750 124.176 49.854 C 125.052 49.911,125.990 50.070,126.259 50.206 C 126.529 50.342,126.968 50.506,127.234 50.570 C 128.233 50.810,130.167 52.573,130.167 53.244 C 130.167 53.342,130.319 53.707,130.506 54.055 C 131.047 55.064,131.148 58.264,131.167 75.000 C 131.188 92.705,131.215 90.615,130.967 90.367 C 130.857 90.257,130.664 90.167,130.538 90.167 C 130.412 90.167,129.358 89.196,128.196 88.009 C 123.196 82.902,115.906 75.427,114.078 73.532 C 112.990 72.404,111.233 70.590,110.175 69.501 C 109.116 68.411,108.160 67.422,108.050 67.302 C 107.939 67.182,107.752 66.996,107.633 66.889 C 107.514 66.782,105.542 64.776,103.250 62.430 C 100.958 60.085,96.780 55.822,93.965 52.958 L 88.847 47.750 77.670 47.704 C 68.196 47.665,66.479 47.693,66.403 47.892 " stroke="none" fill="#08306f" fill-rule="evenodd"></path><path id="path1" d="M279.500 27.319 C 279.500 27.403,279.584 27.500,279.686 27.534 C 279.953 27.623,280.086 29.862,279.850 30.302 C 279.486 30.982,278.419 30.167,277.566 28.558 C 277.187 27.845,276.705 27.654,275.683 27.816 C 274.717 27.969,273.598 29.000,274.398 29.000 C 274.838 29.000,275.362 29.564,275.234 29.899 C 275.088 30.280,272.748 30.178,271.714 29.746 C 271.154 29.512,271.066 29.519,270.431 29.845 C 269.702 30.220,269.627 30.283,268.048 31.874 C 266.614 33.319,266.572 33.373,266.178 34.263 L 265.828 35.054 266.166 35.368 C 266.587 35.761,266.448 36.067,265.461 36.911 L 264.751 37.519 264.667 39.336 L 264.583 41.154 263.904 41.868 C 262.741 43.094,262.451 43.729,261.832 46.417 C 261.563 47.586,261.114 52.165,261.014 54.760 C 260.920 57.190,260.902 57.288,260.458 57.815 C 260.050 58.300,260.000 58.491,260.000 59.576 C 260.000 60.907,260.261 61.421,260.633 60.825 C 260.771 60.604,261.022 60.500,261.418 60.500 L 262.000 60.500 262.000 61.676 C 262.000 62.751,261.959 62.891,261.528 63.301 C 260.715 64.074,260.333 64.760,260.337 65.442 C 260.346 66.904,260.915 68.152,261.365 67.701 C 261.476 67.591,261.735 67.500,261.940 67.500 C 262.146 67.500,262.360 67.425,262.417 67.333 C 262.598 67.040,262.833 67.155,262.833 67.536 C 262.833 68.022,262.348 69.329,262.011 69.750 C 260.988 71.027,260.951 71.135,261.234 71.998 C 261.378 72.441,261.574 73.348,261.669 74.014 C 261.763 74.680,261.912 75.310,261.999 75.415 C 262.086 75.520,262.239 76.013,262.339 76.511 C 262.440 77.009,262.658 77.754,262.824 78.167 C 262.990 78.579,263.173 79.183,263.231 79.509 C 263.289 79.835,263.486 80.395,263.668 80.753 C 263.851 81.111,264.000 81.548,264.000 81.724 C 264.000 81.900,264.142 82.278,264.315 82.564 C 264.489 82.849,264.685 83.346,264.751 83.667 C 264.818 83.987,264.984 84.443,265.121 84.678 C 265.368 85.104,265.109 86.059,264.491 87.000 C 264.401 87.138,264.213 87.513,264.073 87.833 C 263.934 88.154,263.673 88.689,263.493 89.023 C 263.314 89.356,263.167 89.760,263.167 89.920 C 263.167 90.080,263.025 90.445,262.851 90.730 C 262.678 91.016,262.480 91.513,262.412 91.833 C 262.344 92.154,262.149 92.678,261.978 92.998 C 261.807 93.317,261.667 93.768,261.667 94.000 C 261.667 94.232,261.523 94.689,261.348 95.017 C 261.172 95.344,260.975 95.981,260.909 96.431 C 260.844 96.881,260.687 97.453,260.562 97.700 C 260.436 97.948,260.251 98.534,260.150 99.003 C 259.939 99.988,259.681 100.158,259.040 99.734 C 257.806 98.917,253.599 98.825,253.021 99.602 C 252.300 100.572,251.885 100.730,250.013 100.750 L 248.194 100.770 247.297 101.536 C 246.056 102.596,245.557 103.391,245.425 104.515 C 245.344 105.209,245.141 105.713,244.629 106.498 L 243.941 107.550 243.966 109.707 C 243.988 111.554,244.040 111.942,244.329 112.410 C 244.515 112.710,244.667 113.072,244.667 113.213 C 244.667 113.355,244.897 113.665,245.179 113.902 L 245.692 114.333 263.054 114.331 C 272.604 114.329,280.517 114.265,280.639 114.187 C 280.921 114.009,280.662 112.955,280.216 112.463 C 279.965 112.186,279.908 111.765,279.863 109.858 C 279.807 107.464,279.831 107.346,280.656 105.917 C 280.921 105.458,281.245 104.858,281.376 104.583 C 281.508 104.308,281.734 103.984,281.880 103.863 C 282.026 103.743,282.192 103.429,282.250 103.167 C 282.386 102.549,282.707 102.294,283.649 102.056 C 284.071 101.950,284.717 101.747,285.083 101.605 C 285.450 101.464,286.141 101.345,286.619 101.341 C 287.409 101.334,287.566 101.265,288.333 100.583 L 289.178 99.833 290.948 99.833 C 292.922 99.833,294.182 100.258,295.297 101.300 C 296.338 102.272,295.741 103.419,294.534 102.766 C 292.666 101.755,290.171 101.681,290.165 102.637 C 290.164 102.791,290.119 103.185,290.064 103.514 C 289.834 104.906,292.069 105.909,293.513 105.063 C 294.698 104.368,296.179 104.266,296.833 104.833 C 297.045 105.017,297.280 105.167,297.357 105.167 C 297.868 105.167,298.402 106.623,298.469 108.197 C 298.547 110.027,298.728 110.364,299.792 110.662 C 300.796 110.943,301.653 111.744,301.315 112.086 C 300.876 112.531,298.858 112.766,297.752 112.501 C 296.671 112.241,296.576 112.295,296.156 113.402 C 295.881 114.126,295.882 114.141,296.230 114.234 C 296.786 114.383,322.637 114.349,322.730 114.199 C 322.810 114.070,322.435 113.151,321.867 112.083 C 321.677 111.726,321.582 110.977,321.534 109.461 C 321.461 107.156,321.410 107.329,322.549 106.000 C 322.667 105.862,323.053 105.320,323.408 104.794 C 323.916 104.040,324.160 103.824,324.568 103.767 C 327.656 103.336,329.314 102.914,329.818 102.431 C 330.626 101.657,334.104 101.818,334.918 102.668 C 335.619 103.399,335.434 103.740,334.304 103.800 C 333.509 103.841,333.318 103.915,333.086 104.270 C 332.845 104.638,332.708 104.685,331.987 104.646 C 330.686 104.577,330.243 105.778,331.199 106.784 C 332.268 107.908,331.880 109.285,330.471 109.366 L 329.583 109.417 329.500 110.250 C 329.454 110.708,329.441 111.775,329.470 112.620 L 329.523 114.156 330.094 114.263 C 331.495 114.526,331.714 114.179,332.003 111.250 C 332.215 109.106,332.302 108.672,332.593 108.333 C 332.711 108.196,332.857 107.883,332.919 107.637 C 332.980 107.392,333.173 107.062,333.348 106.903 C 333.523 106.745,333.667 106.550,333.667 106.471 C 333.667 106.392,333.948 105.968,334.292 105.530 C 336.276 102.999,337.913 102.965,340.207 105.408 C 341.054 106.310,341.115 106.462,340.792 106.859 C 340.165 107.630,338.835 107.532,338.301 106.676 C 338.113 106.376,338.083 106.381,337.542 106.793 C 336.956 107.240,336.893 107.846,337.390 108.250 C 338.289 108.981,338.537 110.381,337.951 111.415 C 337.358 112.463,336.734 112.134,336.024 110.398 C 335.331 108.704,333.703 111.109,333.817 113.657 C 333.847 114.329,333.974 114.339,341.667 114.288 C 349.612 114.236,351.080 114.083,352.047 113.208 C 352.321 112.960,352.851 112.902,355.642 112.818 C 357.443 112.764,359.114 112.638,359.355 112.538 C 359.597 112.438,360.347 112.279,361.022 112.184 C 361.697 112.089,362.547 111.859,362.910 111.672 C 363.273 111.486,363.732 111.333,363.929 111.333 C 364.127 111.333,364.479 111.183,364.712 111.000 C 364.945 110.817,365.241 110.667,365.369 110.667 C 365.497 110.667,365.856 110.479,366.167 110.250 C 366.477 110.021,366.819 109.833,366.925 109.833 C 367.492 109.833,371.391 106.476,372.270 105.231 C 372.442 104.986,372.733 104.581,372.917 104.329 C 373.217 103.918,373.805 103.045,374.942 101.324 C 375.157 100.999,375.333 100.673,375.333 100.601 C 375.333 100.528,375.483 100.279,375.667 100.045 C 375.850 99.812,376.000 99.492,376.000 99.333 C 376.000 99.175,376.145 98.860,376.323 98.634 C 376.501 98.408,376.699 98.005,376.764 97.737 C 376.829 97.469,377.017 96.987,377.182 96.667 C 377.495 96.060,377.901 94.897,378.200 93.750 C 378.295 93.383,378.483 92.746,378.617 92.333 C 378.752 91.921,378.933 91.133,379.022 90.583 C 379.110 90.033,379.329 88.815,379.508 87.875 C 379.856 86.050,379.949 81.435,379.672 79.750 C 379.597 79.292,379.446 78.279,379.337 77.500 C 379.228 76.721,379.028 75.633,378.893 75.083 C 378.758 74.533,378.539 73.596,378.407 73.000 C 378.274 72.404,378.063 71.729,377.938 71.500 C 377.812 71.271,377.656 70.783,377.591 70.417 C 377.525 70.050,377.328 69.516,377.153 69.230 C 376.977 68.945,376.833 68.588,376.833 68.439 C 376.833 68.289,376.651 67.811,376.428 67.375 C 376.206 66.940,375.939 66.396,375.837 66.167 C 375.562 65.552,375.172 64.785,374.989 64.500 C 374.901 64.362,374.677 63.950,374.491 63.583 C 374.082 62.779,373.587 61.966,372.917 61.002 C 372.642 60.607,372.342 60.163,372.250 60.017 C 371.872 59.412,368.861 55.856,368.073 55.083 C 366.725 53.763,365.279 52.587,363.253 51.167 C 362.926 50.938,362.476 50.600,362.253 50.417 C 362.029 50.233,361.675 49.956,361.465 49.800 C 359.665 48.466,356.725 45.606,356.035 44.519 C 355.882 44.279,355.662 44.023,355.546 43.950 C 355.429 43.877,355.333 43.738,355.333 43.641 C 355.333 43.544,355.146 43.242,354.917 42.970 C 354.688 42.697,354.500 42.372,354.500 42.248 C 354.500 41.964,352.908 40.393,352.289 40.065 C 351.787 39.800,351.796 39.791,351.584 40.748 C 351.423 41.473,351.260 41.500,350.037 41.005 C 348.678 40.454,348.179 39.888,348.477 39.233 C 348.588 38.990,348.632 38.744,348.575 38.687 C 348.324 38.438,343.257 38.587,342.750 38.858 C 342.475 39.006,341.837 39.211,341.333 39.315 C 340.829 39.419,340.192 39.614,339.917 39.748 C 339.642 39.882,338.985 40.074,338.458 40.174 C 337.018 40.449,336.947 40.758,338.065 41.877 C 338.559 42.371,339.140 43.095,339.357 43.485 C 339.573 43.876,339.863 44.395,340.000 44.639 C 340.570 45.651,340.911 45.835,342.293 45.877 L 343.582 45.917 343.529 45.377 C 343.451 44.592,344.078 44.318,344.863 44.793 C 345.244 45.024,345.817 45.152,346.702 45.205 C 348.833 45.333,349.365 46.831,347.280 46.834 C 345.998 46.836,345.333 47.116,345.333 47.654 C 345.333 48.222,344.970 48.566,344.522 48.424 C 344.064 48.278,343.333 48.490,343.333 48.768 C 343.333 48.896,343.437 49.000,343.563 49.000 C 343.689 49.000,343.890 49.118,344.010 49.262 C 344.130 49.406,344.495 49.670,344.822 49.847 C 345.149 50.025,345.529 50.237,345.667 50.318 C 347.501 51.405,349.629 51.649,352.188 51.067 C 354.731 50.489,357.286 51.040,359.500 52.646 C 359.729 52.813,360.254 53.164,360.667 53.427 C 361.079 53.690,361.545 54.020,361.702 54.161 C 361.859 54.302,362.185 54.567,362.427 54.750 C 363.397 55.484,367.167 59.154,367.167 59.364 C 367.167 59.430,367.335 59.665,367.542 59.885 C 367.748 60.105,368.049 60.465,368.210 60.684 C 368.371 60.904,368.673 61.308,368.881 61.583 C 369.089 61.858,369.475 62.421,369.739 62.833 C 370.003 63.246,370.357 63.787,370.526 64.035 C 370.695 64.283,370.833 64.550,370.833 64.628 C 370.833 64.705,371.021 65.023,371.250 65.333 C 371.479 65.644,371.667 66.023,371.667 66.177 C 371.667 66.330,371.812 66.640,371.990 66.866 C 372.167 67.092,372.367 67.493,372.434 67.758 C 372.500 68.023,372.685 68.467,372.844 68.745 C 373.004 69.023,373.189 69.511,373.256 69.831 C 373.322 70.150,373.480 70.569,373.606 70.761 C 373.731 70.952,373.916 71.553,374.016 72.096 C 374.116 72.639,374.270 73.172,374.359 73.279 C 374.448 73.387,374.626 74.212,374.755 75.113 C 374.884 76.013,375.066 77.008,375.159 77.323 C 375.798 79.485,375.254 87.942,374.316 90.420 C 374.142 90.880,374.000 91.445,374.000 91.676 C 374.000 91.907,373.854 92.382,373.676 92.731 C 373.498 93.080,373.303 93.591,373.243 93.867 C 373.142 94.325,372.521 95.722,372.146 96.333 C 372.062 96.471,371.887 96.814,371.756 97.097 C 371.626 97.379,371.402 97.707,371.260 97.825 C 371.117 97.944,371.000 98.134,371.000 98.247 C 371.000 98.581,369.589 100.363,368.310 101.643 C 367.229 102.725,366.071 103.697,365.447 104.047 C 365.155 104.210,364.579 104.535,364.167 104.768 C 362.019 105.984,357.934 106.644,356.912 105.940 C 356.731 105.816,356.297 105.621,355.948 105.507 C 355.101 105.232,354.676 104.418,354.963 103.622 C 355.070 103.326,355.238 102.333,355.338 101.417 C 355.437 100.500,355.604 99.450,355.707 99.083 C 355.964 98.172,355.958 91.633,355.699 90.736 C 355.591 90.362,355.426 89.274,355.332 88.319 C 355.238 87.365,355.053 86.283,354.920 85.917 C 354.788 85.550,354.599 84.737,354.501 84.111 C 354.403 83.484,354.220 82.809,354.094 82.611 C 353.968 82.412,353.813 81.912,353.750 81.500 C 353.687 81.087,353.532 80.588,353.407 80.390 C 353.282 80.193,353.091 79.668,352.983 79.224 C 352.875 78.780,352.693 78.304,352.580 78.167 C 352.466 78.029,352.322 77.729,352.260 77.500 C 352.142 77.066,351.417 75.434,351.150 75.000 C 351.065 74.862,350.842 74.450,350.654 74.083 C 350.078 72.958,349.754 72.414,349.369 71.925 C 349.166 71.666,349.000 71.378,349.000 71.283 C 349.000 71.189,348.887 70.993,348.750 70.847 C 348.612 70.702,348.040 70.021,347.478 69.333 C 346.300 67.891,346.005 67.599,344.417 66.301 C 343.775 65.777,343.135 65.251,342.995 65.132 C 342.855 65.014,342.480 64.786,342.162 64.626 C 341.844 64.466,341.471 64.266,341.333 64.182 C 339.968 63.344,336.791 63.076,335.418 63.683 C 334.628 64.032,333.175 65.396,333.169 65.792 C 333.168 65.907,333.017 66.281,332.833 66.623 C 332.650 66.965,332.500 67.476,332.500 67.758 C 332.500 68.621,330.754 69.828,329.144 70.077 C 328.744 70.139,328.042 70.311,327.583 70.460 C 326.421 70.836,323.505 70.844,322.500 70.473 C 322.087 70.321,321.450 70.145,321.083 70.083 C 320.717 70.020,320.229 69.866,320.000 69.740 C 319.771 69.614,319.321 69.393,319.000 69.249 C 316.144 67.970,315.670 67.392,315.668 65.192 C 315.667 64.114,315.250 63.167,314.776 63.167 C 314.665 63.167,314.366 62.930,314.112 62.640 C 313.317 61.734,313.790 60.123,314.628 60.882 C 315.310 61.499,315.344 60.950,314.751 58.906 C 314.229 57.104,314.318 57.220,313.222 56.901 C 312.531 56.701,312.110 56.439,311.572 55.878 C 310.164 54.408,310.486 53.336,312.106 54.105 C 312.858 54.462,312.889 54.397,312.498 53.284 C 312.316 52.766,312.167 52.095,312.167 51.793 C 312.167 51.492,312.028 50.984,311.858 50.664 C 311.688 50.345,311.494 49.788,311.427 49.426 C 311.361 49.065,311.172 48.502,311.008 48.176 C 310.614 47.391,310.086 46.209,309.838 45.557 C 309.478 44.606,305.670 41.102,304.616 40.751 C 303.503 40.380,302.939 38.787,303.812 38.482 C 304.317 38.307,304.495 37.953,304.179 37.758 C 304.094 37.705,303.939 37.382,303.834 37.039 C 303.644 36.416,302.939 34.803,302.651 34.333 C 302.567 34.196,302.406 33.896,302.295 33.667 C 301.853 32.758,300.168 30.846,299.786 30.819 C 299.675 30.812,298.735 30.817,297.699 30.832 C 295.352 30.865,294.587 30.461,295.932 29.900 L 296.530 29.650 296.074 29.227 C 295.474 28.671,294.638 28.538,294.072 28.908 C 292.580 29.887,291.207 29.642,291.417 28.436 C 291.565 27.584,291.360 27.451,290.013 27.528 C 288.633 27.606,288.178 27.981,287.836 29.320 C 287.652 30.040,286.916 31.257,286.583 31.390 C 286.200 31.543,285.648 31.180,285.803 30.878 C 285.886 30.716,286.003 30.150,286.062 29.621 C 286.191 28.476,286.040 28.349,284.961 28.693 C 284.205 28.934,283.074 28.702,282.139 28.115 C 281.925 27.981,281.356 27.780,280.874 27.669 C 280.393 27.557,279.957 27.399,279.906 27.317 C 279.785 27.121,279.500 27.123,279.500 27.319 M275.167 32.855 C 276.573 33.106,276.650 33.147,276.996 33.826 C 277.194 34.214,277.479 34.500,277.729 34.563 C 278.202 34.682,279.015 35.646,279.380 36.521 C 279.707 37.303,279.792 37.347,281.329 37.519 C 282.041 37.599,282.952 37.813,283.354 37.995 C 284.308 38.428,285.101 38.419,285.919 37.966 C 286.471 37.661,286.915 37.587,288.543 37.532 L 290.502 37.465 290.591 37.024 C 290.784 36.056,291.545 34.817,292.150 34.485 C 292.480 34.304,293.125 33.924,293.583 33.641 C 294.671 32.968,295.423 32.870,296.263 33.292 C 296.622 33.472,297.310 33.664,297.791 33.718 C 299.133 33.870,300.381 35.115,300.916 36.833 C 300.988 37.063,301.191 37.436,301.368 37.663 C 302.446 39.042,300.689 42.895,298.484 43.988 C 297.917 44.268,297.880 44.444,297.774 47.294 C 297.705 49.147,297.726 49.353,298.002 49.501 C 298.689 49.869,298.394 52.004,297.507 53.083 C 297.044 53.647,296.334 54.759,296.330 54.926 C 296.325 55.188,295.346 56.553,294.811 57.043 C 293.938 57.843,294.175 58.055,296.191 58.277 C 297.165 58.384,298.176 58.581,298.439 58.716 C 298.702 58.850,299.179 59.014,299.500 59.081 C 299.821 59.148,300.317 59.345,300.603 59.518 C 300.889 59.691,301.230 59.833,301.362 59.833 C 302.575 59.833,303.685 61.673,302.805 62.224 C 302.534 62.393,302.384 62.352,301.500 61.865 C 300.416 61.267,299.453 60.833,299.208 60.832 C 299.048 60.832,298.692 60.710,298.417 60.561 C 298.142 60.413,297.204 60.155,296.333 59.987 C 295.462 59.820,294.587 59.635,294.388 59.575 C 293.443 59.295,293.363 60.999,294.301 61.403 C 294.640 61.549,295.029 61.741,295.167 61.830 C 295.304 61.919,295.679 62.109,296.000 62.252 C 296.321 62.395,296.883 62.694,297.250 62.916 C 297.617 63.138,298.142 63.446,298.417 63.601 C 299.848 64.404,301.118 65.652,301.256 66.391 C 301.548 67.946,300.841 67.875,298.917 66.155 C 298.092 65.418,297.248 64.746,297.042 64.661 C 296.835 64.577,296.667 64.440,296.667 64.358 C 296.667 64.275,296.423 64.111,296.125 63.993 C 295.827 63.875,295.465 63.679,295.321 63.557 C 295.063 63.339,293.606 62.839,293.218 62.835 C 293.109 62.834,292.674 63.133,292.250 63.500 C 291.362 64.269,291.130 64.304,290.341 63.791 C 289.289 63.107,288.091 62.495,287.475 62.328 C 286.173 61.974,285.373 61.515,285.258 61.055 C 285.196 60.810,285.001 60.425,284.823 60.199 C 284.645 59.973,284.500 59.710,284.500 59.615 C 284.500 59.279,287.355 56.667,287.724 56.666 C 288.292 56.664,288.679 55.848,288.413 55.214 C 288.190 54.683,287.861 54.594,284.789 54.233 C 283.105 54.035,280.566 54.703,280.470 55.368 C 280.391 55.917,281.082 56.556,281.483 56.305 C 281.948 56.015,282.302 56.249,282.430 56.930 C 282.503 57.320,282.771 57.765,283.163 58.147 C 284.594 59.543,284.459 61.658,282.938 61.674 C 282.560 61.678,281.950 61.796,281.583 61.935 C 281.217 62.075,280.628 62.261,280.275 62.349 C 279.922 62.437,279.360 62.648,279.025 62.818 C 276.975 63.858,276.900 63.858,275.814 62.815 C 274.933 61.969,274.389 62.030,272.667 63.170 C 272.254 63.442,271.692 63.782,271.417 63.923 C 270.949 64.165,269.973 64.809,269.573 65.141 C 269.475 65.222,269.213 65.384,268.990 65.502 C 268.766 65.619,268.523 65.817,268.450 65.941 C 268.283 66.225,267.397 66.237,267.223 65.958 C 266.891 65.425,267.941 63.667,268.591 63.667 C 268.696 63.667,268.914 63.521,269.075 63.343 C 269.236 63.165,269.580 62.972,269.839 62.915 C 270.098 62.858,270.396 62.708,270.502 62.581 C 270.607 62.454,270.969 62.262,271.305 62.154 C 271.641 62.046,272.029 61.865,272.167 61.753 C 272.304 61.640,272.647 61.470,272.930 61.376 C 274.186 60.955,274.870 59.504,273.923 59.267 C 273.214 59.088,270.624 59.356,269.854 59.687 C 269.453 59.859,269.033 60.000,268.921 60.000 C 268.809 60.000,268.222 60.263,267.618 60.583 C 266.312 61.276,265.893 61.314,265.641 60.761 C 265.374 60.174,265.906 59.313,266.676 59.087 C 266.994 58.993,267.438 58.785,267.664 58.625 C 267.890 58.465,268.249 58.333,268.463 58.333 C 268.677 58.333,269.204 58.171,269.634 57.973 C 270.240 57.693,270.867 57.590,272.417 57.514 L 274.417 57.417 274.401 56.687 C 274.390 56.176,274.286 55.876,274.056 55.687 C 273.574 55.291,272.167 53.575,272.167 53.383 C 272.167 53.292,272.020 53.086,271.841 52.924 C 271.265 52.403,271.059 50.981,271.446 50.199 C 271.674 49.738,271.730 49.426,271.633 49.164 C 271.460 48.697,271.408 45.264,271.564 44.575 C 271.692 44.008,271.529 43.793,270.135 42.696 C 269.394 42.112,268.343 40.779,268.336 40.414 C 268.335 40.321,268.179 39.957,267.990 39.605 C 267.528 38.742,267.411 37.538,267.738 37.000 C 267.877 36.771,268.101 36.352,268.236 36.070 C 268.371 35.788,268.598 35.460,268.740 35.341 C 268.883 35.223,269.000 35.036,269.000 34.925 C 269.000 34.624,269.658 34.083,270.500 33.691 C 270.912 33.499,271.362 33.271,271.500 33.185 C 272.239 32.721,273.435 32.389,273.833 32.537 C 274.063 32.622,274.662 32.765,275.167 32.855 M272.500 35.083 C 272.386 35.221,272.203 35.333,272.094 35.333 C 271.504 35.333,270.163 37.738,270.169 38.787 C 270.178 40.293,272.902 41.110,274.426 40.063 C 274.943 39.707,275.568 39.304,275.814 39.167 C 276.489 38.790,277.333 38.122,277.333 37.965 C 277.333 37.621,276.444 36.533,275.956 36.281 C 275.659 36.127,275.304 35.934,275.167 35.851 C 273.692 34.961,272.812 34.708,272.500 35.083 M294.915 35.488 C 294.548 35.652,294.145 35.909,294.020 36.059 C 293.895 36.210,293.697 36.333,293.580 36.333 C 293.461 36.333,293.275 36.715,293.160 37.196 L 292.953 38.059 293.548 38.571 C 293.875 38.853,294.411 39.308,294.737 39.583 C 295.064 39.858,295.649 40.515,296.038 41.043 C 296.984 42.329,298.229 42.489,298.934 41.414 C 299.649 40.323,298.666 36.333,297.682 36.333 C 297.617 36.333,297.410 36.191,297.224 36.018 C 296.341 35.195,295.834 35.079,294.915 35.488 M346.118 41.272 C 347.625 42.261,347.193 42.516,344.134 42.441 C 341.740 42.383,341.160 42.178,341.835 41.632 C 342.038 41.468,342.336 41.333,342.498 41.333 C 342.660 41.333,342.886 41.221,343.001 41.083 C 343.596 40.365,344.852 40.441,346.118 41.272 M281.443 41.243 C 281.274 41.371,280.839 41.526,280.477 41.587 C 279.407 41.768,278.661 42.712,279.434 42.906 C 279.953 43.036,281.333 42.854,281.333 42.655 C 281.333 42.578,281.521 42.239,281.750 41.901 C 282.352 41.013,282.194 40.674,281.443 41.243 M288.040 41.631 C 288.247 41.979,288.501 42.410,288.605 42.590 C 288.750 42.843,288.966 42.914,289.559 42.906 C 290.329 42.896,290.779 42.690,290.359 42.541 C 290.235 42.497,289.764 42.133,289.312 41.731 C 288.810 41.285,288.328 41.000,288.076 41.000 L 287.662 41.000 288.040 41.631 M266.799 43.290 C 266.854 44.423,266.546 44.833,265.639 44.833 C 264.773 44.833,264.926 43.372,265.877 42.572 C 266.571 41.988,266.742 42.122,266.799 43.290 M352.509 43.172 C 352.686 43.266,352.955 43.585,353.107 43.880 C 353.260 44.175,353.481 44.492,353.599 44.583 C 353.905 44.821,354.522 46.545,354.359 46.708 C 353.730 47.336,350.171 44.616,350.498 43.756 C 350.748 43.099,351.801 42.793,352.509 43.172 M274.670 45.579 C 274.503 45.781,274.536 45.857,274.858 46.004 C 275.074 46.102,275.418 46.440,275.624 46.754 C 276.106 47.490,277.209 48.078,277.658 47.838 C 278.929 47.158,279.378 47.726,279.307 49.923 L 279.250 51.691 278.560 52.334 C 278.181 52.688,277.566 53.059,277.192 53.160 C 276.393 53.375,276.358 53.420,276.242 54.361 C 276.065 55.788,277.255 55.745,278.496 54.278 C 278.819 53.896,279.263 53.400,279.483 53.176 C 279.758 52.896,279.952 52.402,280.105 51.593 C 280.227 50.946,280.400 50.079,280.490 49.667 C 280.681 48.783,280.716 46.164,280.539 45.900 C 280.131 45.289,275.138 45.016,274.670 45.579 M289.367 45.506 C 289.156 45.592,288.717 45.865,288.391 46.114 L 287.798 46.566 287.918 49.241 C 288.043 52.035,288.172 52.553,288.825 52.886 C 289.039 52.994,289.523 53.526,289.901 54.068 C 290.398 54.778,290.757 55.110,291.195 55.262 C 291.529 55.377,291.993 55.597,292.227 55.750 C 292.735 56.083,292.939 55.989,293.077 55.360 C 293.254 54.554,292.949 54.061,292.197 53.941 C 291.707 53.863,291.410 53.680,291.059 53.240 C 290.469 52.502,289.815 51.828,289.371 51.500 C 288.801 51.079,288.703 48.064,289.256 47.958 C 289.472 47.917,289.725 47.958,289.817 48.051 C 290.390 48.623,292.630 47.947,293.020 47.083 C 293.103 46.900,293.315 46.512,293.492 46.221 L 293.813 45.691 292.698 45.592 C 290.194 45.370,289.733 45.358,289.367 45.506 M266.366 48.750 C 266.338 48.933,266.253 49.729,266.177 50.517 C 266.100 51.306,265.962 52.093,265.869 52.267 C 265.776 52.441,265.647 52.936,265.582 53.367 C 265.334 55.019,264.917 55.035,264.332 53.417 C 263.682 51.616,263.943 49.907,265.054 48.700 C 265.515 48.199,266.444 48.234,266.366 48.750 M303.275 50.894 C 303.541 51.581,303.606 51.973,303.508 52.299 C 303.433 52.547,303.285 53.068,303.179 53.457 C 302.878 54.567,301.019 55.116,301.111 54.068 C 301.307 51.850,301.743 50.262,302.218 50.033 C 302.766 49.769,302.873 49.856,303.275 50.894 M306.244 59.322 C 306.400 59.623,306.666 59.825,306.995 59.891 C 307.346 59.961,307.560 60.135,307.685 60.455 C 307.784 60.709,308.016 61.218,308.200 61.586 C 308.688 62.565,308.567 63.071,307.830 63.133 C 306.726 63.226,305.333 61.561,305.333 60.148 C 305.333 58.717,305.740 58.348,306.244 59.322 M290.353 59.484 C 290.183 59.592,290.259 59.660,290.640 59.744 C 291.195 59.866,291.566 59.742,291.410 59.488 C 291.289 59.294,290.658 59.291,290.353 59.484 M286.536 63.391 C 286.877 63.543,287.360 63.667,287.609 63.667 C 287.858 63.667,288.366 63.811,288.739 63.987 C 289.112 64.164,289.698 64.422,290.042 64.562 C 290.664 64.815,290.952 65.637,290.513 65.908 C 290.429 65.960,290.281 66.373,290.184 66.824 C 290.024 67.569,289.097 69.167,288.824 69.167 C 288.763 69.167,288.429 68.942,288.083 68.667 C 287.216 67.977,287.000 68.166,287.000 69.612 C 287.000 70.967,284.481 71.340,284.104 70.041 C 284.058 69.881,283.937 69.431,283.837 69.042 C 283.611 68.169,283.442 68.147,283.198 68.958 C 282.870 70.046,282.075 70.854,281.536 70.649 C 280.446 70.234,280.000 69.707,280.000 68.835 C 280.000 67.921,279.789 67.671,279.351 68.067 C 278.505 68.833,277.532 67.385,277.507 65.323 C 277.497 64.517,278.161 63.892,279.257 63.673 C 279.711 63.582,280.383 63.392,280.750 63.252 C 281.675 62.897,285.638 62.992,286.536 63.391 M338.103 66.646 C 338.640 67.072,339.172 67.334,339.667 67.415 C 340.556 67.561,340.755 67.701,341.100 68.427 C 341.409 69.080,341.352 69.775,340.996 69.694 C 340.861 69.662,340.188 69.488,339.500 69.305 C 338.813 69.123,338.078 68.933,337.868 68.883 C 337.657 68.833,336.964 68.956,336.326 69.157 C 334.361 69.778,333.644 68.827,334.921 67.291 C 336.066 65.914,336.955 65.734,338.103 66.646 M308.819 67.257 C 309.474 67.849,309.937 68.749,309.671 68.914 C 309.593 68.962,309.497 68.908,309.459 68.793 C 309.412 68.654,308.911 68.565,307.951 68.525 C 306.343 68.459,306.115 68.322,306.197 67.470 C 306.241 67.009,306.332 66.901,306.750 66.812 C 307.823 66.585,308.154 66.656,308.819 67.257 M270.681 70.208 C 270.880 70.415,271.239 70.886,271.480 71.256 C 271.720 71.626,272.009 72.038,272.122 72.172 C 274.911 75.480,273.812 76.958,270.821 73.922 C 269.585 72.668,268.738 70.484,269.278 69.944 C 269.523 69.699,270.338 69.852,270.681 70.208 M304.771 70.484 C 306.198 71.671,305.946 72.333,304.065 72.333 C 302.467 72.333,301.910 71.438,302.875 70.420 C 303.502 69.760,303.917 69.774,304.771 70.484 M297.663 70.458 C 298.504 70.923,298.833 71.436,298.833 72.281 C 298.833 72.740,299.242 73.457,299.739 73.868 C 300.572 74.557,299.301 75.010,298.333 74.369 C 298.104 74.217,297.695 73.978,297.424 73.838 C 297.054 73.647,296.885 73.396,296.744 72.832 C 296.640 72.419,296.468 71.918,296.361 71.718 C 296.151 71.326,296.097 70.292,296.278 70.111 C 296.480 69.909,296.824 69.995,297.663 70.458 M275.632 70.976 C 275.880 71.146,276.290 71.411,276.542 71.563 C 277.288 72.016,277.076 73.927,276.237 74.309 C 275.695 74.556,275.572 74.475,275.321 73.706 C 275.209 73.364,274.979 72.822,274.809 72.502 C 274.118 71.204,274.616 70.280,275.632 70.976 M339.853 71.317 C 341.774 72.229,341.559 73.568,339.519 73.398 C 338.165 73.285,336.659 73.656,335.978 74.271 C 335.569 74.639,334.833 74.405,334.833 73.906 C 334.833 72.890,335.712 71.844,337.150 71.148 C 338.151 70.664,338.525 70.687,339.853 71.317 M294.805 73.071 C 295.018 73.514,295.296 74.373,295.421 74.980 C 295.617 75.931,295.742 76.164,296.324 76.671 C 297.166 77.403,297.253 78.078,296.542 78.351 C 294.673 79.068,293.029 76.563,293.576 73.833 C 293.968 71.880,294.170 71.755,294.805 73.071 M314.172 73.086 C 314.962 73.495,315.262 74.236,314.734 74.477 C 313.650 74.971,312.151 74.572,311.663 73.660 C 311.302 72.986,313.157 72.561,314.172 73.086 M267.406 74.663 C 268.146 74.944,267.971 75.540,266.816 76.671 C 265.616 77.844,265.635 77.840,265.172 77.054 C 264.329 75.627,265.800 74.052,267.406 74.663 M342.208 74.985 C 342.725 75.440,342.812 75.461,343.566 75.320 C 344.771 75.095,346.330 75.971,346.334 76.875 C 346.335 76.990,346.447 77.297,346.583 77.559 C 346.993 78.345,346.270 78.628,345.222 78.092 C 343.215 77.065,339.351 76.648,338.549 77.371 C 338.384 77.519,338.030 77.696,337.761 77.763 C 337.492 77.830,337.013 78.061,336.696 78.276 C 335.982 78.761,335.568 78.772,335.322 78.312 C 334.539 76.849,336.005 75.314,338.377 75.113 C 339.053 75.056,339.863 74.898,340.178 74.761 C 341.050 74.383,341.589 74.442,342.208 74.985 M280.545 75.000 C 281.351 75.634,281.859 78.206,281.227 78.449 C 280.668 78.663,278.833 76.304,278.833 75.372 C 278.833 74.637,279.813 74.424,280.545 75.000 M290.927 75.952 C 291.040 76.483,291.250 77.188,291.393 77.519 C 291.957 78.829,290.555 78.992,289.257 77.767 C 288.387 76.947,288.649 75.799,289.885 75.017 C 290.540 74.602,290.662 74.712,290.927 75.952 M309.474 75.510 C 310.351 76.188,311.422 76.827,311.688 76.830 C 311.837 76.832,312.056 76.950,312.174 77.092 C 312.935 78.009,309.737 78.246,308.057 77.396 C 306.765 76.742,306.667 76.573,307.261 76.019 C 308.262 75.085,308.773 74.967,309.474 75.510 M325.542 75.811 C 325.885 76.025,326.167 76.258,326.167 76.329 C 326.167 76.399,326.591 76.711,327.109 77.020 C 328.813 78.038,329.451 78.906,329.257 79.940 C 329.129 80.619,328.774 80.815,328.356 80.437 C 328.191 80.288,327.991 80.167,327.911 80.167 C 327.755 80.167,326.137 78.491,325.583 77.755 C 325.400 77.512,325.081 77.154,324.875 76.960 C 324.669 76.765,324.500 76.505,324.500 76.381 C 324.500 76.258,324.387 76.113,324.250 76.060 C 323.872 75.915,323.951 75.533,324.375 75.452 C 324.846 75.363,324.798 75.348,325.542 75.811 M286.500 76.061 C 286.500 78.371,285.128 80.098,284.332 78.792 C 283.760 77.855,283.882 77.304,284.851 76.432 C 285.820 75.561,286.500 75.408,286.500 76.061 M304.030 78.403 C 304.334 78.716,305.053 79.456,305.628 80.047 C 306.576 81.023,306.647 81.142,306.393 81.352 C 305.956 81.714,304.448 81.614,303.905 81.187 C 303.657 80.992,303.379 80.833,303.286 80.833 C 302.931 80.833,301.403 79.676,301.122 79.194 C 300.779 78.606,300.805 78.580,302.148 78.158 C 303.416 77.759,303.402 77.757,304.030 78.403 M271.015 78.597 C 271.582 79.110,270.597 81.304,269.425 82.141 C 268.513 82.791,268.109 81.707,268.782 80.417 C 268.878 80.233,269.006 79.804,269.068 79.463 C 269.248 78.464,270.334 77.981,271.015 78.597 M317.667 78.458 C 317.667 78.527,317.854 78.801,318.084 79.068 C 318.943 80.067,318.647 81.500,317.581 81.500 C 316.731 81.500,316.129 79.671,316.656 78.687 C 316.834 78.354,317.666 78.166,317.667 78.458 M322.819 79.013 C 323.475 79.153,323.728 79.306,323.994 79.721 C 324.540 80.573,325.052 81.079,325.601 81.306 C 325.886 81.424,326.233 81.756,326.379 82.051 C 326.524 82.344,326.792 82.894,326.974 83.273 C 327.157 83.653,327.384 84.011,327.479 84.070 C 327.587 84.137,327.472 84.483,327.173 84.988 C 326.654 85.870,326.713 86.152,327.565 86.850 C 328.003 87.208,327.994 91.314,327.553 91.986 C 327.198 92.527,326.921 92.172,326.762 90.971 C 326.699 90.500,326.549 89.920,326.428 89.682 C 326.306 89.445,326.123 88.854,326.021 88.370 C 325.919 87.886,325.731 87.324,325.604 87.120 C 325.478 86.917,325.327 86.495,325.269 86.183 C 325.066 85.080,322.700 80.565,322.076 80.089 C 321.696 79.799,321.500 79.511,321.500 79.242 C 321.500 78.777,321.623 78.756,322.819 79.013 M341.807 80.152 C 342.634 80.437,342.735 80.440,343.224 80.192 C 344.722 79.430,346.401 80.302,347.190 82.251 C 347.786 83.722,347.653 83.931,346.145 83.887 C 344.949 83.852,343.952 83.272,343.587 82.400 C 343.218 81.517,342.374 81.320,341.646 81.947 C 341.497 82.075,341.122 82.164,340.813 82.143 C 340.136 82.099,339.560 82.381,339.419 82.825 C 339.160 83.643,336.715 84.244,336.194 83.617 C 335.891 83.251,335.783 82.074,335.994 81.434 C 336.207 80.789,336.293 80.750,337.815 80.599 C 338.308 80.550,338.833 80.405,338.981 80.277 C 339.585 79.753,340.531 79.711,341.807 80.152 M299.531 81.303 C 299.685 81.366,299.987 81.679,300.201 82.000 C 300.415 82.321,300.845 82.711,301.157 82.868 C 301.842 83.212,302.096 83.465,302.241 83.950 C 302.552 84.989,298.885 84.683,297.470 83.551 C 297.349 83.454,297.008 83.252,296.711 83.101 C 296.046 82.764,295.519 81.863,295.859 81.647 C 296.369 81.324,298.977 81.080,299.531 81.303 M274.605 81.748 C 274.658 81.884,274.549 82.390,274.365 82.873 C 274.180 83.355,273.966 84.046,273.889 84.408 C 273.703 85.291,273.018 85.686,271.487 85.796 L 270.333 85.878 270.333 85.348 C 270.333 84.945,270.443 84.754,270.792 84.552 C 271.253 84.285,272.503 82.851,273.039 81.973 C 273.369 81.434,274.427 81.282,274.605 81.748 M320.922 82.724 C 320.984 83.105,321.196 83.591,321.393 83.805 C 322.185 84.666,321.766 86.333,320.758 86.333 C 319.614 86.333,318.572 83.299,319.375 82.306 C 320.195 81.293,320.712 81.432,320.922 82.724 M291.712 82.622 C 293.099 83.372,294.768 85.489,294.307 85.914 C 294.039 86.161,292.495 86.667,292.007 86.667 C 291.604 86.667,289.731 84.859,289.101 83.861 C 288.870 83.495,288.602 83.146,288.507 83.088 C 288.249 82.928,288.297 82.370,288.583 82.210 C 288.988 81.983,291.028 82.252,291.712 82.622 M280.801 82.604 C 280.853 82.972,280.346 83.855,279.546 84.792 C 278.830 85.630,275.768 86.403,275.417 85.834 C 275.248 85.561,275.722 84.768,276.186 84.545 C 276.424 84.431,277.133 83.846,277.761 83.245 L 278.904 82.152 279.827 82.201 C 280.623 82.243,280.757 82.299,280.801 82.604 M285.217 84.458 C 285.265 84.710,285.214 85.029,285.102 85.167 C 284.990 85.304,284.810 85.623,284.702 85.875 C 284.595 86.127,284.448 86.333,284.375 86.333 C 284.302 86.333,284.111 86.578,283.949 86.878 C 283.580 87.563,282.290 88.432,281.417 88.582 C 281.050 88.645,280.660 88.771,280.549 88.863 C 279.862 89.430,279.991 88.374,280.724 87.436 C 281.560 86.366,281.967 85.778,282.252 85.224 C 282.792 84.176,285.049 83.593,285.217 84.458 M343.281 84.930 C 343.574 85.063,343.860 85.321,343.917 85.502 C 343.975 85.683,344.113 85.926,344.225 86.041 C 345.276 87.125,345.664 89.025,344.858 89.139 C 344.197 89.232,343.071 88.517,342.756 87.802 C 342.572 87.385,342.332 87.131,342.058 87.062 C 341.455 86.911,339.343 87.090,339.121 87.312 C 338.554 87.879,337.860 87.493,337.407 86.358 C 337.065 85.504,337.058 85.511,338.662 85.014 C 340.476 84.452,342.169 84.421,343.281 84.930 M330.612 85.379 C 331.134 85.914,331.500 87.308,331.288 87.956 C 331.051 88.681,330.257 88.960,330.062 88.386 C 330.005 88.220,329.743 87.627,329.479 87.070 C 328.672 85.363,329.455 84.193,330.612 85.379 M319.201 88.500 C 319.228 88.729,319.206 89.232,319.153 89.618 C 319.068 90.228,319.117 90.387,319.527 90.836 C 320.237 91.613,320.311 91.837,320.163 92.750 C 319.979 93.884,319.894 94.059,319.324 94.480 L 318.831 94.845 318.686 94.464 C 318.605 94.255,318.343 93.576,318.103 92.955 C 317.863 92.334,317.667 91.641,317.667 91.415 C 317.667 91.177,317.521 90.914,317.321 90.793 C 316.945 90.565,316.476 89.616,316.576 89.288 C 316.611 89.175,316.684 88.875,316.740 88.621 C 316.796 88.366,317.119 87.852,317.457 87.477 L 318.072 86.796 318.612 87.439 C 318.909 87.793,319.174 88.270,319.201 88.500 M324.165 87.829 C 324.430 87.996,324.625 89.748,324.652 92.212 C 324.666 93.429,324.692 93.519,325.087 93.699 C 325.943 94.089,325.831 95.398,324.848 96.484 C 324.076 97.336,323.833 97.148,323.833 95.698 C 323.833 94.824,323.688 94.611,322.977 94.441 C 322.383 94.300,322.277 93.993,322.246 92.333 C 322.230 91.453,322.118 90.679,321.951 90.289 C 321.682 89.662,322.021 88.576,322.555 88.355 C 322.637 88.321,322.825 88.152,322.973 87.980 C 323.262 87.642,323.768 87.578,324.165 87.829 M340.384 89.011 C 340.733 89.108,341.060 89.295,341.110 89.427 C 341.161 89.559,341.282 89.667,341.380 89.667 C 341.477 89.667,342.013 89.882,342.570 90.146 C 343.127 90.410,343.704 90.666,343.851 90.715 C 344.287 90.861,344.500 92.874,344.171 93.739 C 343.809 94.690,343.262 94.307,342.232 92.384 C 341.594 91.193,339.678 91.061,338.465 92.124 C 337.645 92.842,337.322 91.086,338.042 89.826 C 338.563 88.914,339.216 88.687,340.384 89.011 M270.818 89.808 C 271.314 90.143,271.883 90.529,272.083 90.667 C 272.283 90.804,272.719 91.104,273.053 91.333 C 273.395 91.568,273.770 92.023,273.912 92.375 C 274.090 92.817,274.266 93.000,274.511 93.000 C 275.271 93.000,275.887 93.922,275.761 94.870 C 275.545 96.497,275.095 96.762,274.470 95.629 C 274.184 95.111,273.795 94.759,272.999 94.301 C 271.919 93.679,270.919 92.724,270.666 92.073 C 270.489 91.618,267.872 91.238,266.587 91.481 C 265.046 91.772,264.813 91.322,265.839 90.033 C 266.611 89.063,266.774 89.009,268.583 89.119 C 269.774 89.191,270.013 89.265,270.818 89.808 M290.935 90.345 C 291.338 90.594,291.545 90.883,291.680 91.387 C 291.782 91.770,291.942 92.176,292.035 92.290 C 292.575 92.948,291.311 93.269,290.545 92.667 C 290.312 92.483,290.031 92.333,289.920 92.333 C 289.283 92.333,288.861 90.820,289.337 90.245 C 289.624 89.900,290.281 89.941,290.935 90.345 M303.187 90.344 C 303.369 90.442,303.957 90.592,304.494 90.679 C 306.161 90.947,307.395 91.902,308.068 93.444 C 308.638 94.750,307.481 94.963,305.975 93.828 C 305.137 93.196,305.033 93.162,304.250 93.255 C 303.647 93.328,303.110 93.259,302.305 93.008 L 301.193 92.662 300.194 93.247 C 299.177 93.843,298.763 93.942,298.357 93.685 C 297.716 93.279,299.094 91.500,300.050 91.500 C 300.272 91.500,300.726 91.315,301.058 91.090 C 302.409 90.173,302.686 90.076,303.187 90.344 M284.779 91.602 C 285.646 91.834,285.839 93.567,285.023 93.789 C 284.185 94.017,283.028 93.911,282.653 93.571 C 282.071 93.046,281.563 91.834,281.849 91.653 C 282.110 91.488,284.216 91.451,284.779 91.602 M266.822 93.323 C 267.026 93.501,267.405 93.693,267.663 93.749 C 267.921 93.806,268.264 93.998,268.425 94.176 C 268.586 94.354,268.800 94.500,268.901 94.500 C 269.001 94.500,269.400 94.790,269.787 95.143 C 270.524 95.817,270.857 96.074,271.852 96.739 C 272.236 96.996,272.488 97.317,272.551 97.630 C 272.616 97.957,272.803 98.184,273.116 98.316 C 274.985 99.102,274.939 102.320,273.059 102.330 C 272.428 102.334,272.359 102.189,272.221 100.553 C 272.114 99.284,271.607 98.500,270.894 98.500 C 270.317 98.500,268.578 97.536,267.500 96.619 C 266.197 95.510,264.977 95.238,263.626 95.757 C 262.836 96.060,263.386 94.043,264.287 93.334 C 264.869 92.876,266.299 92.870,266.822 93.323 M340.046 94.248 C 342.179 94.656,342.982 95.260,343.312 96.703 C 343.842 99.016,342.229 100.405,341.386 98.362 C 340.762 96.847,339.774 96.215,338.706 96.646 C 337.245 97.235,336.506 96.713,336.787 95.291 C 337.023 94.094,337.853 93.828,340.046 94.248 M304.683 95.252 C 307.063 95.422,309.000 96.796,309.000 98.315 C 309.000 99.200,307.737 98.978,306.349 97.848 C 305.550 97.197,303.919 97.048,301.484 97.405 C 300.720 97.517,300.472 97.489,300.110 97.252 C 299.661 96.958,298.646 97.007,298.240 97.342 C 298.144 97.422,297.628 97.601,297.096 97.740 C 296.563 97.879,296.030 98.073,295.912 98.171 C 295.533 98.485,295.521 98.110,295.875 97.031 C 296.494 95.144,298.235 94.793,304.683 95.252 M313.013 96.114 L 313.917 97.228 313.972 99.999 C 314.021 102.443,313.994 102.798,313.744 103.005 C 313.445 103.253,313.490 103.288,312.590 102.102 C 312.446 101.913,312.388 101.601,312.444 101.321 C 312.580 100.641,312.179 98.031,311.814 97.217 C 310.869 95.113,311.631 94.411,313.013 96.114 M349.564 96.406 C 350.002 96.980,350.193 98.802,349.896 99.576 C 349.622 100.292,348.333 100.378,348.333 99.680 C 348.333 99.609,348.183 99.378,348.000 99.167 C 347.657 98.771,347.543 97.763,347.821 97.591 C 347.906 97.538,348.066 97.215,348.176 96.873 C 348.566 95.661,348.908 95.546,349.564 96.406 M264.932 98.045 C 267.801 99.565,267.755 99.525,267.879 100.623 C 267.982 101.539,268.607 102.167,269.416 102.167 C 270.777 102.167,271.518 104.606,270.647 106.222 L 270.393 106.695 269.865 106.094 C 269.575 105.764,269.291 105.289,269.233 105.039 C 268.868 103.455,268.027 102.210,267.002 101.737 C 266.451 101.483,266.000 101.219,266.000 101.151 C 266.000 101.082,265.756 100.974,265.458 100.910 C 265.160 100.845,264.617 100.622,264.250 100.412 C 263.883 100.203,263.246 99.979,262.833 99.914 C 261.626 99.724,261.377 99.290,261.947 98.369 C 262.599 97.315,263.391 97.229,264.932 98.045 M337.359 98.286 C 337.974 98.568,338.158 98.749,338.249 99.161 C 338.369 99.707,339.229 100.384,340.073 100.596 C 340.573 100.721,341.000 101.253,341.000 101.750 C 341.000 102.258,340.514 102.886,340.275 102.688 C 340.168 102.599,339.594 102.413,338.999 102.275 C 337.259 101.871,337.055 101.756,336.830 101.052 C 336.552 100.183,336.450 100.105,335.467 100.004 C 334.996 99.956,334.584 99.837,334.552 99.740 C 334.441 99.405,336.201 97.731,336.500 97.888 C 336.546 97.912,336.932 98.091,337.359 98.286 M305.595 99.485 C 305.953 99.677,306.359 99.836,306.498 99.839 C 306.636 99.841,307.125 100.028,307.583 100.254 C 308.042 100.479,308.502 100.664,308.606 100.665 C 308.904 100.668,310.000 101.967,310.000 102.319 C 310.000 102.494,310.337 102.958,310.750 103.351 C 311.615 104.176,311.610 104.152,311.155 105.156 C 310.402 106.815,310.353 106.818,309.580 105.276 C 309.069 104.255,308.868 104.010,308.440 103.888 C 308.107 103.792,307.800 103.527,307.585 103.151 C 306.885 101.923,306.594 101.641,305.992 101.612 L 305.417 101.583 305.472 102.500 C 305.508 103.112,305.619 103.486,305.805 103.626 C 306.679 104.283,307.167 104.748,307.167 104.925 C 307.167 105.036,307.279 105.219,307.417 105.333 C 307.980 105.801,307.747 107.419,307.059 107.826 C 306.292 108.278,306.155 108.149,305.970 106.802 C 305.803 105.576,305.182 104.500,304.642 104.500 C 304.094 104.500,303.309 103.933,302.639 103.053 C 301.443 101.483,301.444 101.483,299.743 101.677 C 297.565 101.925,297.060 101.634,297.674 100.486 C 298.359 99.206,303.794 98.520,305.595 99.485 M346.753 99.961 C 347.431 100.451,347.833 101.230,347.834 102.054 C 347.835 102.529,347.918 103.213,348.018 103.576 C 348.184 104.174,348.167 104.263,347.832 104.534 C 347.327 104.943,347.228 104.918,346.794 104.269 C 346.587 103.959,346.126 103.281,345.771 102.762 C 344.663 101.145,345.417 98.995,346.753 99.961 M254.505 102.176 C 254.606 102.365,254.643 102.730,254.586 102.987 C 254.500 103.379,254.596 103.573,255.174 104.174 C 256.274 105.319,256.376 106.010,255.632 107.271 C 255.230 107.953,254.936 107.981,254.546 107.375 C 253.822 106.252,253.385 106.126,252.823 106.875 C 252.373 107.476,252.232 110.066,252.614 110.737 C 252.899 111.240,252.558 111.937,251.765 112.472 C 250.457 113.355,250.074 112.887,249.904 110.199 C 249.771 108.097,249.688 107.951,248.616 107.930 L 247.917 107.917 247.969 110.093 C 248.018 112.088,247.994 112.303,247.680 112.676 L 247.338 113.083 246.669 112.381 L 246.000 111.680 246.000 109.346 C 246.000 107.294,246.037 106.977,246.309 106.715 C 246.478 106.551,246.685 106.295,246.767 106.147 C 246.849 105.999,247.169 105.593,247.477 105.245 L 248.038 104.611 248.623 104.926 C 248.945 105.100,249.286 105.412,249.381 105.621 C 249.706 106.334,250.346 106.045,250.571 105.083 C 250.784 104.172,252.354 102.055,252.896 101.948 C 253.823 101.766,254.324 101.837,254.505 102.176 M262.397 103.375 C 262.387 103.902,262.438 104.333,262.510 104.333 C 263.208 104.333,264.847 107.099,264.336 107.415 C 264.266 107.459,264.126 107.814,264.026 108.206 C 263.715 109.424,261.167 111.817,261.167 110.891 C 261.167 110.757,261.249 110.119,261.349 109.474 C 261.662 107.457,261.375 106.889,260.090 106.977 C 259.547 107.014,259.340 107.232,259.336 107.771 C 259.334 107.966,259.214 108.225,259.069 108.345 C 258.924 108.466,258.691 108.850,258.551 109.199 C 258.411 109.548,258.244 109.833,258.179 109.833 C 258.115 109.833,257.937 110.096,257.784 110.417 C 257.631 110.737,257.443 111.000,257.367 111.000 C 257.291 111.000,257.103 111.263,256.950 111.583 C 256.281 112.987,255.845 110.750,256.349 108.500 C 256.442 108.087,256.615 107.243,256.734 106.624 C 256.853 106.004,257.065 105.367,257.206 105.207 C 257.346 105.047,257.510 104.755,257.570 104.557 C 257.713 104.086,259.076 102.835,259.455 102.827 C 259.617 102.824,259.938 102.713,260.167 102.579 C 260.424 102.430,260.934 102.352,261.500 102.377 L 262.417 102.417 262.397 103.375 M300.627 103.792 C 300.972 104.135,301.443 104.501,301.673 104.605 C 303.402 105.379,303.922 107.958,302.319 107.804 C 301.725 107.747,301.746 107.781,301.344 106.230 C 301.182 105.604,301.111 105.536,300.540 105.460 C 299.968 105.383,298.333 104.454,298.333 104.206 C 298.333 103.253,299.817 102.985,300.627 103.792 M283.781 105.134 C 283.204 105.736,283.214 106.000,283.813 106.000 C 285.251 106.000,285.013 107.873,283.495 108.502 C 282.495 108.916,282.599 110.888,283.695 112.314 C 283.863 112.533,284.000 112.857,284.000 113.035 C 284.000 113.213,284.223 113.582,284.496 113.855 C 285.534 114.893,287.193 114.246,286.441 113.096 C 286.302 112.885,286.107 112.113,286.006 111.381 C 285.906 110.648,285.751 109.795,285.662 109.484 C 285.422 108.647,285.469 106.865,285.755 105.921 C 286.091 104.813,286.008 104.667,285.036 104.667 C 284.369 104.667,284.151 104.748,283.781 105.134 M326.708 105.610 C 326.393 105.737,326.458 106.235,326.855 106.739 C 327.264 107.259,327.420 107.162,327.549 106.305 C 327.656 105.593,327.359 105.348,326.708 105.610 M288.407 107.256 C 287.992 108.195,287.990 108.221,288.230 109.561 C 288.364 110.307,288.524 111.366,288.587 111.916 C 288.751 113.355,289.373 114.368,290.052 114.301 C 290.726 114.234,290.790 113.954,290.860 110.761 L 290.917 108.186 290.333 107.579 C 290.012 107.244,289.542 106.821,289.289 106.639 L 288.827 106.306 288.407 107.256 M294.085 107.586 C 293.700 107.822,293.372 108.174,293.305 108.422 C 293.121 109.113,293.080 113.980,293.257 114.153 C 293.562 114.449,294.299 114.159,294.415 113.697 C 294.475 113.457,294.707 112.876,294.929 112.406 C 295.151 111.936,295.333 111.467,295.333 111.364 C 295.333 111.261,295.483 110.890,295.666 110.539 C 296.835 108.295,295.869 106.490,294.085 107.586 M324.425 108.557 C 323.483 109.245,325.188 114.051,326.447 114.255 C 327.581 114.439,327.790 113.785,327.264 111.691 C 327.134 111.173,326.978 110.295,326.918 109.739 C 326.778 108.454,326.583 108.094,326.353 108.698 C 326.060 109.468,325.533 109.488,325.193 108.741 C 324.980 108.275,324.853 108.244,324.425 108.557 " stroke="none" fill="#f4712b" fill-rule="evenodd"></path></g></svg>