<svg id="svg" version="1.1" xmlns="http://www.w3.org/2000/svg" xmlns:xlink="http://www.w3.org/1999/xlink" width="400" height="125.44802867383513" viewBox="0, 0, 400,125.44802867383513"><g id="svgg"><path id="path0" d="M198.500 0.153 C 197.541 0.451,197.333 0.546,197.333 0.686 C 197.333 0.767,197.218 0.833,197.078 0.833 C 196.938 0.833,196.780 0.946,196.727 1.083 C 196.674 1.221,196.562 1.333,196.477 1.333 C 196.221 1.333,195.167 2.469,195.167 2.744 C 195.167 2.885,195.092 3.000,195.000 3.000 C 194.908 3.000,194.833 3.188,194.833 3.417 C 194.833 3.646,194.758 3.833,194.667 3.833 C 194.575 3.833,194.500 3.983,194.500 4.167 C 194.500 4.350,194.425 4.500,194.333 4.500 C 194.230 4.500,194.167 5.389,194.167 6.833 C 194.167 8.278,194.230 9.167,194.333 9.167 C 194.425 9.167,194.500 9.392,194.500 9.667 C 194.500 9.942,194.557 10.167,194.626 10.167 C 194.695 10.167,194.859 10.407,194.989 10.702 C 195.229 11.244,196.209 12.333,196.458 12.333 C 196.532 12.333,196.701 12.483,196.833 12.667 C 196.965 12.850,197.207 13.000,197.370 13.000 C 197.533 13.000,197.667 13.070,197.667 13.154 C 197.667 13.408,198.676 13.833,199.276 13.833 C 199.582 13.833,199.833 13.914,199.833 14.013 C 199.833 14.329,203.554 13.984,203.761 13.648 C 203.812 13.567,203.995 13.500,204.169 13.500 C 204.343 13.500,204.672 13.313,204.902 13.083 C 205.131 12.854,205.434 12.667,205.576 12.667 C 205.717 12.667,205.833 12.604,205.833 12.528 C 205.833 12.452,206.014 12.293,206.234 12.175 C 206.454 12.057,206.803 11.632,207.010 11.230 C 207.217 10.829,207.449 10.500,207.526 10.500 C 207.603 10.500,207.667 10.350,207.667 10.167 C 207.667 9.983,207.742 9.833,207.833 9.833 C 207.925 9.833,208.000 9.605,208.000 9.325 C 208.000 9.046,208.120 8.584,208.267 8.301 C 208.589 7.679,208.540 5.319,208.204 5.207 C 208.092 5.169,208.000 4.925,208.000 4.663 C 208.000 4.401,207.925 4.140,207.833 4.083 C 207.742 4.027,207.667 3.797,207.667 3.573 C 207.667 3.350,207.592 3.167,207.500 3.167 C 207.408 3.167,207.333 3.086,207.333 2.988 C 207.333 2.890,207.240 2.710,207.125 2.589 C 207.010 2.467,206.730 2.135,206.502 1.851 C 206.274 1.566,205.955 1.333,205.793 1.333 C 205.632 1.333,205.500 1.253,205.500 1.155 C 205.500 0.895,205.064 0.500,204.776 0.500 C 204.639 0.500,204.497 0.406,204.458 0.292 C 204.378 0.051,199.213 -0.069,198.500 0.153 M190.278 16.111 C 190.217 16.172,190.167 16.683,190.167 17.246 L 190.167 18.269 190.806 18.551 C 191.158 18.706,191.645 18.833,191.889 18.833 C 192.134 18.833,192.333 18.908,192.333 19.000 C 192.333 19.092,192.431 19.167,192.550 19.167 C 192.857 19.167,193.664 19.559,193.665 19.708 C 193.666 19.777,193.761 19.833,193.876 19.833 C 193.991 19.833,194.184 20.077,194.304 20.375 C 194.424 20.673,194.592 21.047,194.678 21.206 C 194.763 21.365,194.833 22.311,194.833 23.308 L 194.833 25.120 193.959 25.224 C 193.479 25.281,193.060 25.404,193.029 25.497 C 192.998 25.590,192.566 25.667,192.069 25.667 C 191.573 25.667,191.167 25.742,191.167 25.833 C 191.167 25.925,190.909 26.000,190.593 26.000 C 190.278 26.000,189.973 26.075,189.917 26.167 C 189.860 26.258,189.635 26.333,189.417 26.333 C 189.198 26.333,188.973 26.408,188.917 26.500 C 188.860 26.592,188.631 26.667,188.407 26.667 C 188.183 26.667,188.000 26.742,188.000 26.833 C 188.000 26.925,187.854 27.000,187.677 27.000 C 187.499 27.000,187.307 27.075,187.250 27.167 C 187.193 27.258,186.999 27.333,186.818 27.333 C 186.637 27.333,186.446 27.446,186.394 27.583 C 186.341 27.721,186.193 27.833,186.066 27.833 C 185.938 27.833,185.833 27.908,185.833 28.000 C 185.833 28.092,185.683 28.167,185.500 28.167 C 185.317 28.167,185.167 28.242,185.167 28.333 C 185.167 28.425,185.017 28.500,184.833 28.500 C 184.650 28.500,184.500 28.575,184.500 28.667 C 184.500 28.758,184.387 28.833,184.250 28.833 C 184.112 28.833,184.000 28.908,184.000 29.000 C 184.000 29.092,183.906 29.167,183.792 29.167 C 183.527 29.167,182.667 29.900,182.667 30.125 C 182.667 30.219,182.402 30.421,182.079 30.574 C 181.327 30.931,180.431 31.827,180.074 32.579 C 179.921 32.902,179.719 33.167,179.625 33.167 C 179.400 33.167,178.667 34.027,178.667 34.292 C 178.667 34.406,178.592 34.500,178.500 34.500 C 178.408 34.500,178.333 34.612,178.333 34.750 C 178.333 34.887,178.258 35.000,178.167 35.000 C 178.075 35.000,178.000 35.150,178.000 35.333 C 178.000 35.517,177.925 35.667,177.833 35.667 C 177.742 35.667,177.667 35.817,177.667 36.000 C 177.667 36.183,177.597 36.333,177.512 36.333 C 177.334 36.333,176.833 37.275,176.833 37.609 C 176.833 37.732,176.758 37.833,176.667 37.833 C 176.575 37.833,176.500 38.016,176.500 38.240 C 176.500 38.464,176.425 38.693,176.333 38.750 C 176.242 38.807,176.167 39.036,176.167 39.260 C 176.167 39.484,176.092 39.667,176.000 39.667 C 175.908 39.667,175.833 39.962,175.833 40.323 C 175.833 40.685,175.758 41.027,175.667 41.083 C 175.575 41.140,175.500 41.627,175.500 42.167 C 175.500 42.706,175.425 43.193,175.333 43.250 C 175.235 43.311,175.167 44.335,175.167 45.760 C 175.167 47.253,175.230 48.167,175.333 48.167 C 175.427 48.167,175.500 48.639,175.500 49.250 C 175.500 49.861,175.573 50.333,175.667 50.333 C 175.758 50.333,175.833 50.633,175.833 51.000 C 175.833 51.367,175.908 51.667,176.000 51.667 C 176.092 51.667,176.167 51.887,176.167 52.157 C 176.167 52.426,176.242 52.693,176.333 52.750 C 176.425 52.807,176.500 52.999,176.500 53.177 C 176.500 53.354,176.575 53.500,176.667 53.500 C 176.758 53.500,176.833 53.650,176.833 53.833 C 176.833 54.017,176.908 54.167,177.000 54.167 C 177.092 54.167,177.167 54.319,177.167 54.505 C 177.167 54.691,177.279 54.887,177.417 54.940 C 177.554 54.992,177.667 55.161,177.667 55.314 C 177.667 55.468,177.817 55.701,178.000 55.833 C 178.183 55.965,178.333 56.207,178.333 56.370 C 178.333 56.533,178.408 56.667,178.500 56.667 C 178.592 56.667,178.667 56.745,178.667 56.841 C 178.667 56.937,178.835 57.192,179.042 57.408 C 179.248 57.624,179.915 58.354,180.525 59.030 C 181.135 59.706,181.847 60.369,182.108 60.503 C 182.370 60.637,182.878 61.066,183.238 61.456 C 183.599 61.847,183.992 62.167,184.113 62.167 C 184.234 62.167,184.333 62.242,184.333 62.333 C 184.333 62.425,184.429 62.500,184.547 62.500 C 184.664 62.500,184.868 62.650,185.000 62.833 C 185.132 63.017,185.357 63.167,185.500 63.167 C 185.643 63.167,185.868 63.317,186.000 63.500 C 186.132 63.683,186.333 63.833,186.446 63.833 C 186.559 63.833,186.839 64.021,187.068 64.250 C 187.297 64.479,187.601 64.667,187.742 64.667 C 187.884 64.667,188.000 64.742,188.000 64.833 C 188.000 64.925,188.150 65.000,188.333 65.000 C 188.517 65.000,188.667 65.075,188.667 65.167 C 188.667 65.258,188.779 65.333,188.917 65.333 C 189.054 65.333,189.167 65.408,189.167 65.500 C 189.167 65.592,189.317 65.667,189.500 65.667 C 189.683 65.667,189.833 65.742,189.833 65.833 C 189.833 65.925,189.983 66.000,190.167 66.000 C 190.350 66.000,190.500 66.056,190.501 66.125 C 190.502 66.293,191.466 66.833,191.764 66.833 C 191.894 66.833,192.000 66.900,192.000 66.981 C 192.000 67.062,192.131 67.171,192.292 67.223 C 192.452 67.276,192.904 67.509,193.296 67.743 C 193.688 67.976,194.087 68.167,194.183 68.167 C 194.832 68.167,194.833 68.186,194.833 80.238 C 194.833 87.857,194.776 91.833,194.667 91.833 C 194.575 91.833,194.500 91.972,194.500 92.142 C 194.500 92.701,193.042 94.000,192.415 94.000 C 192.187 94.000,192.000 94.075,192.000 94.167 C 192.000 94.258,191.712 94.333,191.359 94.333 C 190.457 94.333,190.167 94.712,190.167 95.888 L 190.167 96.833 201.083 96.833 L 212.000 96.833 212.000 95.821 C 212.000 94.666,211.782 94.333,211.022 94.333 C 210.746 94.333,210.473 94.258,210.417 94.167 C 210.360 94.075,210.131 94.000,209.907 94.000 C 209.683 94.000,209.500 93.925,209.500 93.833 C 209.500 93.742,209.367 93.667,209.203 93.667 C 209.040 93.667,208.799 93.517,208.667 93.333 C 208.535 93.150,208.330 93.000,208.213 93.000 C 208.096 93.000,208.000 92.813,208.000 92.583 C 208.000 92.354,207.925 92.167,207.833 92.167 C 207.742 92.167,207.667 91.867,207.667 91.500 C 207.667 91.133,207.592 90.833,207.500 90.833 C 207.391 90.833,207.333 88.194,207.333 83.250 C 207.333 77.989,207.388 75.667,207.511 75.667 C 207.609 75.667,207.935 75.854,208.235 76.083 C 208.536 76.312,208.868 76.500,208.974 76.500 C 209.080 76.500,209.167 76.575,209.167 76.667 C 209.167 76.758,209.317 76.833,209.500 76.833 C 209.683 76.833,209.833 76.908,209.833 77.000 C 209.833 77.092,209.983 77.167,210.167 77.167 C 210.350 77.167,210.500 77.242,210.500 77.333 C 210.500 77.425,210.612 77.500,210.750 77.500 C 210.887 77.500,211.000 77.575,211.000 77.667 C 211.000 77.758,211.111 77.833,211.247 77.833 C 211.383 77.833,211.764 78.096,212.095 78.417 C 212.425 78.737,212.763 79.000,212.847 79.000 C 212.930 79.000,213.392 79.375,213.874 79.833 C 214.356 80.291,214.810 80.723,214.883 80.792 C 215.746 81.605,217.000 83.064,217.000 83.255 C 217.000 83.390,217.075 83.500,217.167 83.500 C 217.258 83.500,217.333 83.578,217.333 83.674 C 217.333 83.837,217.464 84.026,217.958 84.577 C 218.073 84.705,218.167 84.927,218.167 85.071 C 218.167 85.215,218.242 85.333,218.333 85.333 C 218.425 85.333,218.500 85.479,218.500 85.657 C 218.500 85.835,218.575 86.027,218.667 86.083 C 218.758 86.140,218.833 86.332,218.833 86.510 C 218.833 86.688,218.908 86.833,219.000 86.833 C 219.092 86.833,219.167 87.133,219.167 87.500 C 219.167 87.867,219.236 88.167,219.320 88.167 C 219.450 88.167,219.659 89.857,219.659 90.917 C 219.659 91.977,219.450 93.667,219.320 93.667 C 219.236 93.667,219.167 93.967,219.167 94.333 C 219.167 94.700,219.092 95.000,219.000 95.000 C 218.908 95.000,218.833 95.188,218.833 95.417 C 218.833 95.646,218.758 95.833,218.667 95.833 C 218.575 95.833,218.500 95.983,218.500 96.167 C 218.500 96.350,218.425 96.500,218.333 96.500 C 218.242 96.500,218.167 96.650,218.167 96.833 C 218.167 97.017,218.094 97.167,218.004 97.167 C 217.915 97.167,217.726 97.391,217.584 97.664 C 217.352 98.115,217.062 98.466,215.641 100.017 C 215.398 100.283,215.147 100.500,215.083 100.500 C 215.019 100.500,214.757 100.725,214.500 101.000 C 214.243 101.275,213.930 101.500,213.803 101.500 C 213.677 101.500,213.465 101.650,213.333 101.833 C 213.201 102.017,212.957 102.167,212.791 102.167 C 212.625 102.167,212.446 102.279,212.394 102.417 C 212.341 102.554,212.156 102.667,211.982 102.667 C 211.809 102.667,211.667 102.742,211.667 102.833 C 211.667 102.925,211.517 103.000,211.333 103.000 C 211.150 103.000,211.000 103.075,211.000 103.167 C 211.000 103.258,210.813 103.333,210.583 103.333 C 210.354 103.333,210.167 103.408,210.167 103.500 C 210.167 103.592,210.021 103.667,209.843 103.667 C 209.665 103.667,209.473 103.742,209.417 103.833 C 209.360 103.925,209.056 104.000,208.740 104.000 C 208.425 104.000,208.167 104.075,208.167 104.167 C 208.167 104.261,207.694 104.333,207.083 104.333 C 206.472 104.333,206.000 104.406,206.000 104.500 C 206.000 104.603,205.087 104.667,203.593 104.667 C 202.168 104.667,201.144 104.599,201.083 104.500 C 201.027 104.408,200.460 104.333,199.823 104.333 C 199.163 104.333,198.667 104.262,198.667 104.167 C 198.667 104.075,198.371 104.000,198.010 104.000 C 197.649 104.000,197.307 103.925,197.250 103.833 C 197.193 103.742,196.851 103.667,196.490 103.667 C 196.129 103.667,195.833 103.592,195.833 103.500 C 195.833 103.408,195.650 103.333,195.427 103.333 C 195.203 103.333,194.973 103.258,194.917 103.167 C 194.860 103.075,194.631 103.000,194.407 103.000 C 194.183 103.000,194.000 102.925,194.000 102.833 C 194.000 102.742,193.775 102.667,193.500 102.667 C 193.167 102.667,193.000 102.583,193.000 102.417 C 193.000 102.278,192.852 102.167,192.667 102.167 C 192.483 102.167,192.333 102.092,192.333 102.000 C 192.333 101.908,192.146 101.833,191.917 101.833 C 191.688 101.833,191.500 101.758,191.500 101.667 C 191.500 101.575,191.367 101.500,191.203 101.500 C 191.040 101.500,190.799 101.350,190.667 101.167 C 190.535 100.983,190.293 100.833,190.130 100.833 C 189.967 100.833,189.833 100.758,189.833 100.667 C 189.833 100.575,189.721 100.500,189.583 100.500 C 189.446 100.500,189.333 100.425,189.333 100.333 C 189.333 100.242,189.183 100.167,189.000 100.167 C 188.817 100.167,188.667 100.067,188.667 99.945 C 188.667 99.823,188.460 99.617,188.208 99.488 C 187.956 99.358,187.629 99.121,187.480 98.959 C 187.332 98.798,187.165 98.667,187.108 98.667 C 186.905 98.667,185.528 97.360,184.208 95.915 C 183.956 95.639,183.638 95.189,183.501 94.915 C 183.364 94.641,183.121 94.295,182.959 94.147 C 182.798 93.999,182.667 93.787,182.667 93.677 C 182.667 93.428,182.253 93.000,182.012 93.000 C 181.914 93.000,181.833 92.813,181.833 92.583 C 181.833 92.354,181.758 92.167,181.667 92.167 C 181.575 92.167,181.500 92.023,181.500 91.847 C 181.500 91.672,181.444 91.503,181.375 91.472 C 181.169 91.381,180.167 89.311,180.167 88.977 C 180.167 88.806,180.054 88.667,179.917 88.667 C 179.750 88.667,179.667 88.500,179.667 88.167 C 179.667 87.892,179.592 87.667,179.500 87.667 C 179.408 87.667,179.333 87.446,179.333 87.177 C 179.333 86.907,179.258 86.640,179.167 86.583 C 179.075 86.527,179.000 86.260,179.000 85.990 C 179.000 85.721,178.925 85.500,178.833 85.500 C 178.742 85.500,178.667 85.388,178.667 85.250 C 178.667 85.053,178.435 85.000,177.583 85.000 L 176.500 85.000 176.500 96.083 L 176.500 107.167 177.505 107.167 C 178.306 107.167,178.533 107.108,178.621 106.878 C 178.780 106.465,180.664 104.667,180.938 104.667 C 181.064 104.667,181.167 104.592,181.167 104.500 C 181.167 104.408,181.317 104.333,181.500 104.333 C 181.683 104.333,181.833 104.258,181.833 104.167 C 181.833 104.067,182.500 104.000,183.500 104.000 C 184.500 104.000,185.167 104.067,185.167 104.167 C 185.167 104.258,185.429 104.333,185.750 104.333 C 186.071 104.333,186.333 104.408,186.333 104.500 C 186.333 104.592,186.598 104.667,186.922 104.667 C 187.291 104.667,187.546 104.760,187.606 104.917 C 187.661 105.059,187.910 105.167,188.184 105.167 C 188.450 105.167,188.667 105.242,188.667 105.333 C 188.667 105.425,188.929 105.500,189.250 105.500 C 189.571 105.500,189.833 105.575,189.833 105.667 C 189.833 105.758,189.979 105.833,190.157 105.833 C 190.335 105.833,190.527 105.908,190.583 106.000 C 190.640 106.092,190.907 106.167,191.177 106.167 C 191.446 106.167,191.667 106.242,191.667 106.333 C 191.667 106.425,191.817 106.500,192.000 106.500 C 192.183 106.500,192.333 106.575,192.333 106.667 C 192.333 106.758,192.558 106.833,192.833 106.833 C 193.108 106.833,193.333 106.908,193.333 107.000 C 193.333 107.092,193.588 107.167,193.899 107.167 C 194.248 107.167,194.501 107.262,194.560 107.417 C 194.616 107.561,194.865 107.667,195.152 107.667 C 195.424 107.667,195.693 107.742,195.750 107.833 C 195.807 107.925,196.111 108.000,196.427 108.000 C 197.117 108.000,197.148 108.145,196.551 108.585 C 196.304 108.768,195.985 109.056,195.843 109.227 C 195.700 109.398,195.490 109.636,195.375 109.757 C 195.260 109.877,195.167 110.094,195.167 110.238 C 195.167 110.382,195.092 110.500,195.000 110.500 C 194.908 110.500,194.833 110.650,194.833 110.833 C 194.833 111.017,194.758 111.167,194.667 111.167 C 194.575 111.167,194.500 111.504,194.500 111.917 C 194.500 112.329,194.425 112.667,194.333 112.667 C 194.235 112.667,194.167 113.250,194.167 114.083 C 194.167 114.917,194.235 115.500,194.333 115.500 C 194.425 115.500,194.500 115.725,194.500 116.000 C 194.500 116.275,194.575 116.500,194.667 116.500 C 194.758 116.500,194.833 116.688,194.833 116.917 C 194.833 117.146,194.908 117.333,195.000 117.333 C 195.092 117.333,195.167 117.448,195.167 117.589 C 195.167 117.874,196.226 119.000,196.494 119.000 C 196.589 119.000,196.667 119.074,196.667 119.165 C 196.667 119.376,197.914 120.167,198.247 120.167 C 198.386 120.167,198.500 120.242,198.500 120.333 C 198.500 120.425,198.618 120.500,198.762 120.500 C 199.099 120.500,199.500 120.901,199.500 121.238 C 199.500 121.382,199.575 121.500,199.667 121.500 C 199.871 121.500,199.891 123.283,199.689 123.361 C 199.609 123.392,199.509 123.848,199.467 124.375 L 199.389 125.333 200.688 125.333 C 202.022 125.333,202.667 125.023,202.667 124.380 C 202.667 124.256,202.910 123.897,203.208 123.581 C 204.270 122.454,204.443 122.233,204.677 121.703 C 204.808 121.408,204.971 121.167,205.041 121.167 C 205.110 121.167,205.167 121.033,205.167 120.870 C 205.167 120.707,205.317 120.465,205.500 120.333 C 205.683 120.201,205.833 119.994,205.833 119.872 C 205.833 119.750,206.021 119.477,206.250 119.265 C 206.479 119.052,206.667 118.756,206.667 118.606 C 206.667 118.456,206.728 118.333,206.802 118.333 C 206.973 118.333,207.667 117.050,207.667 116.734 C 207.667 116.605,207.742 116.500,207.833 116.500 C 207.925 116.500,208.000 116.206,208.000 115.847 C 208.000 115.473,208.089 115.165,208.208 115.125 C 208.348 115.078,208.417 114.680,208.417 113.917 C 208.417 113.154,208.348 112.755,208.208 112.708 C 208.090 112.669,208.000 112.362,208.000 111.996 C 208.000 111.642,207.925 111.307,207.833 111.250 C 207.742 111.193,207.667 111.001,207.667 110.823 C 207.667 110.646,207.610 110.500,207.541 110.500 C 207.471 110.500,207.321 110.289,207.207 110.031 C 207.093 109.774,206.850 109.402,206.667 109.205 C 206.208 108.713,206.237 108.667,207.000 108.667 C 207.367 108.667,207.667 108.592,207.667 108.500 C 207.667 108.408,208.079 108.333,208.583 108.333 C 209.088 108.333,209.500 108.258,209.500 108.167 C 209.500 108.075,209.796 108.000,210.157 108.000 C 210.518 108.000,210.860 107.925,210.917 107.833 C 210.973 107.742,211.232 107.667,211.492 107.667 C 211.758 107.667,212.006 107.558,212.060 107.417 C 212.113 107.279,212.346 107.167,212.578 107.167 C 212.810 107.167,213.000 107.092,213.000 107.000 C 213.000 106.908,213.262 106.833,213.583 106.833 C 213.904 106.833,214.167 106.758,214.167 106.667 C 214.167 106.575,214.312 106.500,214.490 106.500 C 214.668 106.500,214.860 106.425,214.917 106.333 C 214.973 106.242,215.158 106.167,215.326 106.167 C 215.710 106.167,217.519 105.235,217.768 104.909 C 217.870 104.776,218.076 104.667,218.227 104.667 C 218.377 104.667,218.500 104.592,218.500 104.500 C 218.500 104.408,218.633 104.333,218.797 104.333 C 218.960 104.333,219.201 104.183,219.333 104.000 C 219.465 103.817,219.675 103.667,219.799 103.667 C 219.923 103.667,220.119 103.573,220.234 103.458 C 220.350 103.344,220.645 103.101,220.889 102.919 C 221.133 102.737,221.333 102.493,221.333 102.377 C 221.333 102.261,221.442 102.167,221.574 102.167 C 221.854 102.167,223.833 100.272,223.833 100.005 C 223.833 99.906,224.152 99.493,224.542 99.089 C 225.484 98.109,225.667 97.880,225.667 97.674 C 225.667 97.578,225.742 97.500,225.833 97.500 C 225.925 97.500,226.000 97.384,226.000 97.243 C 226.000 97.102,226.150 96.825,226.333 96.628 C 226.517 96.431,226.667 96.172,226.667 96.052 C 226.667 95.932,226.742 95.833,226.833 95.833 C 226.925 95.833,227.000 95.646,227.000 95.417 C 227.000 95.188,227.058 95.000,227.129 95.000 C 227.200 95.000,227.395 94.719,227.564 94.375 C 227.732 94.031,227.937 93.620,228.018 93.461 C 228.100 93.301,228.167 93.020,228.167 92.836 C 228.167 92.651,228.242 92.500,228.333 92.500 C 228.425 92.500,228.500 92.200,228.500 91.833 C 228.500 91.467,228.575 91.167,228.667 91.167 C 228.758 91.167,228.833 90.754,228.833 90.250 C 228.833 89.746,228.908 89.333,229.000 89.333 C 229.106 89.333,229.167 88.083,229.167 85.917 C 229.167 83.750,229.106 82.500,229.000 82.500 C 228.908 82.500,228.833 82.125,228.833 81.667 C 228.833 81.208,228.758 80.833,228.667 80.833 C 228.575 80.833,228.500 80.575,228.500 80.260 C 228.500 79.944,228.425 79.640,228.333 79.583 C 228.242 79.527,228.167 79.297,228.167 79.073 C 228.167 78.850,228.092 78.667,228.000 78.667 C 227.908 78.667,227.833 78.451,227.833 78.187 C 227.833 77.923,227.721 77.614,227.583 77.500 C 227.446 77.386,227.333 77.189,227.333 77.063 C 227.333 76.937,227.258 76.833,227.167 76.833 C 227.075 76.833,227.000 76.683,227.000 76.500 C 227.000 76.317,226.925 76.167,226.833 76.167 C 226.742 76.167,226.667 75.979,226.667 75.750 C 226.667 75.521,226.592 75.333,226.500 75.333 C 226.408 75.333,226.333 75.235,226.333 75.115 C 226.333 74.995,226.183 74.735,226.000 74.538 C 225.817 74.342,225.667 74.092,225.667 73.984 C 225.667 73.877,225.479 73.614,225.250 73.402 C 225.021 73.190,224.833 72.945,224.833 72.858 C 224.833 72.771,224.458 72.317,224.000 71.849 C 223.542 71.381,223.167 70.939,223.167 70.867 C 223.167 70.654,220.636 68.167,220.419 68.167 C 220.373 68.167,219.952 67.792,219.484 67.333 C 219.016 66.875,218.562 66.500,218.475 66.500 C 218.388 66.500,218.144 66.313,217.931 66.083 C 217.719 65.854,217.457 65.667,217.349 65.667 C 217.241 65.667,216.992 65.517,216.795 65.333 C 216.598 65.150,216.339 65.000,216.219 65.000 C 216.098 65.000,216.000 64.925,216.000 64.833 C 216.000 64.742,215.829 64.667,215.620 64.667 C 215.411 64.667,215.132 64.517,215.000 64.333 C 214.868 64.150,214.626 64.000,214.463 64.000 C 214.300 64.000,214.167 63.931,214.167 63.846 C 214.167 63.761,213.754 63.489,213.250 63.243 C 212.746 62.996,212.333 62.728,212.333 62.647 C 212.333 62.566,212.183 62.500,212.000 62.500 C 211.817 62.500,211.667 62.425,211.667 62.333 C 211.667 62.242,211.517 62.167,211.333 62.167 C 211.150 62.167,211.000 62.092,211.000 62.000 C 211.000 61.908,210.847 61.833,210.660 61.833 C 210.472 61.833,210.229 61.757,210.118 61.663 C 209.163 60.857,208.878 60.667,208.625 60.667 C 208.465 60.667,208.333 60.592,208.333 60.500 C 208.333 60.408,208.183 60.333,208.000 60.333 C 207.817 60.333,207.667 60.258,207.667 60.167 C 207.667 60.075,207.517 60.000,207.333 60.000 C 207.150 60.000,207.000 59.925,207.000 59.833 C 207.000 59.742,206.850 59.667,206.667 59.667 C 206.483 59.667,206.333 59.592,206.333 59.500 C 206.333 59.408,206.253 59.333,206.156 59.333 C 206.058 59.333,205.732 59.146,205.431 58.917 C 205.131 58.688,204.799 58.500,204.693 58.500 C 204.587 58.500,204.500 58.425,204.500 58.333 C 204.500 58.242,204.354 58.167,204.177 58.167 C 203.999 58.167,203.807 58.092,203.750 58.000 C 203.693 57.908,203.501 57.833,203.323 57.833 C 203.146 57.833,203.000 57.758,203.000 57.667 C 203.000 57.575,202.884 57.500,202.743 57.500 C 202.602 57.500,202.325 57.350,202.128 57.167 C 201.931 56.983,201.643 56.833,201.486 56.833 C 201.330 56.833,201.159 56.721,201.106 56.583 C 201.054 56.446,200.896 56.333,200.755 56.333 C 200.615 56.333,200.500 56.258,200.500 56.167 C 200.500 56.075,200.350 56.000,200.167 56.000 C 199.983 56.000,199.833 55.925,199.833 55.833 C 199.833 55.742,199.683 55.667,199.500 55.667 C 199.317 55.667,199.167 55.592,199.167 55.500 C 199.167 55.408,199.054 55.333,198.917 55.333 C 198.779 55.333,198.667 55.258,198.667 55.167 C 198.667 55.075,198.517 55.000,198.333 55.000 C 198.150 55.000,198.000 54.925,198.000 54.833 C 198.000 54.742,197.850 54.667,197.667 54.667 C 197.483 54.667,197.333 54.592,197.333 54.500 C 197.333 54.408,197.183 54.333,197.000 54.333 C 196.817 54.333,196.667 54.262,196.667 54.174 C 196.667 54.087,196.404 53.891,196.083 53.739 C 195.762 53.587,195.500 53.396,195.500 53.314 C 195.500 53.233,195.350 53.167,195.167 53.167 C 194.983 53.167,194.833 53.092,194.833 53.000 C 194.833 52.908,194.662 52.833,194.453 52.833 C 194.245 52.833,193.965 52.683,193.833 52.500 C 193.701 52.317,193.492 52.167,193.368 52.167 C 193.244 52.167,193.038 52.073,192.911 51.958 C 192.359 51.464,192.171 51.333,192.007 51.333 C 191.911 51.333,191.833 51.258,191.833 51.167 C 191.833 51.075,191.700 51.000,191.537 51.000 C 191.374 51.000,191.132 50.850,191.000 50.667 C 190.868 50.483,190.643 50.333,190.500 50.333 C 190.357 50.333,190.132 50.183,190.000 50.000 C 189.868 49.817,189.698 49.667,189.623 49.667 C 189.446 49.667,189.181 49.445,188.077 48.375 C 187.580 47.894,187.115 47.500,187.043 47.500 C 186.971 47.500,186.763 47.299,186.581 47.053 C 186.399 46.808,186.100 46.451,185.917 46.262 C 185.733 46.072,185.477 45.710,185.347 45.458 C 185.217 45.206,185.048 45.000,184.972 45.000 C 184.896 45.000,184.833 44.848,184.833 44.661 C 184.833 44.475,184.721 44.280,184.583 44.227 C 184.446 44.174,184.333 43.989,184.333 43.816 C 184.333 43.642,184.258 43.500,184.167 43.500 C 184.075 43.500,184.000 43.275,184.000 43.000 C 184.000 42.725,183.925 42.500,183.833 42.500 C 183.742 42.500,183.667 42.087,183.667 41.583 C 183.667 41.079,183.592 40.667,183.500 40.667 C 183.406 40.667,183.333 40.194,183.333 39.583 C 183.333 38.972,183.406 38.500,183.500 38.500 C 183.592 38.500,183.667 38.162,183.667 37.750 C 183.667 37.337,183.742 37.000,183.833 37.000 C 183.925 37.000,184.000 36.775,184.000 36.500 C 184.000 36.225,184.075 36.000,184.167 36.000 C 184.258 36.000,184.333 35.884,184.333 35.742 C 184.333 35.600,184.521 35.310,184.750 35.098 C 184.979 34.886,185.167 34.622,185.167 34.512 C 185.167 34.402,185.542 33.946,186.000 33.500 C 186.458 33.054,186.833 32.608,186.833 32.511 C 186.833 32.413,186.946 32.333,187.083 32.333 C 187.221 32.333,187.333 32.258,187.333 32.167 C 187.333 32.075,187.432 32.000,187.552 32.000 C 187.672 32.000,187.931 31.850,188.128 31.667 C 188.325 31.483,188.602 31.333,188.743 31.333 C 188.884 31.333,189.000 31.258,189.000 31.167 C 189.000 31.075,189.112 31.000,189.250 31.000 C 189.387 31.000,189.500 30.925,189.500 30.833 C 189.500 30.742,189.587 30.667,189.694 30.667 C 190.005 30.667,191.167 30.115,191.167 29.968 C 191.167 29.894,191.387 29.833,191.657 29.833 C 191.926 29.833,192.193 29.758,192.250 29.667 C 192.307 29.575,192.574 29.500,192.843 29.500 C 193.113 29.500,193.333 29.425,193.333 29.333 C 193.333 29.242,193.671 29.167,194.083 29.167 L 194.833 29.167 194.833 40.083 C 194.833 49.808,194.861 51.000,195.090 51.000 C 195.232 51.000,195.508 51.150,195.705 51.333 C 195.902 51.517,196.191 51.667,196.347 51.667 C 196.503 51.667,196.674 51.779,196.727 51.917 C 196.780 52.054,196.938 52.167,197.078 52.167 C 197.218 52.167,197.333 52.242,197.333 52.333 C 197.333 52.425,197.483 52.500,197.667 52.500 C 197.850 52.500,198.000 52.575,198.000 52.667 C 198.000 52.758,198.136 52.833,198.302 52.833 C 198.468 52.833,198.765 52.983,198.962 53.167 C 199.158 53.350,199.435 53.500,199.576 53.500 C 199.718 53.500,199.833 53.575,199.833 53.667 C 199.833 53.758,199.983 53.833,200.167 53.833 C 200.350 53.833,200.500 53.908,200.500 54.000 C 200.500 54.092,200.652 54.167,200.839 54.167 C 201.025 54.167,201.220 54.279,201.273 54.417 C 201.326 54.554,201.511 54.667,201.684 54.667 C 201.858 54.667,202.000 54.742,202.000 54.833 C 202.000 54.925,202.094 55.002,202.208 55.004 C 202.323 55.006,202.604 55.154,202.833 55.333 C 203.063 55.513,203.381 55.661,203.542 55.663 C 203.702 55.665,203.833 55.742,203.833 55.833 C 203.833 55.925,203.983 56.000,204.167 56.000 C 204.350 56.000,204.500 56.075,204.500 56.167 C 204.500 56.258,204.642 56.333,204.816 56.333 C 204.989 56.333,205.174 56.446,205.227 56.583 C 205.280 56.721,205.419 56.835,205.536 56.837 C 205.654 56.839,205.938 56.987,206.167 57.167 C 206.396 57.346,206.752 57.494,206.958 57.496 L 207.333 57.500 207.333 39.750 C 207.333 28.028,207.390 22.000,207.500 22.000 C 207.592 22.000,207.667 21.738,207.667 21.417 C 207.667 21.096,207.742 20.833,207.833 20.833 C 207.925 20.833,208.000 20.715,208.000 20.571 C 208.000 20.291,208.384 19.833,208.618 19.833 C 208.696 19.833,208.868 19.683,209.000 19.500 C 209.132 19.317,209.369 19.167,209.527 19.167 C 209.685 19.167,209.860 19.092,209.917 19.000 C 209.973 18.908,210.273 18.833,210.583 18.833 C 210.893 18.833,211.193 18.758,211.250 18.667 C 211.307 18.575,211.499 18.500,211.677 18.500 C 211.968 18.500,212.000 18.376,212.000 17.250 L 212.000 16.000 201.194 16.000 C 195.251 16.000,190.339 16.050,190.278 16.111 M219.882 26.667 C 219.834 26.850,219.728 27.000,219.647 27.000 C 219.566 27.000,219.500 27.078,219.500 27.172 C 219.500 27.381,218.536 28.336,218.033 28.625 C 217.593 28.879,214.500 28.915,214.500 28.667 C 214.500 28.575,214.275 28.500,214.000 28.500 C 213.725 28.500,213.500 28.425,213.500 28.333 C 213.500 28.242,213.313 28.167,213.083 28.167 C 212.854 28.167,212.667 28.092,212.667 28.000 C 212.667 27.908,212.450 27.833,212.184 27.833 C 211.910 27.833,211.661 27.726,211.606 27.583 C 211.554 27.446,211.373 27.333,211.205 27.333 C 211.037 27.333,210.819 27.252,210.720 27.154 C 210.621 27.055,210.325 26.999,210.062 27.029 L 209.583 27.083 209.535 28.823 C 209.486 30.632,209.767 31.333,210.543 31.333 C 210.667 31.333,211.037 31.577,211.365 31.875 C 212.337 32.757,212.830 33.167,212.922 33.167 C 213.119 33.167,214.833 35.012,214.833 35.225 C 214.833 35.353,215.096 35.682,215.417 35.956 C 215.737 36.230,216.000 36.560,216.000 36.690 C 216.000 36.820,216.150 37.035,216.333 37.167 C 216.517 37.299,216.667 37.526,216.667 37.672 C 216.667 37.818,216.817 38.098,217.000 38.295 C 217.183 38.492,217.333 38.768,217.333 38.910 C 217.333 39.051,217.408 39.167,217.500 39.167 C 217.592 39.167,217.667 39.319,217.667 39.505 C 217.667 39.691,217.779 39.887,217.917 39.940 C 218.054 39.992,218.167 40.215,218.167 40.434 C 218.167 40.654,218.242 40.833,218.333 40.833 C 218.425 40.833,218.500 41.021,218.500 41.250 C 218.500 41.479,218.575 41.667,218.667 41.667 C 218.758 41.667,218.833 41.929,218.833 42.250 C 218.833 42.571,218.908 42.833,219.000 42.833 C 219.092 42.833,219.167 43.129,219.167 43.490 C 219.167 43.851,219.242 44.193,219.333 44.250 C 219.425 44.307,219.500 44.757,219.500 45.250 C 219.500 45.743,219.575 46.193,219.667 46.250 C 219.758 46.307,219.833 46.491,219.833 46.659 C 219.833 47.133,220.922 47.339,221.958 47.062 L 222.333 46.961 222.333 36.647 L 222.333 26.333 221.151 26.333 C 220.109 26.333,219.958 26.373,219.882 26.667 M31.333 43.667 C 31.333 43.758,31.218 43.833,31.076 43.833 C 30.757 43.833,30.065 44.404,29.375 45.235 C 28.841 45.879,29.204 49.167,29.810 49.167 C 29.915 49.167,30.000 49.245,30.000 49.341 C 30.000 49.711,30.826 50.333,31.316 50.333 C 31.590 50.333,31.860 50.408,31.917 50.500 C 31.973 50.592,32.278 50.667,32.593 50.667 C 32.909 50.667,33.167 50.592,33.167 50.500 C 33.167 50.408,33.392 50.333,33.667 50.333 C 33.942 50.333,34.167 50.258,34.167 50.167 C 34.167 50.075,34.304 50.000,34.472 50.000 C 34.827 50.000,35.667 49.122,35.667 48.751 C 35.667 48.613,35.742 48.500,35.833 48.500 C 35.931 48.500,36.000 47.917,36.000 47.083 C 36.000 46.250,35.931 45.667,35.833 45.667 C 35.742 45.667,35.667 45.551,35.667 45.410 C 35.667 45.072,34.433 43.833,34.096 43.833 C 33.952 43.833,33.833 43.758,33.833 43.667 C 33.833 43.570,33.306 43.500,32.583 43.500 C 31.861 43.500,31.333 43.570,31.333 43.667 M40.000 43.667 C 40.000 43.758,39.850 43.833,39.667 43.833 C 39.483 43.833,39.333 43.908,39.333 44.000 C 39.333 44.092,39.221 44.167,39.083 44.167 C 38.946 44.167,38.833 44.231,38.833 44.309 C 38.833 44.387,38.608 44.686,38.333 44.974 C 37.816 45.515,37.534 48.500,38.000 48.500 C 38.092 48.500,38.167 48.627,38.167 48.782 C 38.167 49.294,39.460 50.333,40.097 50.333 C 40.410 50.333,40.667 50.408,40.667 50.500 C 40.667 50.592,40.892 50.667,41.167 50.667 C 41.442 50.667,41.667 50.592,41.667 50.500 C 41.667 50.408,41.893 50.333,42.169 50.333 C 42.865 50.333,43.833 49.759,43.833 49.345 C 43.833 49.247,43.946 49.167,44.083 49.167 C 44.222 49.167,44.333 49.019,44.333 48.833 C 44.333 48.650,44.408 48.500,44.500 48.500 C 44.734 48.500,44.712 45.948,44.473 45.425 C 44.367 45.191,44.212 45.000,44.128 45.000 C 43.955 45.000,43.500 44.578,43.500 44.417 C 43.500 44.211,43.022 43.833,42.762 43.833 C 42.618 43.833,42.500 43.758,42.500 43.667 C 42.500 43.570,41.972 43.500,41.250 43.500 C 40.528 43.500,40.000 43.570,40.000 43.667 M109.833 43.667 C 109.833 43.758,109.683 43.833,109.500 43.833 C 109.317 43.833,109.167 43.908,109.167 44.000 C 109.167 44.092,109.073 44.168,108.958 44.170 C 108.704 44.173,108.000 44.892,108.000 45.148 C 108.000 45.250,107.925 45.333,107.833 45.333 C 107.742 45.333,107.667 45.479,107.667 45.657 C 107.667 45.835,107.592 46.027,107.500 46.083 C 107.408 46.140,107.333 46.590,107.333 47.083 C 107.333 47.577,107.408 48.027,107.500 48.083 C 107.592 48.140,107.667 48.300,107.667 48.438 C 107.667 48.577,107.760 48.789,107.875 48.910 C 107.990 49.031,108.225 49.326,108.398 49.565 C 108.572 49.804,108.815 50.000,108.940 50.000 C 109.065 50.000,109.167 50.075,109.167 50.167 C 109.167 50.258,109.312 50.333,109.490 50.333 C 109.668 50.333,109.860 50.408,109.917 50.500 C 109.973 50.592,110.465 50.667,111.010 50.667 C 111.559 50.667,112.000 50.592,112.000 50.500 C 112.000 50.408,112.150 50.333,112.333 50.333 C 112.517 50.333,112.667 50.258,112.667 50.167 C 112.667 50.075,112.800 50.000,112.963 50.000 C 113.382 50.000,114.167 48.969,114.167 48.419 C 114.167 48.280,114.242 48.167,114.333 48.167 C 114.427 48.167,114.500 47.694,114.500 47.083 C 114.500 46.487,114.434 46.000,114.354 46.000 C 114.274 46.000,114.167 45.793,114.116 45.539 C 113.962 44.771,112.927 43.833,112.231 43.833 C 112.104 43.833,112.000 43.758,112.000 43.667 C 112.000 43.573,111.528 43.500,110.917 43.500 C 110.306 43.500,109.833 43.573,109.833 43.667 M376.255 51.159 C 376.196 51.255,375.856 51.333,375.500 51.333 C 375.144 51.333,374.807 51.408,374.750 51.500 C 374.693 51.592,374.462 51.667,374.235 51.667 C 374.008 51.667,373.780 51.779,373.727 51.917 C 373.672 52.059,373.424 52.167,373.149 52.167 C 372.884 52.167,372.667 52.242,372.667 52.333 C 372.667 52.425,372.517 52.500,372.333 52.500 C 372.150 52.500,372.000 52.575,372.000 52.667 C 372.000 52.758,371.926 52.833,371.835 52.833 C 371.358 52.833,369.333 54.925,369.333 55.418 C 369.333 55.555,369.258 55.667,369.167 55.667 C 369.075 55.667,369.000 55.854,369.000 56.083 C 369.000 56.313,368.925 56.500,368.833 56.500 C 368.731 56.500,368.667 57.330,368.667 58.657 C 368.667 59.915,368.736 60.857,368.833 60.917 C 368.925 60.973,369.000 61.203,369.000 61.427 C 369.000 61.650,369.075 61.833,369.167 61.833 C 369.258 61.833,369.333 61.949,369.333 62.091 C 369.333 62.355,370.046 63.164,370.284 63.170 C 370.357 63.172,370.641 63.435,370.915 63.754 C 371.189 64.072,371.508 64.333,371.623 64.333 C 371.739 64.333,371.833 64.408,371.833 64.500 C 371.833 64.592,372.021 64.667,372.250 64.667 C 372.479 64.667,372.667 64.742,372.667 64.833 C 372.667 64.925,372.892 65.000,373.167 65.000 C 373.442 65.000,373.667 65.075,373.667 65.167 C 373.667 65.258,373.892 65.333,374.167 65.333 C 374.442 65.333,374.667 65.408,374.667 65.500 C 374.667 65.592,374.962 65.667,375.323 65.667 C 375.685 65.667,376.027 65.742,376.083 65.833 C 376.140 65.925,376.487 66.000,376.855 66.000 C 377.227 66.000,377.635 66.111,377.774 66.250 C 377.911 66.387,378.314 66.500,378.669 66.500 C 379.023 66.500,379.360 66.575,379.417 66.667 C 379.473 66.758,379.815 66.833,380.177 66.833 C 380.538 66.833,380.833 66.908,380.833 67.000 C 380.833 67.092,381.058 67.167,381.333 67.167 C 381.608 67.167,381.833 67.242,381.833 67.333 C 381.833 67.425,381.986 67.500,382.172 67.500 C 382.709 67.500,383.667 68.565,383.667 69.161 C 383.667 69.439,383.592 69.667,383.500 69.667 C 383.408 69.667,383.333 69.785,383.333 69.929 C 383.333 70.217,382.947 70.667,382.699 70.667 C 382.612 70.667,382.447 70.779,382.333 70.917 C 382.219 71.054,381.910 71.167,381.646 71.167 C 381.382 71.167,381.167 71.242,381.167 71.333 C 381.167 71.435,380.389 71.500,379.167 71.500 C 377.944 71.500,377.167 71.435,377.167 71.333 C 377.167 71.242,376.913 71.167,376.604 71.167 C 376.294 71.167,375.947 71.054,375.833 70.917 C 375.719 70.779,375.410 70.667,375.146 70.667 C 374.882 70.667,374.667 70.592,374.667 70.500 C 374.667 70.408,374.568 70.333,374.448 70.333 C 374.328 70.333,374.069 70.183,373.872 70.000 C 373.675 69.817,373.398 69.667,373.257 69.667 C 373.116 69.667,373.000 69.592,373.000 69.500 C 373.000 69.408,372.904 69.333,372.787 69.333 C 372.670 69.333,372.465 69.183,372.333 69.000 C 372.201 68.817,371.976 68.667,371.833 68.667 C 371.690 68.667,371.465 68.817,371.333 69.000 C 371.201 69.183,370.998 69.333,370.882 69.333 C 370.766 69.333,370.513 69.465,370.321 69.625 C 370.129 69.785,369.819 70.046,369.633 70.203 C 369.446 70.361,369.153 70.535,368.980 70.590 C 368.808 70.644,368.667 70.769,368.667 70.867 C 368.667 71.058,367.832 71.833,367.625 71.833 C 367.556 71.833,367.500 71.987,367.500 72.174 C 367.500 72.550,369.113 74.333,369.453 74.333 C 369.571 74.333,369.667 74.408,369.667 74.500 C 369.667 74.592,369.779 74.667,369.917 74.667 C 370.054 74.667,370.167 74.742,370.167 74.833 C 370.167 74.925,370.317 75.000,370.500 75.000 C 370.683 75.000,370.833 75.075,370.833 75.167 C 370.833 75.258,370.983 75.333,371.167 75.333 C 371.350 75.333,371.500 75.408,371.500 75.500 C 371.500 75.592,371.762 75.667,372.083 75.667 C 372.491 75.667,372.667 75.742,372.667 75.917 C 372.667 76.071,372.823 76.167,373.073 76.167 C 373.297 76.167,373.527 76.242,373.583 76.333 C 373.640 76.425,374.019 76.500,374.427 76.500 C 374.834 76.500,375.167 76.575,375.167 76.667 C 375.167 76.773,376.552 76.833,378.990 76.833 C 381.359 76.833,382.853 76.770,382.917 76.667 C 382.973 76.575,383.315 76.500,383.677 76.500 C 384.038 76.500,384.333 76.425,384.333 76.333 C 384.333 76.242,384.561 76.167,384.839 76.167 C 385.134 76.167,385.384 76.063,385.440 75.917 C 385.492 75.779,385.678 75.667,385.851 75.667 C 386.025 75.667,386.167 75.592,386.167 75.500 C 386.167 75.408,386.317 75.333,386.500 75.333 C 386.683 75.333,386.833 75.277,386.833 75.207 C 386.833 75.138,387.077 74.975,387.375 74.845 C 387.977 74.582,388.666 73.875,388.666 73.520 C 388.667 73.393,388.800 73.168,388.963 73.020 C 389.450 72.576,389.833 71.872,389.833 71.423 C 389.833 71.190,389.908 71.000,390.000 71.000 C 390.102 71.000,390.167 70.194,390.167 68.917 C 390.167 67.639,390.102 66.833,390.000 66.833 C 389.908 66.833,389.833 66.643,389.833 66.411 C 389.833 65.891,389.450 65.274,388.627 64.471 C 388.282 64.135,388.000 63.806,388.000 63.740 C 388.000 63.554,387.445 63.178,387.162 63.172 C 387.022 63.169,386.799 63.017,386.667 62.833 C 386.535 62.650,386.260 62.500,386.056 62.500 C 385.853 62.500,385.640 62.425,385.583 62.333 C 385.527 62.242,385.297 62.167,385.073 62.167 C 384.850 62.167,384.667 62.092,384.667 62.000 C 384.667 61.908,384.478 61.833,384.248 61.833 C 384.017 61.833,383.699 61.764,383.539 61.679 C 383.019 61.401,381.532 61.000,381.020 61.000 C 380.745 61.000,380.473 60.925,380.417 60.833 C 380.360 60.742,380.023 60.667,379.667 60.667 C 379.311 60.667,378.973 60.592,378.917 60.500 C 378.860 60.408,378.518 60.333,378.157 60.333 C 377.796 60.333,377.500 60.258,377.500 60.167 C 377.500 60.075,377.275 60.000,377.000 60.000 C 376.725 60.000,376.500 59.925,376.500 59.833 C 376.500 59.742,376.377 59.667,376.228 59.667 C 375.850 59.667,375.167 58.830,375.167 58.367 C 375.167 57.748,376.246 56.833,376.977 56.833 C 377.160 56.833,377.422 56.721,377.560 56.583 C 377.723 56.420,378.136 56.333,378.750 56.333 C 379.364 56.333,379.777 56.420,379.940 56.583 C 380.078 56.721,380.443 56.833,380.752 56.833 C 381.061 56.833,381.360 56.908,381.417 57.000 C 381.473 57.092,381.703 57.167,381.927 57.167 C 382.150 57.167,382.333 57.242,382.333 57.333 C 382.333 57.425,382.483 57.500,382.667 57.500 C 382.850 57.500,383.000 57.575,383.000 57.667 C 383.000 57.758,383.133 57.833,383.297 57.833 C 383.460 57.833,383.701 57.983,383.833 58.167 C 383.965 58.350,384.170 58.500,384.287 58.500 C 384.404 58.500,384.500 58.575,384.500 58.667 C 384.500 59.136,385.684 58.816,386.353 58.167 C 386.731 57.800,387.132 57.500,387.245 57.500 C 387.358 57.500,387.828 57.087,388.290 56.583 C 388.752 56.079,389.213 55.667,389.315 55.667 C 389.730 55.667,389.477 54.894,388.904 54.415 C 388.576 54.141,388.129 53.748,387.911 53.542 C 387.694 53.335,387.362 53.167,387.174 53.167 C 386.987 53.167,386.833 53.110,386.832 53.042 C 386.830 52.892,386.023 52.500,385.717 52.500 C 385.598 52.500,385.500 52.425,385.500 52.333 C 385.500 52.242,385.313 52.167,385.083 52.167 C 384.854 52.167,384.667 52.095,384.667 52.008 C 384.667 51.397,376.610 50.584,376.255 51.159 M0.000 54.250 L 0.000 57.167 3.833 57.167 L 7.667 57.167 7.667 66.833 L 7.667 76.500 10.917 76.500 L 14.167 76.500 14.167 66.836 L 14.167 57.173 18.042 57.128 L 21.917 57.083 21.962 54.208 L 22.008 51.333 11.004 51.333 L 0.000 51.333 0.000 54.250 M25.208 51.444 C 24.941 51.551,24.900 66.000,25.167 66.000 C 25.265 66.000,25.333 66.611,25.333 67.500 C 25.333 68.389,25.401 69.000,25.500 69.000 C 25.592 69.000,25.667 69.300,25.667 69.667 C 25.667 70.033,25.742 70.333,25.833 70.333 C 25.925 70.333,26.000 70.483,26.000 70.667 C 26.000 70.850,26.075 71.000,26.167 71.000 C 26.258 71.000,26.333 71.188,26.333 71.417 C 26.333 71.646,26.408 71.833,26.500 71.833 C 26.592 71.833,26.667 71.951,26.667 72.095 C 26.667 72.380,27.052 72.833,27.293 72.833 C 27.376 72.833,27.549 73.040,27.678 73.292 C 27.807 73.544,28.051 73.862,28.222 74.000 C 28.392 74.137,28.708 74.419,28.925 74.625 C 29.141 74.831,29.397 75.000,29.492 75.000 C 29.588 75.000,29.667 75.075,29.667 75.167 C 29.667 75.258,29.817 75.333,30.000 75.333 C 30.183 75.333,30.333 75.408,30.333 75.500 C 30.333 75.592,30.451 75.667,30.595 75.667 C 30.739 75.667,30.970 75.779,31.107 75.917 C 31.245 76.054,31.539 76.167,31.762 76.167 C 31.985 76.167,32.167 76.242,32.167 76.333 C 32.167 76.425,32.467 76.500,32.833 76.500 C 33.200 76.500,33.500 76.575,33.500 76.667 C 33.500 76.772,34.750 76.833,36.917 76.833 C 39.083 76.833,40.333 76.772,40.333 76.667 C 40.333 76.575,40.633 76.500,41.000 76.500 C 41.367 76.500,41.667 76.425,41.667 76.333 C 41.667 76.242,41.845 76.167,42.063 76.167 C 42.281 76.167,42.553 76.054,42.667 75.917 C 42.781 75.779,42.998 75.667,43.150 75.667 C 43.302 75.667,43.535 75.517,43.667 75.333 C 43.799 75.150,44.046 75.000,44.217 75.000 C 44.387 75.000,44.822 74.681,45.183 74.292 C 45.545 73.902,46.064 73.346,46.337 73.056 C 46.610 72.766,46.833 72.447,46.833 72.348 C 46.833 72.248,46.908 72.167,47.000 72.167 C 47.092 72.167,47.167 72.017,47.167 71.833 C 47.167 71.650,47.242 71.500,47.333 71.500 C 47.425 71.500,47.500 71.313,47.500 71.083 C 47.500 70.854,47.575 70.667,47.667 70.667 C 47.758 70.667,47.833 70.484,47.833 70.260 C 47.833 70.036,47.908 69.807,48.000 69.750 C 48.092 69.693,48.167 69.314,48.167 68.907 C 48.167 68.500,48.242 68.167,48.333 68.167 C 48.442 68.167,48.500 65.249,48.500 59.746 L 48.500 51.326 45.375 51.371 L 42.250 51.417 42.207 59.458 C 42.179 64.627,42.104 67.500,41.998 67.500 C 41.908 67.500,41.833 67.717,41.833 67.982 C 41.833 68.257,41.726 68.506,41.583 68.560 C 41.446 68.613,41.333 68.759,41.333 68.885 C 41.333 69.170,39.937 70.667,39.671 70.667 C 39.564 70.667,39.364 70.779,39.226 70.917 C 39.089 71.054,38.794 71.167,38.571 71.167 C 38.349 71.167,38.167 71.242,38.167 71.333 C 38.167 71.431,37.583 71.500,36.750 71.500 C 35.917 71.500,35.333 71.431,35.333 71.333 C 35.333 71.242,35.218 71.167,35.077 71.167 C 34.687 71.167,33.999 70.686,33.124 69.801 C 32.689 69.361,32.258 69.000,32.166 69.000 C 32.075 69.000,32.000 68.775,32.000 68.500 C 32.000 68.225,31.925 68.000,31.833 68.000 C 31.742 68.000,31.667 67.737,31.667 67.417 C 31.667 67.096,31.592 66.833,31.500 66.833 C 31.391 66.833,31.333 64.139,31.333 59.083 L 31.333 51.333 28.375 51.346 C 26.748 51.354,25.323 51.397,25.208 51.444 M52.833 63.917 L 52.833 76.500 56.083 76.500 L 59.333 76.500 59.333 72.167 L 59.333 67.833 61.762 67.833 C 64.200 67.833,64.667 67.939,64.667 68.491 C 64.667 68.771,65.483 70.000,65.669 70.000 C 65.759 70.000,65.833 70.150,65.833 70.333 C 65.833 70.517,65.908 70.667,66.000 70.667 C 66.092 70.667,66.167 70.772,66.167 70.901 C 66.167 71.216,66.860 72.500,67.031 72.500 C 67.106 72.500,67.167 72.650,67.167 72.833 C 67.167 73.017,67.242 73.167,67.333 73.167 C 67.425 73.167,67.500 73.319,67.500 73.505 C 67.500 73.691,67.612 73.887,67.750 73.940 C 67.887 73.992,68.000 74.161,68.000 74.314 C 68.000 74.468,68.150 74.701,68.333 74.833 C 68.517 74.965,68.667 75.207,68.667 75.370 C 68.667 75.533,68.742 75.667,68.833 75.667 C 68.925 75.667,69.000 75.854,69.000 76.083 L 69.000 76.500 72.672 76.500 C 75.966 76.500,76.355 76.471,76.452 76.218 C 76.512 76.061,76.473 75.908,76.363 75.871 C 76.255 75.835,76.167 75.676,76.167 75.518 C 76.167 75.359,76.017 75.069,75.833 74.872 C 75.650 74.675,75.500 74.398,75.500 74.257 C 75.500 74.116,75.426 74.000,75.337 74.000 C 75.247 74.000,75.126 73.813,75.068 73.583 C 75.011 73.354,74.897 73.167,74.815 73.167 C 74.734 73.167,74.667 73.017,74.667 72.833 C 74.667 72.650,74.592 72.500,74.500 72.500 C 74.408 72.500,74.333 72.402,74.333 72.281 C 74.333 72.161,74.183 71.902,74.000 71.705 C 73.817 71.508,73.667 71.272,73.667 71.180 C 73.667 70.906,72.805 69.439,72.474 69.147 C 72.305 68.999,72.167 68.718,72.167 68.522 C 72.167 68.327,72.092 68.167,72.000 68.167 C 71.908 68.167,71.833 68.017,71.833 67.833 C 71.833 67.650,71.758 67.500,71.667 67.500 C 71.226 67.500,71.564 66.888,72.163 66.601 C 72.526 66.427,72.972 66.146,73.154 65.976 C 73.337 65.806,73.567 65.667,73.665 65.667 C 73.890 65.667,75.000 64.569,75.000 64.346 C 75.000 64.256,75.188 63.994,75.417 63.765 C 75.646 63.536,75.833 63.158,75.833 62.924 C 75.833 62.691,75.908 62.500,76.000 62.500 C 76.092 62.500,76.167 62.163,76.167 61.750 C 76.167 61.337,76.242 61.000,76.333 61.000 C 76.431 61.000,76.500 60.417,76.500 59.583 C 76.500 58.750,76.431 58.167,76.333 58.167 C 76.242 58.167,76.166 57.923,76.164 57.625 C 76.160 56.625,75.619 55.468,74.753 54.602 C 74.522 54.371,74.333 54.131,74.333 54.069 C 74.333 53.886,73.436 53.167,73.208 53.167 C 73.094 53.167,73.000 53.092,73.000 53.000 C 73.000 52.908,72.813 52.833,72.583 52.833 C 72.354 52.833,72.167 52.758,72.167 52.667 C 72.167 52.575,72.017 52.500,71.833 52.500 C 71.650 52.500,71.500 52.425,71.500 52.333 C 71.500 52.242,71.307 52.167,71.071 52.167 C 70.836 52.167,70.530 52.054,70.393 51.917 C 70.247 51.771,69.840 51.667,69.415 51.667 C 69.014 51.667,68.640 51.592,68.583 51.500 C 68.517 51.393,65.693 51.333,60.657 51.333 L 52.833 51.333 52.833 63.917 M80.167 63.917 L 80.167 76.500 83.167 76.500 L 86.167 76.500 86.167 72.953 C 86.167 69.598,86.185 69.394,86.500 69.167 C 86.683 69.035,86.833 68.830,86.833 68.713 C 86.833 68.596,86.911 68.500,87.006 68.500 C 87.101 68.500,87.894 67.781,88.768 66.903 C 90.282 65.381,90.833 65.072,90.833 65.745 C 90.833 65.885,90.908 66.000,91.000 66.000 C 91.092 66.000,91.167 66.095,91.167 66.210 C 91.167 66.326,91.354 66.622,91.583 66.869 C 91.813 67.117,92.000 67.418,92.000 67.539 C 92.000 67.661,92.150 67.868,92.333 68.000 C 92.517 68.132,92.667 68.374,92.667 68.537 C 92.667 68.700,92.742 68.833,92.833 68.833 C 92.925 68.833,93.000 68.946,93.000 69.083 C 93.000 69.221,93.075 69.333,93.167 69.333 C 93.258 69.333,93.333 69.451,93.333 69.595 C 93.333 69.895,93.723 70.333,93.988 70.333 C 94.086 70.333,94.167 70.483,94.167 70.667 C 94.167 70.850,94.228 71.000,94.302 71.000 C 94.377 71.000,94.541 71.262,94.667 71.583 C 94.793 71.904,94.957 72.167,95.031 72.167 C 95.106 72.167,95.167 72.265,95.167 72.385 C 95.167 72.505,95.317 72.765,95.500 72.962 C 95.683 73.158,95.833 73.408,95.833 73.516 C 95.833 73.623,96.021 73.886,96.250 74.098 C 96.479 74.310,96.667 74.584,96.667 74.705 C 96.667 74.827,96.817 75.035,97.000 75.167 C 97.183 75.299,97.336 75.522,97.339 75.662 C 97.355 76.458,97.560 76.500,101.477 76.500 L 105.167 76.500 105.167 76.000 C 105.167 75.725,105.092 75.500,105.000 75.500 C 104.908 75.500,104.833 75.387,104.833 75.250 C 104.833 75.112,104.758 75.000,104.667 75.000 C 104.575 75.000,104.500 74.867,104.500 74.703 C 104.500 74.540,104.350 74.299,104.167 74.167 C 103.983 74.035,103.833 73.848,103.833 73.753 C 103.833 73.658,103.646 73.378,103.417 73.131 C 103.188 72.883,103.000 72.600,103.000 72.500 C 103.000 72.401,102.850 72.158,102.667 71.962 C 102.483 71.765,102.333 71.505,102.333 71.385 C 102.333 71.265,102.277 71.167,102.207 71.167 C 102.138 71.167,101.973 70.923,101.842 70.625 C 101.588 70.052,101.475 69.891,100.875 69.250 C 100.669 69.029,100.500 68.747,100.500 68.622 C 100.500 68.498,100.350 68.235,100.167 68.038 C 99.983 67.842,99.833 67.582,99.833 67.460 C 99.833 67.339,99.683 67.132,99.500 67.000 C 99.317 66.868,99.167 66.624,99.167 66.458 C 99.167 66.292,99.054 66.113,98.917 66.060 C 98.779 66.008,98.667 65.860,98.667 65.732 C 98.667 65.604,98.592 65.500,98.500 65.500 C 98.408 65.500,98.333 65.387,98.333 65.250 C 98.333 65.112,98.258 65.000,98.167 65.000 C 98.075 65.000,98.000 64.867,98.000 64.703 C 98.000 64.540,97.850 64.299,97.667 64.167 C 97.483 64.035,97.333 63.812,97.333 63.672 C 97.333 63.430,96.934 62.871,96.174 62.048 C 95.987 61.845,95.833 61.526,95.833 61.339 C 95.833 61.153,95.771 61.000,95.695 61.000 C 95.168 61.000,95.134 60.164,95.642 59.690 C 95.931 59.420,96.167 59.117,96.167 59.016 C 96.167 58.916,96.243 58.833,96.336 58.833 C 96.558 58.833,98.667 56.724,98.667 56.503 C 98.667 56.410,98.743 56.333,98.837 56.333 C 99.059 56.333,100.833 54.559,100.833 54.337 C 100.833 54.243,100.898 54.167,100.978 54.167 C 101.406 54.167,103.000 52.339,103.000 51.848 L 103.000 51.333 99.402 51.333 L 95.805 51.333 94.853 52.300 C 94.329 52.832,93.680 53.563,93.410 53.925 C 93.139 54.287,92.580 54.900,92.167 55.287 C 91.755 55.674,91.342 56.069,91.250 56.165 C 91.158 56.262,90.406 57.033,89.578 57.879 C 88.750 58.725,87.890 59.679,87.667 60.000 C 87.143 60.754,86.899 61.000,86.679 61.000 C 86.580 61.000,86.500 61.112,86.500 61.250 C 86.500 61.387,86.425 61.500,86.333 61.500 C 86.226 61.500,86.167 59.694,86.167 56.417 L 86.167 51.333 83.167 51.333 L 80.167 51.333 80.167 63.917 M107.778 51.444 C 107.717 51.506,107.667 57.168,107.667 64.028 L 107.667 76.500 110.917 76.500 L 114.167 76.500 114.167 63.917 L 114.167 51.333 111.028 51.333 C 109.301 51.333,107.839 51.383,107.778 51.444 M116.000 51.880 C 116.000 52.235,116.117 52.510,116.333 52.667 C 116.517 52.799,116.667 52.992,116.667 53.095 C 116.667 53.199,116.892 53.519,117.167 53.807 C 117.442 54.095,117.667 54.403,117.667 54.491 C 117.667 54.579,117.854 54.839,118.083 55.068 C 118.313 55.297,118.500 55.545,118.500 55.617 C 118.500 55.690,118.692 55.973,118.927 56.246 C 119.161 56.519,119.470 56.987,119.612 57.288 C 119.755 57.588,119.975 57.833,120.102 57.833 C 120.229 57.833,120.333 57.967,120.333 58.130 C 120.333 58.293,120.483 58.535,120.667 58.667 C 120.850 58.799,121.000 59.003,121.000 59.120 C 121.000 59.237,121.075 59.333,121.167 59.333 C 121.258 59.333,121.333 59.449,121.333 59.591 C 121.333 59.733,121.515 60.030,121.737 60.252 C 121.959 60.474,122.189 60.808,122.248 60.995 C 122.307 61.181,122.463 61.333,122.595 61.333 C 122.726 61.333,122.833 61.446,122.833 61.583 C 122.833 61.721,122.908 61.833,123.000 61.833 C 123.092 61.833,123.167 61.956,123.167 62.105 C 123.167 62.255,123.298 62.499,123.459 62.647 C 123.621 62.795,123.858 63.123,123.988 63.375 C 124.117 63.627,124.285 63.833,124.361 63.833 C 124.438 63.833,124.500 63.911,124.500 64.007 C 124.500 64.183,124.643 64.382,125.250 65.050 C 125.433 65.252,125.689 65.622,125.818 65.872 C 125.948 66.123,126.191 66.476,126.360 66.657 C 126.643 66.961,126.667 67.354,126.667 71.743 L 126.667 76.500 129.750 76.500 L 132.833 76.500 132.833 71.667 C 132.833 68.556,132.893 66.833,133.000 66.833 C 133.092 66.833,133.167 66.721,133.167 66.583 C 133.167 66.446,133.242 66.333,133.333 66.333 C 133.425 66.333,133.500 66.200,133.500 66.037 C 133.500 65.874,133.650 65.632,133.833 65.500 C 134.017 65.368,134.167 65.183,134.168 65.088 C 134.169 64.994,134.431 64.640,134.751 64.303 C 135.071 63.965,135.333 63.599,135.333 63.489 C 135.333 63.379,135.465 63.168,135.626 63.020 C 135.787 62.871,136.025 62.544,136.154 62.292 C 136.284 62.040,136.452 61.833,136.528 61.833 C 136.604 61.833,136.667 61.755,136.667 61.660 C 136.667 61.472,136.711 61.412,137.584 60.426 C 137.905 60.064,138.167 59.670,138.167 59.551 C 138.167 59.431,138.242 59.333,138.333 59.333 C 138.425 59.333,138.500 59.221,138.500 59.083 C 138.500 58.946,138.575 58.833,138.667 58.833 C 138.758 58.833,138.833 58.715,138.833 58.571 C 138.833 58.294,139.216 57.833,139.447 57.833 C 139.522 57.833,139.763 57.496,139.982 57.083 C 140.201 56.671,140.444 56.333,140.523 56.333 C 140.602 56.333,140.667 56.232,140.667 56.108 C 140.667 55.984,140.892 55.647,141.167 55.360 C 141.442 55.072,141.667 54.764,141.667 54.676 C 141.667 54.587,141.854 54.328,142.083 54.098 C 142.313 53.869,142.500 53.615,142.500 53.532 C 142.500 53.450,142.725 53.147,143.000 52.860 C 143.329 52.515,143.500 52.165,143.500 51.835 L 143.500 51.333 140.037 51.333 C 136.383 51.333,136.000 51.417,136.000 52.215 C 136.000 52.331,135.850 52.535,135.667 52.667 C 135.483 52.799,135.333 53.024,135.333 53.167 C 135.333 53.310,135.183 53.535,135.000 53.667 C 134.817 53.799,134.667 54.078,134.667 54.287 C 134.667 54.496,134.586 54.667,134.488 54.667 C 134.256 54.667,133.974 54.971,133.680 55.542 C 133.550 55.794,133.381 56.000,133.305 56.000 C 133.229 56.000,133.167 56.112,133.167 56.250 C 133.167 56.387,133.092 56.500,133.000 56.500 C 132.908 56.500,132.833 56.633,132.833 56.797 C 132.833 56.960,132.683 57.201,132.500 57.333 C 132.317 57.465,132.167 57.666,132.167 57.779 C 132.167 57.891,132.073 58.043,131.958 58.117 C 131.843 58.190,131.637 58.475,131.500 58.750 C 131.362 59.025,131.119 59.395,130.958 59.573 C 130.798 59.751,130.667 59.995,130.667 60.115 C 130.667 60.235,130.592 60.333,130.500 60.333 C 130.408 60.333,130.333 60.483,130.333 60.667 C 130.333 60.850,130.258 61.000,130.167 61.000 C 130.075 61.000,130.000 61.112,130.000 61.250 C 130.000 61.387,129.887 61.500,129.750 61.500 C 129.612 61.500,129.500 61.364,129.500 61.198 C 129.500 61.032,129.350 60.735,129.167 60.538 C 128.983 60.342,128.833 60.082,128.833 59.960 C 128.833 59.839,128.683 59.632,128.500 59.500 C 128.317 59.368,128.167 59.134,128.167 58.981 C 128.167 58.827,127.980 58.525,127.753 58.309 C 127.525 58.093,127.338 57.839,127.336 57.745 C 127.335 57.651,127.183 57.465,127.000 57.333 C 126.817 57.201,126.667 56.974,126.667 56.828 C 126.667 56.682,126.517 56.402,126.333 56.205 C 126.150 56.008,126.000 55.766,126.000 55.666 C 126.000 55.566,125.831 55.304,125.625 55.084 C 125.000 54.415,124.833 54.189,124.833 54.007 C 124.833 53.911,124.758 53.833,124.667 53.833 C 124.575 53.833,124.500 53.740,124.500 53.625 C 124.500 53.510,124.314 53.201,124.088 52.938 C 123.861 52.675,123.631 52.318,123.577 52.146 C 123.522 51.974,123.408 51.833,123.322 51.833 C 123.237 51.833,123.167 51.721,123.167 51.583 C 123.167 51.369,122.657 51.333,119.583 51.333 L 116.000 51.333 116.000 51.880 M145.000 63.917 L 145.000 76.500 155.417 76.500 L 165.833 76.500 165.833 73.833 L 165.833 71.167 158.667 71.167 L 151.500 71.167 151.500 68.417 L 151.500 65.667 155.417 65.667 L 159.333 65.667 159.333 63.000 L 159.333 60.333 155.417 60.333 L 151.500 60.333 151.500 58.583 L 151.500 56.833 158.250 56.833 L 165.000 56.833 165.000 54.083 L 165.000 51.333 155.000 51.333 L 145.000 51.333 145.000 63.917 M237.167 63.917 L 237.167 76.500 245.500 76.500 C 250.944 76.500,253.833 76.442,253.833 76.333 C 253.833 76.242,254.090 76.167,254.405 76.167 C 254.719 76.167,255.089 76.054,255.226 75.917 C 255.364 75.779,255.632 75.667,255.821 75.667 C 256.011 75.667,256.167 75.592,256.167 75.500 C 256.167 75.408,256.317 75.333,256.500 75.333 C 256.683 75.333,256.833 75.258,256.833 75.167 C 256.833 75.075,256.956 75.000,257.105 75.000 C 257.255 75.000,257.499 74.867,257.647 74.704 C 257.795 74.541,258.127 74.274,258.384 74.111 C 258.641 73.948,258.898 73.687,258.956 73.532 C 259.013 73.377,259.197 73.129,259.363 72.980 C 259.530 72.832,259.667 72.588,259.667 72.439 C 259.667 72.289,259.742 72.167,259.833 72.167 C 259.925 72.167,260.000 72.017,260.000 71.833 C 260.000 71.650,260.075 71.500,260.167 71.500 C 260.258 71.500,260.333 71.169,260.333 70.764 C 260.333 70.340,260.418 70.000,260.533 69.961 C 260.669 69.916,260.733 69.418,260.733 68.417 C 260.733 67.415,260.669 66.917,260.533 66.872 C 260.423 66.836,260.333 66.549,260.333 66.236 C 260.333 65.923,260.258 65.667,260.167 65.667 C 260.075 65.667,260.000 65.553,260.000 65.415 C 260.000 65.080,258.095 63.167,257.761 63.167 C 257.362 63.167,257.444 62.965,258.083 62.379 C 258.404 62.085,258.667 61.745,258.667 61.625 C 258.667 61.505,258.817 61.299,259.000 61.167 C 259.196 61.026,259.333 60.735,259.333 60.463 C 259.333 60.208,259.408 60.000,259.500 60.000 C 259.601 60.000,259.667 59.281,259.667 58.177 C 259.667 57.141,259.595 56.309,259.500 56.250 C 259.408 56.193,259.333 55.964,259.333 55.740 C 259.333 55.516,259.258 55.333,259.167 55.333 C 259.075 55.333,259.000 55.215,259.000 55.071 C 259.000 54.772,258.611 54.333,258.345 54.333 C 258.247 54.333,258.167 54.256,258.167 54.161 C 258.167 53.892,257.041 52.833,256.756 52.833 C 256.615 52.833,256.500 52.758,256.500 52.667 C 256.500 52.575,256.313 52.500,256.083 52.500 C 255.854 52.500,255.667 52.425,255.667 52.333 C 255.667 52.242,255.474 52.167,255.238 52.167 C 255.002 52.167,254.697 52.054,254.560 51.917 C 254.413 51.770,254.005 51.667,253.571 51.667 C 253.165 51.667,252.833 51.592,252.833 51.500 C 252.833 51.391,250.111 51.333,245.000 51.333 L 237.167 51.333 237.167 63.917 M271.708 51.442 C 271.594 51.489,271.500 51.747,271.500 52.014 C 271.500 52.281,271.425 52.500,271.333 52.500 C 271.242 52.500,271.167 52.650,271.167 52.833 C 271.167 53.017,271.092 53.167,271.000 53.167 C 270.908 53.167,270.833 53.312,270.833 53.490 C 270.833 53.668,270.758 53.860,270.667 53.917 C 270.575 53.973,270.500 54.133,270.500 54.272 C 270.500 54.410,270.387 54.636,270.250 54.774 C 270.112 54.911,270.000 55.168,270.000 55.345 C 270.000 55.522,269.925 55.667,269.833 55.667 C 269.742 55.667,269.667 55.812,269.667 55.990 C 269.667 56.168,269.592 56.360,269.500 56.417 C 269.408 56.473,269.333 56.665,269.333 56.843 C 269.333 57.021,269.258 57.167,269.167 57.167 C 269.075 57.167,269.000 57.318,269.000 57.502 C 269.000 57.687,268.925 57.987,268.833 58.169 C 268.742 58.351,268.592 58.649,268.500 58.831 C 268.408 59.013,268.333 59.276,268.333 59.414 C 268.333 59.553,268.258 59.667,268.167 59.667 C 268.075 59.667,268.000 59.785,268.000 59.929 C 268.000 60.073,267.887 60.303,267.750 60.440 C 267.612 60.578,267.500 60.873,267.500 61.095 C 267.500 61.318,267.425 61.500,267.333 61.500 C 267.242 61.500,267.167 61.650,267.167 61.833 C 267.167 62.017,267.092 62.167,267.000 62.167 C 266.908 62.167,266.833 62.317,266.833 62.500 C 266.833 62.683,266.758 62.833,266.667 62.833 C 266.575 62.833,266.500 63.021,266.500 63.250 C 266.500 63.479,266.425 63.667,266.333 63.667 C 266.242 63.667,266.167 63.892,266.167 64.167 C 266.167 64.442,266.092 64.667,266.000 64.667 C 265.908 64.667,265.833 64.810,265.833 64.986 C 265.833 65.162,265.777 65.331,265.708 65.361 C 265.640 65.392,265.444 65.717,265.273 66.083 C 265.103 66.450,264.896 66.880,264.815 67.039 C 264.733 67.199,264.667 67.442,264.667 67.581 C 264.667 67.720,264.592 67.833,264.500 67.833 C 264.408 67.833,264.333 68.021,264.333 68.250 C 264.333 68.479,264.258 68.667,264.167 68.667 C 264.075 68.667,264.000 68.817,264.000 69.000 C 264.000 69.183,263.925 69.333,263.833 69.333 C 263.742 69.333,263.667 69.558,263.667 69.833 C 263.667 70.108,263.592 70.333,263.500 70.333 C 263.408 70.333,263.333 70.521,263.333 70.750 C 263.333 71.009,263.239 71.167,263.083 71.167 C 262.944 71.167,262.833 71.315,262.833 71.500 C 262.833 71.683,262.758 71.833,262.667 71.833 C 262.575 71.833,262.500 72.016,262.500 72.240 C 262.500 72.464,262.425 72.693,262.333 72.750 C 262.242 72.807,262.167 73.036,262.167 73.260 C 262.167 73.484,262.092 73.667,262.000 73.667 C 261.908 73.667,261.833 73.817,261.833 74.000 C 261.833 74.183,261.758 74.333,261.667 74.333 C 261.575 74.333,261.500 74.483,261.500 74.667 C 261.500 74.850,261.425 75.000,261.333 75.000 C 261.242 75.000,261.167 75.339,261.167 75.754 L 261.167 76.507 264.458 76.462 L 267.750 76.417 267.909 75.875 C 267.997 75.577,268.128 75.333,268.201 75.333 C 268.274 75.333,268.333 75.188,268.333 75.010 C 268.333 74.832,268.408 74.640,268.500 74.583 C 268.592 74.527,268.667 74.302,268.667 74.083 C 268.667 73.865,268.742 73.640,268.833 73.583 C 268.925 73.527,269.000 73.335,269.000 73.157 C 269.000 72.979,269.075 72.833,269.167 72.833 C 269.258 72.833,269.333 72.608,269.333 72.333 C 269.333 72.058,269.408 71.833,269.500 71.833 C 269.592 71.833,269.667 71.646,269.667 71.417 L 269.667 71.000 274.474 71.000 C 279.633 71.000,279.833 71.033,279.833 71.888 C 279.833 72.041,279.908 72.167,280.000 72.167 C 280.092 72.167,280.167 72.392,280.167 72.667 C 280.167 72.942,280.242 73.167,280.333 73.167 C 280.425 73.167,280.500 73.354,280.500 73.583 C 280.500 73.813,280.575 74.000,280.667 74.000 C 280.758 74.000,280.833 74.183,280.833 74.407 C 280.833 74.631,280.908 74.860,281.000 74.917 C 281.092 74.973,281.167 75.165,281.167 75.343 C 281.167 75.521,281.242 75.667,281.333 75.667 C 281.425 75.667,281.500 75.854,281.500 76.083 L 281.500 76.500 285.005 76.500 C 288.142 76.500,288.522 76.470,288.619 76.218 C 288.679 76.061,288.640 75.908,288.530 75.871 C 288.422 75.835,288.333 75.624,288.333 75.403 C 288.333 75.181,288.258 75.000,288.167 75.000 C 288.075 75.000,288.000 74.850,288.000 74.667 C 288.000 74.483,287.925 74.333,287.833 74.333 C 287.742 74.333,287.667 74.108,287.667 73.833 C 287.667 73.558,287.592 73.333,287.500 73.333 C 287.408 73.333,287.333 73.193,287.333 73.020 C 287.333 72.848,287.221 72.614,287.083 72.500 C 286.946 72.386,286.833 72.189,286.833 72.063 C 286.833 71.937,286.758 71.833,286.667 71.833 C 286.575 71.833,286.500 71.608,286.500 71.333 C 286.500 71.058,286.425 70.833,286.333 70.833 C 286.242 70.833,286.167 70.646,286.167 70.417 C 286.167 70.188,286.092 70.000,286.000 70.000 C 285.908 70.000,285.833 69.850,285.833 69.667 C 285.833 69.483,285.758 69.333,285.667 69.333 C 285.575 69.333,285.500 69.188,285.500 69.010 C 285.500 68.832,285.425 68.640,285.333 68.583 C 285.242 68.527,285.167 68.346,285.167 68.182 C 285.167 67.791,284.685 66.833,284.488 66.833 C 284.403 66.833,284.333 66.646,284.333 66.417 C 284.333 66.188,284.258 66.000,284.167 66.000 C 284.075 66.000,284.000 65.817,284.000 65.593 C 284.000 65.369,283.925 65.140,283.833 65.083 C 283.742 65.027,283.667 64.835,283.667 64.657 C 283.667 64.479,283.592 64.333,283.500 64.333 C 283.408 64.333,283.333 64.146,283.333 63.917 C 283.333 63.688,283.258 63.500,283.167 63.500 C 283.075 63.500,283.000 63.350,283.000 63.167 C 283.000 62.983,282.925 62.833,282.833 62.833 C 282.742 62.833,282.667 62.709,282.667 62.556 C 282.667 62.182,282.136 61.000,281.968 61.000 C 281.894 61.000,281.833 60.850,281.833 60.667 C 281.833 60.483,281.758 60.333,281.667 60.333 C 281.575 60.333,281.500 60.108,281.500 59.833 C 281.500 59.558,281.425 59.333,281.333 59.333 C 281.242 59.333,281.167 59.188,281.167 59.010 C 281.167 58.832,281.092 58.640,281.000 58.583 C 280.908 58.527,280.833 58.335,280.833 58.157 C 280.833 57.979,280.758 57.833,280.667 57.833 C 280.575 57.833,280.500 57.688,280.500 57.510 C 280.500 57.332,280.425 57.140,280.333 57.083 C 280.242 57.027,280.167 56.840,280.167 56.669 C 280.167 56.497,280.054 56.245,279.917 56.107 C 279.779 55.970,279.667 55.739,279.667 55.595 C 279.667 55.451,279.592 55.333,279.500 55.333 C 279.408 55.333,279.333 55.183,279.333 55.000 C 279.333 54.817,279.258 54.667,279.167 54.667 C 279.075 54.667,279.000 54.442,279.000 54.167 C 279.000 53.892,278.925 53.667,278.833 53.667 C 278.742 53.667,278.667 53.479,278.667 53.250 C 278.667 53.021,278.592 52.833,278.500 52.833 C 278.408 52.833,278.333 52.683,278.333 52.500 C 278.333 52.317,278.264 52.167,278.178 52.167 C 278.093 52.167,277.999 51.998,277.970 51.792 C 277.918 51.427,272.480 51.124,271.708 51.442 M290.278 51.444 C 290.217 51.506,290.167 57.170,290.167 64.031 L 290.167 76.507 293.375 76.462 L 296.583 76.417 296.627 69.125 C 296.655 64.456,296.729 61.833,296.835 61.833 C 296.926 61.833,297.000 61.953,297.000 62.100 C 297.000 62.246,297.225 62.576,297.500 62.833 C 297.775 63.090,298.000 63.394,298.000 63.508 C 298.000 63.623,298.262 63.971,298.583 64.283 C 298.904 64.594,299.167 64.910,299.167 64.983 C 299.167 65.057,299.392 65.353,299.667 65.640 C 299.942 65.928,300.167 66.239,300.167 66.332 C 300.167 66.424,300.223 66.500,300.293 66.500 C 300.362 66.500,300.518 66.725,300.640 67.000 C 300.762 67.275,300.935 67.500,301.026 67.500 C 301.244 67.500,301.667 67.930,301.667 68.153 C 301.667 68.339,302.000 68.783,302.625 69.430 C 302.831 69.644,303.000 69.902,303.000 70.004 C 303.000 70.204,303.407 70.667,303.583 70.667 C 303.777 70.667,304.167 71.138,304.167 71.372 C 304.167 71.498,304.429 71.888,304.750 72.238 C 305.071 72.589,305.333 72.935,305.333 73.008 C 305.333 73.081,305.633 73.443,306.000 73.814 C 306.367 74.184,306.667 74.572,306.667 74.677 C 306.667 74.781,306.873 75.067,307.125 75.313 C 307.377 75.559,307.666 75.908,307.768 76.088 C 307.939 76.393,308.167 76.420,310.893 76.462 L 313.833 76.508 313.833 63.921 L 313.833 51.333 310.750 51.333 L 307.667 51.333 307.667 58.667 C 307.667 63.444,307.609 66.000,307.500 66.000 C 307.408 66.000,307.333 65.880,307.333 65.734 C 307.333 65.587,307.108 65.257,306.833 65.000 C 306.558 64.743,306.333 64.448,306.333 64.345 C 306.333 64.241,306.221 64.113,306.083 64.060 C 305.946 64.008,305.833 63.876,305.833 63.769 C 305.833 63.662,305.683 63.465,305.500 63.333 C 305.317 63.201,305.167 63.012,305.167 62.912 C 305.167 62.813,304.904 62.445,304.583 62.095 C 304.262 61.745,304.000 61.402,304.000 61.332 C 304.000 61.263,303.700 60.898,303.333 60.520 C 302.967 60.142,302.667 59.753,302.667 59.655 C 302.667 59.556,302.573 59.381,302.458 59.266 C 302.344 59.150,302.100 58.848,301.917 58.595 C 301.733 58.341,301.265 57.792,300.875 57.374 C 300.485 56.956,300.167 56.528,300.167 56.423 C 300.167 56.253,299.710 55.679,298.672 54.548 C 298.486 54.345,298.333 54.101,298.333 54.006 C 298.333 53.911,298.258 53.833,298.167 53.833 C 298.075 53.833,298.000 53.721,298.000 53.583 C 298.000 53.446,297.925 53.333,297.833 53.333 C 297.742 53.333,297.667 53.258,297.667 53.165 C 297.667 53.073,297.444 52.764,297.172 52.479 C 296.900 52.194,296.632 51.820,296.577 51.647 C 296.476 51.328,290.584 51.138,290.278 51.444 M318.500 63.917 L 318.500 76.500 321.667 76.500 L 324.833 76.500 324.835 72.958 L 324.836 69.417 325.793 68.398 C 326.319 67.837,327.174 66.919,327.692 66.356 C 328.210 65.794,328.722 65.333,328.829 65.333 C 329.035 65.333,329.500 65.737,329.500 65.916 C 329.500 65.974,329.688 66.268,329.917 66.569 C 330.146 66.869,330.333 67.201,330.333 67.307 C 330.333 67.413,330.408 67.500,330.500 67.500 C 330.592 67.500,330.667 67.598,330.667 67.719 C 330.667 67.839,330.817 68.098,331.000 68.295 C 331.183 68.492,331.333 68.768,331.333 68.910 C 331.333 69.051,331.408 69.167,331.500 69.167 C 331.592 69.167,331.667 69.245,331.667 69.340 C 331.667 69.522,331.833 69.749,332.458 70.417 C 332.665 70.638,332.833 70.920,332.833 71.044 C 332.833 71.169,332.983 71.431,333.167 71.628 C 333.350 71.825,333.500 72.067,333.500 72.167 C 333.500 72.266,333.650 72.508,333.833 72.705 C 334.017 72.902,334.167 73.153,334.167 73.264 C 334.167 73.374,334.279 73.508,334.417 73.560 C 334.554 73.613,334.667 73.771,334.667 73.911 C 334.667 74.052,334.742 74.167,334.833 74.167 C 334.925 74.167,335.000 74.279,335.000 74.417 C 335.000 74.554,335.075 74.667,335.167 74.667 C 335.258 74.667,335.333 74.789,335.333 74.939 C 335.333 75.088,335.474 75.333,335.647 75.483 C 335.819 75.632,335.989 75.904,336.024 76.086 C 336.086 76.407,336.252 76.418,341.794 76.461 L 347.500 76.504 347.500 76.086 C 347.500 75.855,347.575 75.667,347.667 75.667 C 347.758 75.667,347.833 75.517,347.833 75.333 C 347.833 75.150,347.908 75.000,348.000 75.000 C 348.092 75.000,348.167 74.817,348.167 74.593 C 348.167 74.369,348.242 74.140,348.333 74.083 C 348.425 74.027,348.500 73.797,348.500 73.573 C 348.500 73.350,348.561 73.167,348.635 73.167 C 348.709 73.167,348.902 72.848,349.064 72.458 C 349.226 72.069,349.441 71.581,349.541 71.375 L 349.723 71.000 354.528 71.000 L 359.333 71.000 359.333 71.417 C 359.333 71.646,359.408 71.833,359.500 71.833 C 359.592 71.833,359.667 71.979,359.667 72.157 C 359.667 72.335,359.742 72.527,359.833 72.583 C 359.925 72.640,360.000 72.869,360.000 73.093 C 360.000 73.317,360.075 73.500,360.167 73.500 C 360.258 73.500,360.333 73.688,360.333 73.917 C 360.333 74.176,360.428 74.333,360.583 74.333 C 360.750 74.333,360.833 74.500,360.833 74.833 C 360.833 75.108,360.908 75.333,361.000 75.333 C 361.092 75.333,361.167 75.489,361.167 75.679 C 361.167 76.444,361.427 76.500,364.988 76.500 L 368.333 76.500 368.333 76.097 C 368.333 75.671,367.837 74.670,367.625 74.668 C 367.556 74.667,367.500 74.484,367.500 74.260 C 367.500 74.036,367.425 73.807,367.333 73.750 C 367.242 73.693,367.167 73.464,367.167 73.240 C 367.167 73.016,367.092 72.833,367.000 72.833 C 366.908 72.833,366.833 72.683,366.833 72.500 C 366.833 72.317,366.758 72.167,366.667 72.167 C 366.575 72.167,366.500 72.017,366.500 71.833 C 366.500 71.650,366.425 71.500,366.333 71.500 C 366.242 71.500,366.167 71.317,366.167 71.093 C 366.167 70.869,366.092 70.640,366.000 70.583 C 365.908 70.527,365.833 70.332,365.833 70.152 C 365.833 69.971,365.721 69.780,365.583 69.727 C 365.446 69.674,365.333 69.489,365.333 69.316 C 365.333 69.142,365.258 69.000,365.167 69.000 C 365.075 69.000,365.000 68.817,365.000 68.593 C 365.000 68.369,364.925 68.140,364.833 68.083 C 364.742 68.027,364.667 67.797,364.667 67.573 C 364.667 67.350,364.592 67.167,364.500 67.167 C 364.408 67.167,364.333 67.017,364.333 66.833 C 364.333 66.650,364.258 66.500,364.167 66.500 C 364.075 66.500,364.000 66.313,364.000 66.083 C 364.000 65.854,363.925 65.667,363.833 65.667 C 363.742 65.667,363.667 65.528,363.667 65.359 C 363.667 64.959,363.187 64.000,362.988 64.000 C 362.903 64.000,362.833 63.813,362.833 63.583 C 362.833 63.354,362.758 63.167,362.667 63.167 C 362.575 63.167,362.500 62.984,362.500 62.760 C 362.500 62.536,362.425 62.307,362.333 62.250 C 362.242 62.193,362.167 62.001,362.167 61.823 C 362.167 61.646,362.092 61.500,362.000 61.500 C 361.908 61.500,361.833 61.313,361.833 61.083 C 361.833 60.854,361.758 60.667,361.667 60.667 C 361.575 60.667,361.500 60.517,361.500 60.333 C 361.500 60.150,361.425 60.000,361.333 60.000 C 361.242 60.000,361.167 59.856,361.167 59.680 C 361.167 59.338,360.666 58.287,360.458 58.194 C 360.390 58.164,360.333 57.995,360.333 57.819 C 360.333 57.644,360.258 57.500,360.167 57.500 C 360.075 57.500,360.000 57.275,360.000 57.000 C 360.000 56.725,359.925 56.500,359.833 56.500 C 359.742 56.500,359.667 56.313,359.667 56.083 C 359.667 55.854,359.592 55.667,359.500 55.667 C 359.408 55.667,359.333 55.517,359.333 55.333 C 359.333 55.150,359.258 55.000,359.167 55.000 C 359.075 55.000,359.000 54.854,359.000 54.677 C 359.000 54.499,358.925 54.307,358.833 54.250 C 358.742 54.193,358.667 54.007,358.667 53.835 C 358.667 53.664,358.554 53.411,358.417 53.274 C 358.279 53.136,358.167 52.906,358.167 52.762 C 358.167 52.618,358.092 52.500,358.000 52.500 C 357.908 52.500,357.831 52.369,357.828 52.208 C 357.813 51.396,357.569 51.333,354.440 51.333 C 352.460 51.333,351.500 51.392,351.500 51.512 C 351.500 51.610,351.387 51.803,351.250 51.940 C 351.113 52.078,351.000 52.335,351.000 52.512 C 351.000 52.689,350.925 52.833,350.833 52.833 C 350.742 52.833,350.667 52.983,350.667 53.167 C 350.667 53.350,350.592 53.500,350.500 53.500 C 350.408 53.500,350.333 53.688,350.333 53.917 C 350.333 54.146,350.258 54.333,350.167 54.333 C 350.075 54.333,350.000 54.516,350.000 54.740 C 350.000 54.964,349.925 55.193,349.833 55.250 C 349.742 55.307,349.667 55.499,349.667 55.677 C 349.667 55.854,349.592 56.000,349.500 56.000 C 349.408 56.000,349.333 56.188,349.333 56.417 C 349.333 56.646,349.258 56.833,349.167 56.833 C 349.075 56.833,349.000 56.951,349.000 57.095 C 349.000 57.239,348.887 57.470,348.750 57.607 C 348.613 57.745,348.500 58.002,348.500 58.179 C 348.500 58.355,348.425 58.500,348.333 58.500 C 348.242 58.500,348.167 58.688,348.167 58.917 C 348.167 59.146,348.092 59.333,348.000 59.333 C 347.908 59.333,347.833 59.483,347.833 59.667 C 347.833 59.850,347.758 60.000,347.667 60.000 C 347.575 60.000,347.500 60.188,347.500 60.417 C 347.500 60.646,347.425 60.833,347.333 60.833 C 347.242 60.833,347.167 61.058,347.167 61.333 C 347.167 61.608,347.092 61.833,347.000 61.833 C 346.908 61.833,346.833 61.983,346.833 62.167 C 346.833 62.350,346.758 62.500,346.667 62.500 C 346.575 62.500,346.500 62.618,346.500 62.762 C 346.500 62.906,346.397 63.127,346.271 63.253 C 346.145 63.379,345.941 63.823,345.818 64.241 C 345.695 64.658,345.535 65.000,345.464 65.000 C 345.392 65.000,345.333 65.150,345.333 65.333 C 345.333 65.517,345.258 65.667,345.167 65.667 C 345.075 65.667,345.000 65.854,345.000 66.083 C 345.000 66.313,344.925 66.500,344.833 66.500 C 344.742 66.500,344.667 66.725,344.667 67.000 C 344.667 67.275,344.592 67.500,344.500 67.500 C 344.408 67.500,344.333 67.642,344.333 67.816 C 344.333 67.989,344.221 68.174,344.083 68.227 C 343.946 68.280,343.833 68.475,343.833 68.661 C 343.833 68.848,343.772 69.000,343.697 69.000 C 343.622 69.000,343.458 69.375,343.333 69.833 C 343.209 70.292,343.045 70.667,342.970 70.667 C 342.895 70.667,342.833 70.854,342.833 71.083 C 342.833 71.313,342.758 71.500,342.667 71.500 C 342.575 71.500,342.500 71.650,342.500 71.833 C 342.500 72.017,342.425 72.167,342.333 72.167 C 342.242 72.167,342.167 72.354,342.167 72.583 C 342.167 72.813,342.108 73.000,342.037 73.000 C 341.843 73.000,341.333 72.361,341.333 72.118 C 341.333 72.002,341.183 71.799,341.000 71.667 C 340.817 71.535,340.667 71.307,340.667 71.161 C 340.667 71.015,340.517 70.735,340.333 70.538 C 340.150 70.342,340.000 70.097,340.000 69.995 C 340.000 69.759,339.579 69.333,339.345 69.333 C 339.247 69.333,339.165 69.202,339.163 69.042 C 339.161 68.881,339.013 68.563,338.833 68.333 C 338.654 68.104,338.506 67.823,338.504 67.708 C 338.502 67.594,338.425 67.500,338.333 67.500 C 338.242 67.500,338.167 67.402,338.167 67.281 C 338.167 67.161,338.017 66.902,337.833 66.705 C 337.650 66.508,337.500 66.237,337.500 66.102 C 337.500 65.968,337.313 65.710,337.083 65.530 C 336.854 65.350,336.667 65.098,336.667 64.971 C 336.667 64.844,336.517 64.632,336.333 64.500 C 336.150 64.368,336.000 64.140,336.000 63.995 C 336.000 63.849,335.850 63.569,335.667 63.372 C 335.483 63.175,335.333 62.936,335.333 62.842 C 335.333 62.685,334.919 62.137,334.375 61.573 C 334.260 61.454,334.167 61.244,334.167 61.105 C 334.167 60.966,334.092 60.807,334.000 60.750 C 333.629 60.521,333.914 60.108,335.684 58.303 C 336.702 57.266,337.996 55.904,338.559 55.276 C 339.122 54.649,340.052 53.647,340.625 53.049 C 342.289 51.312,342.322 51.333,338.058 51.333 L 334.449 51.333 331.558 54.278 C 329.968 55.898,328.667 57.284,328.667 57.357 C 328.667 57.431,327.852 58.307,326.856 59.304 C 325.859 60.301,325.003 61.222,324.952 61.350 C 324.901 61.478,324.854 59.277,324.846 56.458 L 324.833 51.333 321.667 51.333 L 318.500 51.333 318.500 63.917 M393.743 51.542 C 393.700 51.656,393.683 57.300,393.707 64.083 L 393.750 76.417 396.875 76.462 L 400.000 76.507 400.000 63.920 L 400.000 51.333 396.911 51.333 C 394.594 51.333,393.803 51.385,393.743 51.542 M67.083 57.000 C 67.140 57.092,67.444 57.167,67.760 57.167 C 68.075 57.167,68.333 57.242,68.333 57.333 C 68.333 57.425,68.449 57.500,68.591 57.500 C 69.031 57.500,69.667 58.277,69.667 58.816 C 69.667 59.090,69.742 59.360,69.834 59.417 C 69.945 59.486,69.945 59.624,69.834 59.832 C 69.742 60.004,69.667 60.337,69.667 60.572 C 69.667 60.808,69.592 61.000,69.500 61.000 C 69.408 61.000,69.333 61.085,69.333 61.189 C 69.333 61.524,68.430 62.166,67.958 62.166 C 67.706 62.167,67.500 62.242,67.500 62.333 C 67.500 62.440,66.028 62.500,63.417 62.500 L 59.333 62.500 59.333 59.667 L 59.333 56.833 63.157 56.833 C 65.526 56.833,67.020 56.897,67.083 57.000 M252.600 57.400 C 253.406 58.206,253.319 60.000,252.473 60.000 C 252.305 60.000,252.167 60.075,252.167 60.167 C 252.167 60.258,251.942 60.333,251.667 60.333 C 251.392 60.333,251.167 60.408,251.167 60.500 C 251.167 60.606,249.778 60.667,247.333 60.667 L 243.500 60.667 243.500 58.750 L 243.500 56.833 247.767 56.833 L 252.033 56.833 252.600 57.400 M354.667 59.833 C 354.667 60.108,354.742 60.333,354.833 60.333 C 354.925 60.333,355.000 60.516,355.000 60.740 C 355.000 60.964,355.075 61.193,355.167 61.250 C 355.258 61.307,355.333 61.536,355.333 61.760 C 355.333 61.984,355.408 62.167,355.500 62.167 C 355.592 62.167,355.667 62.311,355.667 62.488 C 355.667 62.665,355.779 62.922,355.917 63.060 C 356.054 63.197,356.167 63.427,356.167 63.571 C 356.167 63.715,356.242 63.833,356.333 63.833 C 356.425 63.833,356.500 64.054,356.500 64.323 C 356.500 64.593,356.575 64.860,356.667 64.917 C 356.758 64.973,356.833 65.165,356.833 65.343 C 356.833 65.649,356.697 65.667,354.333 65.667 C 352.778 65.667,351.833 65.604,351.833 65.500 C 351.833 65.408,351.908 65.333,352.000 65.333 C 352.092 65.333,352.167 65.188,352.167 65.010 C 352.167 64.832,352.242 64.640,352.333 64.583 C 352.425 64.527,352.500 64.260,352.500 63.990 C 352.500 63.721,352.575 63.500,352.667 63.500 C 352.758 63.500,352.833 63.350,352.833 63.167 C 352.833 62.983,352.908 62.833,353.000 62.833 C 353.092 62.833,353.167 62.608,353.167 62.333 C 353.167 62.058,353.242 61.833,353.333 61.833 C 353.425 61.833,353.500 61.693,353.500 61.520 C 353.500 61.348,353.613 61.114,353.750 61.000 C 353.887 60.886,354.000 60.614,354.000 60.396 C 354.000 60.178,354.075 60.000,354.167 60.000 C 354.258 60.000,354.333 59.850,354.333 59.667 C 354.333 59.483,354.408 59.333,354.500 59.333 C 354.592 59.333,354.667 59.558,354.667 59.833 M275.167 60.410 C 275.167 60.551,275.242 60.667,275.333 60.667 C 275.425 60.667,275.500 60.887,275.500 61.157 C 275.500 61.426,275.575 61.693,275.667 61.750 C 275.758 61.807,275.833 61.999,275.833 62.177 C 275.833 62.354,275.908 62.500,276.000 62.500 C 276.092 62.500,276.167 62.725,276.167 63.000 C 276.167 63.275,276.242 63.500,276.333 63.500 C 276.425 63.500,276.500 63.688,276.500 63.917 C 276.500 64.146,276.575 64.333,276.667 64.333 C 276.758 64.333,276.833 64.516,276.833 64.740 C 276.833 64.964,276.908 65.193,277.000 65.250 C 277.511 65.566,276.947 65.667,274.667 65.667 C 272.278 65.667,272.167 65.652,272.167 65.333 C 272.167 65.150,272.242 65.000,272.333 65.000 C 272.425 65.000,272.500 64.845,272.500 64.655 C 272.500 64.465,272.612 64.197,272.750 64.060 C 272.887 63.922,273.000 63.665,273.000 63.488 C 273.000 63.311,273.075 63.167,273.167 63.167 C 273.258 63.167,273.333 63.021,273.333 62.843 C 273.333 62.665,273.408 62.473,273.500 62.417 C 273.592 62.360,273.667 62.093,273.667 61.823 C 273.667 61.554,273.742 61.333,273.833 61.333 C 273.925 61.333,274.000 61.182,274.000 60.998 C 274.000 60.813,274.070 60.532,274.155 60.373 C 274.239 60.214,274.354 59.940,274.409 59.765 C 274.529 59.385,275.167 59.927,275.167 60.410 M252.167 65.833 C 252.167 65.925,252.273 66.000,252.403 66.000 C 253.071 66.000,254.000 66.940,254.000 67.617 C 254.000 67.736,254.075 67.833,254.167 67.833 C 254.258 67.833,254.333 68.096,254.333 68.417 C 254.333 68.737,254.258 69.000,254.167 69.000 C 254.075 69.000,254.000 69.150,254.000 69.333 C 254.000 69.517,253.925 69.667,253.833 69.667 C 253.742 69.667,253.665 69.760,253.663 69.875 C 253.662 69.990,253.243 70.327,252.733 70.625 L 251.807 71.167 247.653 71.167 L 243.500 71.167 243.500 68.417 L 243.500 65.667 247.833 65.667 C 250.611 65.667,252.167 65.726,252.167 65.833 " stroke="none" fill="#0454a4" fill-rule="evenodd"></path></g></svg>