<svg id="svg" version="1.1" xmlns="http://www.w3.org/2000/svg" xmlns:xlink="http://www.w3.org/1999/xlink" width="400" height="91.50326797385623" viewBox="0, 0, 400,91.50326797385623"><g id="svgg"><path id="path0" d="M42.583 2.513 C 39.139 2.789,36.629 3.250,33.000 4.275 C 8.896 11.082,-4.049 38.915,5.805 62.750 C 10.466 74.026,21.535 83.987,33.000 87.225 C 38.041 88.649,40.704 89.029,41.603 88.453 C 41.959 88.225,43.375 87.380,44.750 86.576 C 46.125 85.771,48.290 84.487,49.560 83.723 C 50.831 82.959,51.894 82.333,51.923 82.333 C 51.952 82.333,52.562 81.973,53.279 81.533 C 54.494 80.788,55.167 80.442,55.167 80.560 C 55.167 80.588,54.604 82.306,53.917 84.378 C 53.229 86.451,52.667 88.226,52.667 88.323 C 52.667 88.585,53.095 88.544,55.103 88.089 C 77.526 83.010,92.030 61.798,88.590 39.114 C 85.223 16.916,64.878 0.730,42.583 2.513 M47.183 7.000 C 48.533 8.764,51.393 12.523,53.360 15.119 C 55.268 17.638,55.286 18.221,53.607 23.179 C 53.004 24.960,52.092 27.654,51.581 29.167 C 51.069 30.679,50.582 32.067,50.498 32.250 C 50.414 32.433,50.008 33.596,49.595 34.833 C 49.182 36.071,48.272 38.733,47.572 40.750 C 46.871 42.767,46.219 44.660,46.121 44.958 C 45.929 45.547,45.591 45.673,45.451 45.208 C 45.403 45.048,44.755 43.154,44.010 41.000 C 43.265 38.846,42.392 36.296,42.071 35.333 C 41.750 34.371,41.419 33.433,41.335 33.250 C 41.188 32.927,40.810 31.826,37.994 23.500 C 36.134 18.005,36.147 17.682,38.342 14.833 C 39.013 13.963,40.358 12.200,41.332 10.917 C 42.306 9.633,43.660 7.851,44.343 6.955 C 45.817 5.020,45.665 5.018,47.183 7.000 M28.083 21.727 C 30.302 22.319,31.269 23.226,32.910 26.250 C 33.258 26.892,33.823 27.904,34.165 28.500 C 34.818 29.635,35.377 30.635,36.219 32.167 C 36.496 32.671,37.747 34.921,39.000 37.167 C 40.253 39.412,41.526 41.700,41.828 42.250 C 42.131 42.800,42.668 43.749,43.021 44.359 C 43.374 44.969,43.741 45.673,43.836 45.923 L 44.008 46.377 43.546 46.071 C 43.291 45.903,42.258 45.245,41.250 44.610 C 40.242 43.974,38.876 43.089,38.216 42.644 C 37.555 42.198,36.977 41.833,36.930 41.833 C 36.883 41.833,35.998 41.283,34.964 40.611 C 33.930 39.938,31.696 38.504,30.000 37.424 C 28.304 36.344,26.392 35.117,25.750 34.699 C 20.256 31.115,19.791 30.963,14.083 30.875 C 11.700 30.838,9.687 30.747,9.609 30.672 C 9.532 30.597,11.595 29.263,14.193 27.708 C 16.791 26.152,19.517 24.510,20.250 24.058 C 24.381 21.512,25.752 21.104,28.083 21.727 M67.037 21.804 C 68.155 22.173,82.077 30.492,81.885 30.677 C 81.811 30.749,79.800 30.839,77.417 30.876 C 71.884 30.964,71.203 31.164,66.833 33.992 C 65.871 34.615,63.696 36.009,62.000 37.089 C 60.304 38.170,57.958 39.679,56.786 40.443 C 55.615 41.208,54.618 41.833,54.570 41.833 C 54.523 41.833,53.945 42.198,53.284 42.644 C 52.624 43.089,51.258 43.974,50.250 44.610 C 49.242 45.245,48.209 45.903,47.954 46.071 L 47.492 46.377 47.673 45.899 C 47.774 45.636,47.991 45.195,48.157 44.919 C 48.323 44.643,48.656 44.060,48.896 43.625 C 49.137 43.190,49.521 42.496,49.750 42.083 C 49.979 41.671,50.354 40.996,50.583 40.583 C 50.813 40.171,51.199 39.477,51.441 39.042 C 54.319 33.877,55.025 32.606,55.494 31.750 C 55.795 31.200,56.172 30.525,56.333 30.250 C 56.494 29.975,56.812 29.412,57.039 29.000 C 57.267 28.587,57.625 27.950,57.836 27.583 C 58.046 27.217,58.418 26.542,58.663 26.083 C 60.756 22.160,63.643 20.684,67.037 21.804 M327.246 27.931 C 326.194 28.993,325.333 29.950,325.333 30.059 C 325.333 30.285,329.013 34.000,329.237 34.000 C 329.459 34.000,333.167 30.298,333.167 30.076 C 333.167 29.886,329.436 26.000,329.254 26.000 C 329.202 26.000,328.299 26.869,327.246 27.931 M317.789 27.961 C 315.607 30.150,315.598 29.854,317.918 32.168 L 319.835 34.080 321.874 32.041 L 323.913 30.002 322.001 28.084 C 319.686 25.763,319.972 25.771,317.789 27.961 M112.708 47.622 L 112.750 65.250 116.500 65.250 L 120.250 65.250 120.333 58.000 L 120.417 50.750 123.333 50.700 C 126.865 50.639,129.371 50.886,130.035 51.358 C 130.912 51.983,130.911 51.972,131.000 58.833 L 131.083 65.250 134.917 65.250 L 138.750 65.250 138.798 60.000 C 138.893 49.718,138.469 47.503,136.102 45.902 C 135.220 45.305,132.988 44.502,132.200 44.497 C 131.357 44.493,131.216 44.268,131.607 43.551 C 132.652 41.631,133.061 40.900,133.173 40.750 C 133.242 40.658,133.506 40.208,133.760 39.750 C 134.013 39.292,135.300 37.018,136.620 34.697 C 137.939 32.376,139.061 30.369,139.112 30.236 C 139.192 30.028,138.583 30.001,134.749 30.039 L 130.294 30.083 129.075 32.203 C 128.405 33.368,127.638 34.718,127.370 35.203 C 127.102 35.687,126.721 36.365,126.525 36.708 C 126.328 37.052,126.017 37.596,125.833 37.917 C 125.650 38.237,125.339 38.781,125.141 39.125 C 124.692 39.909,123.945 41.240,123.083 42.795 L 122.417 43.998 121.377 43.999 L 120.337 44.000 120.293 37.042 L 120.250 30.083 116.458 30.039 L 112.665 29.994 112.708 47.622 M284.333 33.333 L 284.333 36.667 288.916 36.667 L 293.498 36.667 293.541 50.958 L 293.583 65.250 297.250 65.295 C 300.550 65.336,300.937 65.312,301.125 65.055 C 301.288 64.832,301.333 61.704,301.333 50.718 L 301.333 36.667 305.833 36.667 L 310.333 36.667 310.333 33.333 L 310.333 30.000 297.333 30.000 L 284.333 30.000 284.333 33.333 M144.707 50.958 L 144.750 65.250 156.906 65.293 C 166.521 65.327,169.090 65.292,169.195 65.126 C 169.268 65.011,169.329 58.560,169.331 50.792 L 169.333 36.667 165.500 36.667 L 161.667 36.667 161.667 47.633 C 161.667 55.941,161.618 58.648,161.467 58.800 C 161.321 58.946,160.052 59.000,156.800 59.000 L 152.333 59.000 152.333 47.833 L 152.333 36.667 148.499 36.667 L 144.665 36.667 144.707 50.958 M175.167 43.742 C 175.167 47.847,175.238 51.188,175.336 51.700 C 175.429 52.186,175.585 52.996,175.682 53.500 C 176.334 56.879,178.158 60.049,181.371 63.388 L 183.250 65.340 187.500 65.339 L 191.750 65.338 193.395 63.627 C 196.473 60.426,197.852 58.269,198.806 55.166 C 199.744 52.112,199.720 52.377,199.796 44.292 L 199.867 36.667 196.017 36.667 L 192.167 36.667 192.167 43.343 C 192.167 47.450,192.099 50.320,191.990 50.801 C 191.542 52.782,191.413 53.169,190.771 54.478 C 190.278 55.482,189.729 56.251,188.808 57.228 L 187.530 58.583 186.755 57.833 C 185.126 56.256,183.992 54.454,183.317 52.370 C 182.972 51.307,182.950 50.880,182.878 43.958 L 182.801 36.667 178.984 36.667 L 175.167 36.667 175.167 43.742 M205.707 50.958 L 205.750 65.250 216.122 65.293 L 226.493 65.336 226.586 64.960 C 226.637 64.753,226.657 63.346,226.631 61.833 L 226.583 59.083 220.092 59.040 C 215.153 59.006,213.569 58.947,213.469 58.790 C 213.316 58.548,213.286 54.651,213.434 54.264 C 213.524 54.030,214.217 54.000,219.522 54.000 L 225.507 54.000 225.462 50.875 L 225.417 47.750 219.370 47.706 L 213.324 47.662 213.370 45.373 L 213.417 43.083 219.833 43.000 L 226.250 42.917 226.295 39.792 L 226.341 36.667 216.003 36.667 L 205.665 36.667 205.707 50.958 M231.205 42.625 C 231.272 48.806,231.282 48.904,232.043 50.464 C 232.939 52.299,235.314 53.634,238.211 53.931 C 239.744 54.088,239.656 53.740,239.706 59.848 L 239.750 65.250 243.500 65.250 L 247.250 65.250 247.333 59.667 L 247.417 54.085 248.417 53.963 C 254.241 53.252,255.831 50.517,255.833 41.208 L 255.833 36.667 252.016 36.667 L 248.199 36.667 248.141 41.125 C 248.059 47.493,248.116 47.417,243.387 47.417 C 238.887 47.417,238.935 47.482,238.867 41.238 L 238.818 36.667 234.980 36.667 L 231.141 36.667 231.205 42.625 M260.205 39.958 L 260.250 43.250 263.833 43.333 L 267.417 43.417 267.500 54.333 L 267.583 65.250 271.333 65.250 L 275.083 65.250 275.126 54.295 L 275.169 43.340 278.793 43.295 L 282.417 43.250 282.462 39.958 L 282.507 36.667 271.333 36.667 L 260.160 36.667 260.205 39.958 M312.211 47.875 C 312.298 61.215,312.318 61.368,314.217 63.118 C 317.137 65.810,328.547 66.439,333.025 64.154 C 336.631 62.314,337.000 60.674,337.000 46.463 L 337.000 36.667 333.167 36.667 L 329.333 36.667 329.332 45.542 C 329.330 59.265,329.512 58.750,324.667 58.750 C 321.734 58.750,321.072 58.559,320.377 57.517 L 320.000 56.951 320.000 46.809 L 320.000 36.667 316.069 36.667 L 312.139 36.667 312.211 47.875 M342.833 51.003 L 342.833 65.340 346.625 65.295 L 350.417 65.250 350.500 61.083 L 350.583 56.917 352.075 56.917 L 353.568 56.917 355.373 59.417 C 356.365 60.792,357.488 62.367,357.868 62.917 C 358.248 63.467,358.817 64.235,359.133 64.625 L 359.707 65.333 364.020 65.333 C 368.957 65.333,368.695 65.453,367.490 63.750 C 365.425 60.830,364.940 60.151,363.857 58.667 C 362.445 56.730,362.376 56.833,365.093 56.833 L 367.333 56.833 367.333 46.750 L 367.333 36.667 355.083 36.667 L 342.833 36.667 342.833 51.003 M373.207 50.958 L 373.250 65.250 377.000 65.250 L 380.750 65.250 380.794 59.848 C 380.824 56.200,380.898 54.373,381.023 54.223 C 381.254 53.944,387.338 53.909,389.000 54.177 C 391.454 54.572,391.543 54.786,391.658 60.583 L 391.750 65.250 395.500 65.250 L 399.250 65.250 399.302 60.083 C 399.396 50.863,398.611 49.200,393.587 47.973 C 392.806 47.782,392.167 47.557,392.167 47.473 C 392.167 47.349,394.752 43.690,399.051 37.730 C 399.390 37.261,399.667 36.830,399.667 36.772 C 399.667 36.714,397.660 36.668,395.208 36.669 L 390.750 36.672 386.950 42.003 L 383.151 47.333 381.992 47.333 L 380.833 47.333 380.833 42.000 L 380.833 36.667 376.999 36.667 L 373.165 36.667 373.207 50.958 M21.917 37.582 C 23.258 38.020,27.890 40.273,34.333 43.621 C 35.571 44.265,37.933 45.482,39.583 46.328 C 41.233 47.173,42.693 47.970,42.827 48.099 C 43.037 48.300,40.382 48.333,23.952 48.333 C 12.649 48.333,4.833 48.272,4.833 48.182 C 4.833 48.099,5.077 47.731,5.375 47.364 C 5.673 46.997,6.254 46.271,6.667 45.751 C 7.079 45.230,7.494 44.717,7.589 44.610 C 7.683 44.504,8.390 43.629,9.159 42.667 C 13.533 37.196,16.773 35.904,21.917 37.582 M76.036 37.331 C 77.406 37.754,79.155 38.981,80.406 40.398 C 82.307 42.549,86.656 48.049,86.569 48.190 C 86.520 48.269,77.919 48.333,67.454 48.333 C 51.144 48.333,48.463 48.300,48.673 48.100 C 48.807 47.972,50.117 47.249,51.583 46.494 C 53.050 45.739,55.225 44.617,56.417 44.000 C 62.820 40.686,67.516 38.320,68.299 38.012 C 70.991 36.955,73.970 36.693,76.036 37.331 M359.583 46.750 L 359.583 50.083 355.083 50.083 L 350.583 50.083 350.538 46.922 C 350.513 45.183,350.530 43.663,350.575 43.544 C 350.641 43.373,351.586 43.337,355.121 43.372 L 359.583 43.417 359.583 46.750 M40.542 52.826 C 44.087 54.962,44.024 54.869,42.625 55.846 C 42.052 56.247,41.208 56.857,40.750 57.203 C 39.480 58.162,39.556 58.240,38.030 54.412 C 36.539 50.670,36.445 50.319,37.042 50.703 C 37.248 50.835,38.823 51.791,40.542 52.826 M55.167 50.731 C 55.167 50.767,54.675 52.210,54.075 53.940 C 53.474 55.669,52.954 57.170,52.919 57.276 C 52.853 57.477,51.829 58.222,50.833 58.794 C 50.512 58.978,49.369 59.662,48.293 60.314 C 47.217 60.966,46.268 61.500,46.185 61.500 C 45.842 61.500,41.833 58.916,41.833 58.695 C 41.833 58.626,44.440 57.001,47.625 55.084 C 50.810 53.168,53.750 51.390,54.158 51.133 C 54.844 50.701,55.167 50.572,55.167 50.731 M49.971 50.979 C 50.186 51.115,49.811 51.481,48.324 52.583 C 48.077 52.767,47.453 53.245,46.937 53.645 L 45.999 54.374 44.708 53.484 C 43.998 52.995,43.095 52.350,42.701 52.052 C 42.308 51.753,41.858 51.433,41.701 51.341 C 41.042 50.952,41.976 50.838,45.833 50.838 C 47.987 50.838,49.849 50.901,49.971 50.979 M55.167 58.377 C 55.167 58.493,54.634 59.974,53.984 61.669 C 53.333 63.363,52.762 64.881,52.714 65.042 C 52.573 65.516,52.525 65.493,49.292 63.391 C 47.929 62.505,47.925 62.658,49.333 61.751 C 49.975 61.338,51.024 60.663,51.665 60.250 C 52.305 59.837,52.886 59.496,52.956 59.492 C 53.026 59.487,53.496 59.191,54.000 58.833 C 54.999 58.125,55.167 58.059,55.167 58.377 M37.792 58.864 C 38.090 59.030,38.577 59.307,38.875 59.479 C 39.173 59.651,41.179 60.801,43.333 62.036 C 45.487 63.271,47.512 64.436,47.833 64.626 C 48.154 64.816,48.754 65.157,49.167 65.385 C 50.197 65.955,50.164 66.138,48.873 66.995 C 48.255 67.405,47.368 68.024,46.902 68.370 C 45.921 69.098,45.634 69.134,44.833 68.635 C 44.512 68.435,43.053 67.548,41.590 66.664 L 38.929 65.057 38.614 64.153 C 37.546 61.096,36.667 58.514,36.667 58.435 C 36.667 58.315,37.119 58.487,37.792 58.864 M54.936 66.208 C 54.818 66.598,54.353 68.031,53.902 69.393 L 53.083 71.869 49.750 74.125 C 45.679 76.881,46.285 76.782,44.000 75.072 C 41.737 73.380,41.741 73.387,42.870 72.732 C 43.354 72.451,45.325 71.263,47.250 70.091 C 49.175 68.920,51.012 67.811,51.333 67.628 C 51.654 67.444,52.116 67.153,52.359 66.980 C 52.602 66.808,52.851 66.667,52.912 66.667 C 52.973 66.667,53.337 66.453,53.720 66.191 C 54.376 65.744,54.764 65.543,55.034 65.513 C 55.098 65.506,55.054 65.819,54.936 66.208 M38.044 66.224 C 38.524 66.531,39.404 67.083,40.000 67.451 C 43.073 69.348,43.667 69.734,43.667 69.837 C 43.667 70.041,39.805 72.525,39.606 72.448 C 39.438 72.384,36.833 66.129,36.833 65.790 C 36.833 65.549,37.184 65.674,38.044 66.224 M54.413 75.095 C 52.972 78.836,52.627 79.671,52.488 79.757 C 52.346 79.845,48.511 77.410,48.300 77.098 C 48.235 77.001,48.492 76.731,48.884 76.484 C 50.163 75.678,53.237 73.772,54.167 73.208 C 55.352 72.490,55.368 72.615,54.413 75.095 M38.882 74.231 C 40.001 74.907,42.117 76.193,43.583 77.088 C 45.050 77.982,47.070 79.210,48.072 79.815 C 49.074 80.421,49.918 80.992,49.947 81.084 C 49.992 81.223,48.295 82.433,47.750 82.650 C 47.658 82.686,47.270 82.930,46.887 83.191 C 46.174 83.677,45.690 83.784,45.408 83.516 C 45.258 83.372,44.867 83.144,43.167 82.206 C 42.754 81.978,42.192 81.661,41.917 81.500 C 41.642 81.339,40.967 80.965,40.417 80.668 C 38.991 79.899,38.949 79.838,38.028 77.167 C 37.570 75.837,37.076 74.422,36.931 74.021 C 36.458 72.716,36.360 72.705,38.882 74.231 M38.000 81.226 C 38.688 81.623,39.925 82.347,40.750 82.834 C 41.575 83.322,42.531 83.877,42.874 84.068 C 43.723 84.543,43.673 84.684,42.375 85.506 C 41.756 85.897,40.857 86.469,40.378 86.776 C 39.310 87.458,39.406 87.463,39.023 86.708 C 38.699 86.068,36.500 80.730,36.500 80.582 C 36.500 80.403,36.801 80.532,38.000 81.226 " stroke="none" fill="#05644c" fill-rule="evenodd"></path><path id="path1" d="M44.343 6.955 C 43.660 7.851,42.306 9.633,41.332 10.917 C 40.358 12.200,39.013 13.963,38.342 14.833 C 36.147 17.682,36.134 18.005,37.994 23.500 C 40.810 31.826,41.188 32.927,41.335 33.250 C 41.419 33.433,41.750 34.371,42.071 35.333 C 42.392 36.296,43.265 38.846,44.010 41.000 C 44.755 43.154,45.403 45.048,45.451 45.208 C 45.591 45.673,45.929 45.547,46.121 44.958 C 46.219 44.660,46.871 42.767,47.572 40.750 C 48.272 38.733,49.182 36.071,49.595 34.833 C 50.008 33.596,50.414 32.433,50.498 32.250 C 50.582 32.067,51.069 30.679,51.581 29.167 C 52.092 27.654,53.004 24.960,53.607 23.179 C 55.286 18.221,55.268 17.638,53.360 15.119 C 51.393 12.523,48.533 8.764,47.183 7.000 C 45.665 5.018,45.817 5.020,44.343 6.955 M24.417 21.808 C 23.547 22.106,22.497 22.673,20.250 24.058 C 19.517 24.510,16.791 26.152,14.193 27.708 C 11.595 29.263,9.532 30.597,9.609 30.672 C 9.687 30.747,11.700 30.838,14.083 30.875 C 19.791 30.963,20.256 31.115,25.750 34.699 C 26.392 35.117,28.304 36.344,30.000 37.424 C 31.696 38.504,33.930 39.938,34.964 40.611 C 35.998 41.283,36.883 41.833,36.930 41.833 C 36.977 41.833,37.555 42.198,38.216 42.644 C 38.876 43.089,40.242 43.974,41.250 44.610 C 42.258 45.245,43.291 45.903,43.546 46.071 L 44.008 46.377 43.836 45.923 C 43.741 45.673,43.374 44.969,43.021 44.359 C 42.668 43.749,42.131 42.800,41.828 42.250 C 41.526 41.700,40.253 39.412,39.000 37.167 C 37.747 34.921,36.496 32.671,36.219 32.167 C 35.377 30.635,34.818 29.635,34.165 28.500 C 33.823 27.904,33.258 26.892,32.910 26.250 C 31.938 24.459,31.542 23.873,30.869 23.231 C 29.262 21.698,26.513 21.091,24.417 21.808 M63.333 21.737 C 61.191 22.329,60.147 23.300,58.663 26.083 C 58.418 26.542,58.046 27.217,57.836 27.583 C 57.625 27.950,57.267 28.587,57.039 29.000 C 56.812 29.412,56.494 29.975,56.333 30.250 C 56.172 30.525,55.795 31.200,55.494 31.750 C 55.025 32.606,54.319 33.877,51.441 39.042 C 51.199 39.477,50.813 40.171,50.583 40.583 C 50.354 40.996,49.979 41.671,49.750 42.083 C 49.521 42.496,49.137 43.190,48.896 43.625 C 48.656 44.060,48.323 44.643,48.157 44.919 C 47.991 45.195,47.774 45.636,47.673 45.899 L 47.492 46.377 47.954 46.071 C 48.209 45.903,49.242 45.245,50.250 44.610 C 51.258 43.974,52.624 43.089,53.284 42.644 C 53.945 42.198,54.523 41.833,54.570 41.833 C 54.618 41.833,55.615 41.208,56.786 40.443 C 57.958 39.679,60.304 38.170,62.000 37.089 C 63.696 36.009,65.871 34.615,66.833 33.992 C 71.203 31.164,71.884 30.964,77.417 30.876 C 79.800 30.839,81.811 30.749,81.885 30.677 C 82.077 30.492,68.155 22.173,67.037 21.804 C 65.986 21.458,64.445 21.430,63.333 21.737 M15.443 37.321 C 13.470 37.968,11.738 39.442,9.159 42.667 C 8.390 43.629,7.683 44.504,7.589 44.610 C 7.494 44.717,7.079 45.230,6.667 45.751 C 6.254 46.271,5.673 46.997,5.375 47.364 C 5.077 47.731,4.833 48.099,4.833 48.182 C 4.833 48.272,12.649 48.333,23.952 48.333 C 40.382 48.333,43.037 48.300,42.827 48.099 C 42.693 47.970,41.233 47.173,39.583 46.328 C 37.933 45.482,35.571 44.265,34.333 43.621 C 27.890 40.273,23.258 38.020,21.917 37.582 C 19.935 36.936,16.980 36.816,15.443 37.321 M70.382 37.343 C 68.278 37.909,67.128 38.457,56.417 44.000 C 55.225 44.617,53.050 45.739,51.583 46.494 C 50.117 47.249,48.807 47.972,48.673 48.100 C 48.463 48.300,51.144 48.333,67.454 48.333 C 77.919 48.333,86.520 48.269,86.569 48.190 C 86.656 48.049,82.307 42.549,80.406 40.398 C 77.713 37.349,74.267 36.299,70.382 37.343 M36.667 50.726 C 36.667 51.341,39.397 57.833,39.655 57.833 C 39.799 57.832,40.292 57.549,40.750 57.203 C 41.208 56.857,42.052 56.247,42.625 55.846 C 44.024 54.869,44.087 54.962,40.542 52.826 C 38.823 51.791,37.248 50.835,37.042 50.703 C 36.709 50.489,36.667 50.492,36.667 50.726 M54.158 51.133 C 53.750 51.390,50.810 53.168,47.625 55.084 C 44.440 57.001,41.833 58.626,41.833 58.695 C 41.833 58.916,45.842 61.500,46.185 61.500 C 46.268 61.500,47.217 60.966,48.293 60.314 C 49.369 59.662,50.512 58.978,50.833 58.794 C 51.829 58.222,52.853 57.477,52.919 57.276 C 52.954 57.170,53.474 55.669,54.075 53.940 C 55.414 50.084,55.406 50.347,54.158 51.133 M41.667 51.006 C 41.448 51.152,41.452 51.194,41.701 51.341 C 41.858 51.433,42.308 51.753,42.701 52.052 C 43.095 52.350,43.998 52.995,44.708 53.484 L 45.999 54.374 46.937 53.645 C 47.453 53.245,48.077 52.767,48.324 52.583 C 49.811 51.481,50.186 51.115,49.971 50.979 C 49.652 50.776,41.972 50.801,41.667 51.006 M54.000 58.833 C 53.496 59.191,53.026 59.487,52.956 59.492 C 52.886 59.496,52.305 59.837,51.665 60.250 C 47.501 62.931,47.858 62.459,49.292 63.391 C 52.525 65.493,52.573 65.516,52.714 65.042 C 52.762 64.881,53.333 63.363,53.984 61.669 C 55.502 57.714,55.502 57.768,54.000 58.833 M36.667 58.435 C 36.667 58.514,37.546 61.096,38.614 64.153 L 38.929 65.057 41.590 66.664 C 43.053 67.548,44.512 68.435,44.833 68.635 C 45.634 69.134,45.921 69.098,46.902 68.370 C 47.368 68.024,48.255 67.405,48.873 66.995 C 50.164 66.138,50.197 65.955,49.167 65.385 C 48.754 65.157,48.154 64.816,47.833 64.626 C 47.512 64.436,45.487 63.271,43.333 62.036 C 41.179 60.801,39.173 59.651,38.875 59.479 C 37.225 58.528,36.667 58.264,36.667 58.435 M54.667 65.621 C 54.529 65.673,54.103 65.930,53.720 66.191 C 53.337 66.453,52.973 66.667,52.912 66.667 C 52.851 66.667,52.602 66.808,52.359 66.980 C 52.116 67.153,51.654 67.444,51.333 67.628 C 51.012 67.811,49.175 68.920,47.250 70.091 C 45.325 71.263,43.354 72.451,42.870 72.732 C 41.741 73.387,41.737 73.380,44.000 75.072 C 46.285 76.782,45.679 76.881,49.750 74.125 L 53.083 71.869 53.902 69.393 C 55.285 65.213,55.246 65.401,54.667 65.621 M36.833 65.790 C 36.833 66.129,39.438 72.384,39.606 72.448 C 39.805 72.525,43.667 70.041,43.667 69.837 C 43.667 69.734,43.073 69.348,40.000 67.451 C 39.404 67.083,38.524 66.531,38.044 66.224 C 37.184 65.674,36.833 65.549,36.833 65.790 M54.167 73.208 C 53.237 73.772,50.163 75.678,48.884 76.484 C 48.018 77.030,47.990 76.991,50.383 78.557 C 52.651 80.041,52.477 80.052,53.137 78.377 C 55.513 72.350,55.503 72.398,54.167 73.208 M36.667 73.146 C 36.667 73.226,36.786 73.620,36.931 74.021 C 37.076 74.422,37.570 75.837,38.028 77.167 C 38.949 79.838,38.991 79.899,40.417 80.668 C 40.967 80.965,41.642 81.339,41.917 81.500 C 42.192 81.661,42.754 81.978,43.167 82.206 C 44.867 83.144,45.258 83.372,45.408 83.516 C 45.690 83.784,46.174 83.677,46.887 83.191 C 47.270 82.930,47.658 82.686,47.750 82.650 C 48.295 82.433,49.992 81.223,49.947 81.084 C 49.918 80.992,49.074 80.421,48.072 79.815 C 47.070 79.210,45.050 77.982,43.583 77.088 C 36.574 72.812,36.667 72.865,36.667 73.146 M36.500 80.582 C 36.500 80.730,38.699 86.068,39.023 86.708 C 39.406 87.463,39.310 87.458,40.378 86.776 C 40.857 86.469,41.756 85.897,42.375 85.506 C 43.673 84.684,43.723 84.543,42.874 84.068 C 42.531 83.877,41.575 83.322,40.750 82.834 C 36.924 80.576,36.500 80.351,36.500 80.582 M54.659 80.730 C 54.434 80.850,53.837 81.195,53.333 81.497 C 52.829 81.799,52.192 82.174,51.917 82.330 C 51.642 82.486,50.479 83.176,49.333 83.862 C 48.188 84.549,46.125 85.771,44.750 86.578 C 43.375 87.385,41.992 88.200,41.678 88.388 L 41.105 88.732 41.594 88.883 C 42.929 89.296,49.219 89.184,51.891 88.699 L 52.532 88.583 53.848 84.596 C 55.281 80.252,55.247 80.418,54.659 80.730 " stroke="none" fill="#b28304" fill-rule="evenodd"></path><path id="path2" d="M0.000 45.750 L 0.000 91.500 200.000 91.500 L 400.000 91.500 400.000 45.750 L 400.000 0.000 200.000 0.000 L 0.000 0.000 0.000 45.750 M48.500 2.500 C 85.622 5.244,102.611 49.583,76.683 76.057 C 67.757 85.171,53.136 90.674,42.264 89.012 C 41.706 88.926,40.575 88.771,39.750 88.666 C 37.475 88.376,35.837 88.026,33.000 87.225 C 17.959 82.977,5.684 69.005,3.006 53.083 C -0.602 31.631,12.683 10.013,33.000 4.275 C 38.708 2.663,43.412 2.124,48.500 2.500 M331.257 27.942 C 332.307 29.010,333.167 29.970,333.167 30.076 C 333.167 30.298,329.459 34.000,329.237 34.000 C 329.013 34.000,325.333 30.285,325.333 30.059 C 325.333 29.866,329.068 26.000,329.254 26.000 C 329.305 26.000,330.207 26.874,331.257 27.942 M322.001 28.084 L 323.913 30.002 321.874 32.041 L 319.835 34.080 317.918 32.168 C 315.598 29.854,315.607 30.150,317.789 27.961 C 319.972 25.771,319.686 25.763,322.001 28.084 M120.293 37.042 L 120.337 44.000 121.377 43.999 L 122.417 43.998 123.083 42.795 C 123.945 41.240,124.692 39.909,125.141 39.125 C 125.339 38.781,125.650 38.237,125.833 37.917 C 126.017 37.596,126.328 37.052,126.525 36.708 C 126.721 36.365,127.102 35.687,127.370 35.203 C 127.638 34.718,128.405 33.368,129.075 32.203 L 130.294 30.083 134.749 30.039 C 138.583 30.001,139.192 30.028,139.112 30.236 C 139.061 30.369,137.939 32.376,136.620 34.697 C 135.300 37.018,134.013 39.292,133.760 39.750 C 133.506 40.208,133.242 40.658,133.173 40.750 C 133.061 40.900,132.652 41.631,131.607 43.551 C 131.216 44.268,131.357 44.493,132.200 44.497 C 132.988 44.502,135.220 45.305,136.102 45.902 C 138.469 47.503,138.893 49.718,138.798 60.000 L 138.750 65.250 134.917 65.250 L 131.083 65.250 131.000 58.833 C 130.911 51.972,130.912 51.983,130.035 51.358 C 129.371 50.886,126.865 50.639,123.333 50.700 L 120.417 50.750 120.333 58.000 L 120.250 65.250 116.500 65.250 L 112.750 65.250 112.708 47.622 L 112.665 29.994 116.458 30.039 L 120.250 30.083 120.293 37.042 M310.333 33.333 L 310.333 36.667 305.833 36.667 L 301.333 36.667 301.333 50.718 C 301.333 61.704,301.288 64.832,301.125 65.055 C 300.937 65.312,300.550 65.336,297.250 65.295 L 293.583 65.250 293.541 50.958 L 293.498 36.667 288.916 36.667 L 284.333 36.667 284.333 33.333 L 284.333 30.000 297.333 30.000 L 310.333 30.000 310.333 33.333 M152.333 47.833 L 152.333 59.000 156.800 59.000 C 160.052 59.000,161.321 58.946,161.467 58.800 C 161.618 58.648,161.667 55.941,161.667 47.633 L 161.667 36.667 165.500 36.667 L 169.333 36.667 169.331 50.792 C 169.329 58.560,169.268 65.011,169.195 65.126 C 169.090 65.292,166.521 65.327,156.906 65.293 L 144.750 65.250 144.707 50.958 L 144.665 36.667 148.499 36.667 L 152.333 36.667 152.333 47.833 M182.878 43.958 C 182.950 50.880,182.972 51.307,183.317 52.370 C 183.992 54.454,185.126 56.256,186.755 57.833 L 187.530 58.583 188.808 57.228 C 189.729 56.251,190.278 55.482,190.771 54.478 C 191.413 53.169,191.542 52.782,191.990 50.801 C 192.099 50.320,192.167 47.450,192.167 43.343 L 192.167 36.667 196.017 36.667 L 199.867 36.667 199.796 44.292 C 199.720 52.377,199.744 52.112,198.806 55.166 C 197.852 58.269,196.473 60.426,193.395 63.627 L 191.750 65.338 187.500 65.339 L 183.250 65.340 181.371 63.388 C 178.158 60.049,176.334 56.879,175.682 53.500 C 175.585 52.996,175.429 52.186,175.336 51.700 C 175.238 51.188,175.167 47.847,175.167 43.742 L 175.167 36.667 178.984 36.667 L 182.801 36.667 182.878 43.958 M226.295 39.792 L 226.250 42.917 219.833 43.000 L 213.417 43.083 213.370 45.373 L 213.324 47.662 219.370 47.706 L 225.417 47.750 225.462 50.875 L 225.507 54.000 219.522 54.000 C 214.217 54.000,213.524 54.030,213.434 54.264 C 213.286 54.651,213.316 58.548,213.469 58.790 C 213.569 58.947,215.153 59.006,220.092 59.040 L 226.583 59.083 226.631 61.833 C 226.657 63.346,226.637 64.753,226.586 64.960 L 226.493 65.336 216.122 65.293 L 205.750 65.250 205.707 50.958 L 205.665 36.667 216.003 36.667 L 226.341 36.667 226.295 39.792 M238.867 41.238 C 238.935 47.482,238.887 47.417,243.387 47.417 C 248.116 47.417,248.059 47.493,248.141 41.125 L 248.199 36.667 252.016 36.667 L 255.833 36.667 255.833 41.208 C 255.831 50.517,254.241 53.252,248.417 53.963 L 247.417 54.085 247.333 59.667 L 247.250 65.250 243.500 65.250 L 239.750 65.250 239.706 59.848 C 239.656 53.740,239.744 54.088,238.211 53.931 C 235.314 53.634,232.939 52.299,232.043 50.464 C 231.282 48.904,231.272 48.806,231.205 42.625 L 231.141 36.667 234.980 36.667 L 238.818 36.667 238.867 41.238 M282.462 39.958 L 282.417 43.250 278.793 43.295 L 275.169 43.340 275.126 54.295 L 275.083 65.250 271.333 65.250 L 267.583 65.250 267.500 54.333 L 267.417 43.417 263.833 43.333 L 260.250 43.250 260.205 39.958 L 260.160 36.667 271.333 36.667 L 282.507 36.667 282.462 39.958 M320.000 46.809 L 320.000 56.951 320.377 57.517 C 321.072 58.559,321.734 58.750,324.667 58.750 C 329.512 58.750,329.330 59.265,329.332 45.542 L 329.333 36.667 333.167 36.667 L 337.000 36.667 337.000 46.463 C 337.000 59.727,336.814 60.944,334.457 63.113 C 332.453 64.957,330.422 65.423,324.500 65.400 C 316.305 65.367,313.618 64.181,312.558 60.130 C 312.321 59.224,312.274 57.576,312.211 47.875 L 312.139 36.667 316.069 36.667 L 320.000 36.667 320.000 46.809 M367.333 46.750 L 367.333 56.833 365.093 56.833 C 362.376 56.833,362.445 56.730,363.857 58.667 C 364.940 60.151,365.425 60.830,367.490 63.750 C 368.695 65.453,368.957 65.333,364.020 65.333 L 359.707 65.333 359.133 64.625 C 358.817 64.235,358.248 63.467,357.868 62.917 C 357.488 62.367,356.365 60.792,355.373 59.417 L 353.568 56.917 352.075 56.917 L 350.583 56.917 350.500 61.083 L 350.417 65.250 346.625 65.295 L 342.833 65.340 342.833 51.003 L 342.833 36.667 355.083 36.667 L 367.333 36.667 367.333 46.750 M380.833 42.000 L 380.833 47.333 381.992 47.333 L 383.151 47.333 386.950 42.003 L 390.750 36.672 395.208 36.669 C 397.660 36.668,399.667 36.714,399.667 36.772 C 399.667 36.830,399.390 37.261,399.051 37.730 C 394.752 43.690,392.167 47.349,392.167 47.473 C 392.167 47.557,392.806 47.782,393.587 47.973 C 398.611 49.200,399.396 50.863,399.302 60.083 L 399.250 65.250 395.500 65.250 L 391.750 65.250 391.658 60.583 C 391.543 54.786,391.454 54.572,389.000 54.177 C 387.338 53.909,381.254 53.944,381.023 54.223 C 380.898 54.373,380.824 56.200,380.794 59.848 L 380.750 65.250 377.000 65.250 L 373.250 65.250 373.207 50.958 L 373.165 36.667 376.999 36.667 L 380.833 36.667 380.833 42.000 M350.575 43.544 C 350.530 43.663,350.513 45.183,350.538 46.922 L 350.583 50.083 355.083 50.083 L 359.583 50.083 359.583 46.750 L 359.583 43.417 355.121 43.372 C 351.586 43.337,350.641 43.373,350.575 43.544 " stroke="none" fill="#fbfbfb" fill-rule="evenodd"></path></g></svg>