<?xml version="1.0" encoding="utf-8"?>
<!-- Generator: Adobe Illustrator 19.2.1, SVG Export Plug-In . SVG Version: 6.00 Build 0)  -->
<svg version="1.1" baseProfile="tiny" id="Layer_1" xmlns="http://www.w3.org/2000/svg" xmlns:xlink="http://www.w3.org/1999/xlink"
	 x="0px" y="0px" viewBox="0 0 206.7 59.3" xml:space="preserve">
<g>
	<path fill-rule="evenodd" fill="#EC008C" d="M11.5,39.3c-0.4,2.9-0.7,5.1-0.7,5.1H3.5c0,0,0.3-2.2,0.8-5.1L11.5,39.3L11.5,39.3z
		 M25.7,39.3c-0.4,2.9-0.8,5.1-0.8,5.1h-7.2c0,0,0.3-2.2,0.8-5.1L25.7,39.3L25.7,39.3z M40,39.3c-0.4,2.9-0.7,5.1-0.7,5.1h-7.3
		c0,0,0.3-2.2,0.7-5.1L40,39.3L40,39.3z M49.5,39.3c0.6,0.5,1.5,0.8,2.7,0.9c1.6,0.1,3.2-0.4,4.3-0.9l8,0c-0.1,0.9-0.2,1.5-0.2,1.5
		l-1.8,1.4c-2.3,1.7-5.4,2.6-9.2,2.9c-3.8,0.3-8.7-0.6-10.5-4.8c-0.2-0.3-0.3-0.7-0.4-1L49.5,39.3L49.5,39.3z M74.2,39.3
		c-2.7,3.3-6.1,7.5-6.1,7.5l-2.4-5.9c0,0,0.5-0.6,1.2-1.6H74.2L74.2,39.3z M90.1,39.3c0.7,1,1.1,1.7,1.1,1.7l0.2-1.7l6.9,0l-0.7,5.1
		h-4l3.6,5.3l-7,5.6c0,0-5.8-10.1-9.2-16L90.1,39.3L90.1,39.3z M108.2,39.3c-0.4,2.9-0.7,5.1-0.7,5.1h-7.3c0,0,0.3-2.2,0.8-5.1
		L108.2,39.3L108.2,39.3z M122.4,39.3c-0.4,2.9-0.8,5.1-0.8,5.1h-7.2c0,0,0.3-2.2,0.8-5.1L122.4,39.3L122.4,39.3z M136.7,39.3
		c-0.4,2.9-0.7,5.1-0.7,5.1h-7.3c0,0,0.3-2.2,0.7-5.1L136.7,39.3L136.7,39.3z M147.4,39.3c0.2,0.4,0.5,0.8,0.9,1
		c1.3,0.6,3.3,0.5,4.2-0.2c0.3-0.2,0.5-0.5,0.8-0.8l7.6,0c-0.6,1.3-1.3,2.5-2.4,3.3c-2.2,1.7-4.5,2.6-10.2,2.6
		c-5.7,0-7.9-3.4-8.3-5.6c0-0.1,0-0.2,0-0.3L147.4,39.3L147.4,39.3z M171.3,39.3c-0.4,2.9-0.7,5.1-0.7,5.1h-7.3c0,0,0.3-2.2,0.8-5.1
		L171.3,39.3L171.3,39.3z M185.4,39.3c-0.4,2.9-0.8,5.1-0.8,5.1h-7.2c0,0,0.3-2.2,0.8-5.1L185.4,39.3L185.4,39.3z M199.7,39.3
		c-0.4,2.9-0.7,5.1-0.7,5.1h-7.3c0,0,0.3-2.2,0.7-5.1L199.7,39.3L199.7,39.3z"/>
	<path fill-rule="evenodd" fill="#EC008C" d="M4.3,39.3c0.8-5.5,2-13.7,2.2-14.7C6.7,22.9,8,20,10,18.4c2-1.6,4.6-2.7,7.8-2.7
		c3.1,0,5,0.8,6,1.3c1.1,0.6,1.7,1.3,1.7,1.3s0.9-0.9,2.6-1.6c1.7-0.7,2.9-1.1,5.6-1.1c2.8,0,5.3,0.9,6.5,2c1.1,1.1,1.5,1.8,1.9,3.7
		c0,0,0.2,1.4-0.1,3.4c-0.2,1.3-1.3,9.2-2.1,14.5l-7.3,0c0.8-5.2,1.8-12.6,1.9-13.3c0.1-1,0.4-3.1-0.3-4c-0.7-0.9-2-1.2-2.9-1.1
		c-1,0.1-2.9,0.4-3.5,3.5c-0.3,2-1.5,9.7-2.3,14.9l-7.3,0c0.8-5.4,2-13.3,2-13.9c0.1-1,0.3-3.2-1-4c-1.3-0.8-3.6-0.6-4.5,0.7
		c-0.9,1.3-1.1,1.9-1.5,3.9c-0.2,1.3-1.2,8.4-2,13.4L4.3,39.3L4.3,39.3z M42.3,39.3c-1.2-4,0.1-8.6,4.8-11
		c5.1-2.6,12.8-2.5,12.8-2.5s0.6-2.3-0.7-3.4c-1.4-1.3-2.9-0.9-6-0.3c-3.2,0.5-6.7,2-6.7,2l0.8-5.8c0,0,2.1-1.5,7.5-2.4
		c5.4-0.8,7.3,0.2,9.7,2c2.4,1.8,2.4,4.8,2.1,6.8c-0.2,1.6-1.6,10.9-2.1,14.6l-8,0c1-0.4,1.6-0.9,1.6-0.9l1.2-7.8
		c0,0-1.6,0.1-2.8,0.2c-1.2,0.1-2.9,0.3-5.2,1.1c-2.3,0.9-3.2,2.6-3.2,4.5c0,1,0.4,2.2,1.3,2.9L42.3,39.3L42.3,39.3z M66.9,39.3
		c2.3-3.2,7.4-10.1,7.5-10.3c0.2-0.3,0.2-0.9,0-1.3c-0.2-0.4-5.4-9.2-5.6-9.7c-0.3-0.5-0.6-1.5-0.1-3.4c0.5-1.9,1.7-2.5,2.2-2.6
		c0.5-0.1,1.1,0.1,1.7,1.1c0.6,1,5.8,8.7,6,9.1c0.2,0.3,0.6,0.4,0.9,0c0.3-0.4,10.8-14.9,11.3-15.6c0.5-0.7,1.8-2.1,3.1-2.3
		c1.2-0.2,2.2,0,3.1,0.6c0.9,0.6,1.6,2,1.5,3.4c-0.2,1.4-0.9,2.6-2.1,4.2c-1.2,1.6-12.3,15-12.6,15.3c-0.3,0.3-0.3,0.8-0.2,1.3
		c0.1,0.4,0.8,1.3,1,1.7c0.2,0.3,3.9,5.7,5.8,8.6l-9.2,0c-1.4-2.4-2.3-4.1-2.4-4.2c-0.2-0.3-0.4-0.7-1,0c-0.2,0.3-1.6,2-3.3,4.1
		L66.9,39.3L66.9,39.3z M91.5,39.3l3.3-22.8h6.9l-3.3,22.8L91.5,39.3L91.5,39.3z M101,39.3c0.8-5.5,2-13.7,2.2-14.7
		c0.2-1.6,1.5-4.5,3.6-6.2c2-1.6,4.6-2.7,7.8-2.7c3.1,0,5,0.8,6,1.3c1.1,0.6,1.7,1.3,1.7,1.3s0.9-0.9,2.6-1.6
		c1.7-0.7,2.9-1.1,5.6-1.1c2.8,0,5.3,0.9,6.5,2c1.1,1.1,1.5,1.8,1.9,3.7c0,0,0.2,1.4-0.1,3.4c-0.2,1.3-1.3,9.2-2.1,14.5l-7.3,0
		c0.8-5.2,1.8-12.6,1.9-13.3c0.1-1,0.4-3.1-0.3-4c-0.7-0.9-2-1.2-2.9-1.1c-1,0.1-2.9,0.4-3.5,3.5c-0.3,2-1.5,9.7-2.3,14.9l-7.3,0
		c0.8-5.4,2-13.3,2-13.9c0.1-1,0.3-3.2-1-4c-1.3-0.8-3.6-0.6-4.5,0.7c-0.9,1.3-1.1,1.9-1.5,3.9c-0.2,1.3-1.2,8.4-2,13.4L101,39.3
		L101,39.3z M139.9,39.3c-0.3-2.1,0-4.1,0.4-7c0.5-3,2.4-15.8,2.4-15.8h7.2c0,0-2.7,18.3-2.9,19.6c-0.1,0.9-0.1,2.2,0.3,3.1
		L139.9,39.3L139.9,39.3z M153.2,39.3c0.5-0.6,1-1.5,1.3-3.1c0.4-2.4,3-19.7,3-19.7h7.1c0,0-2.4,16.8-2.7,18.9
		c-0.1,1.1-0.5,2.5-1.1,3.9L153.2,39.3L153.2,39.3z M164,39.3c0.8-5.5,2-13.7,2.2-14.7c0.2-1.6,1.5-4.5,3.6-6.2
		c2-1.6,4.6-2.7,7.8-2.7c3.1,0,5,0.8,6,1.3c1.1,0.6,1.7,1.3,1.7,1.3s0.9-0.9,2.6-1.6c1.7-0.7,2.9-1.1,5.6-1.1c2.8,0,5.3,0.9,6.5,2
		c1.1,1.1,1.5,1.8,1.9,3.7c0,0,0.2,1.4-0.1,3.4c-0.2,1.3-1.3,9.2-2.1,14.5l-7.3,0c0.8-5.2,1.8-12.6,1.9-13.3c0.1-1,0.4-3.1-0.3-4
		c-0.7-0.9-2-1.2-2.9-1.1c-1,0.1-2.9,0.4-3.5,3.5c-0.3,2-1.5,9.7-2.3,14.9l-7.3,0c0.8-5.4,2-13.3,2-13.9c0.1-1,0.3-3.2-1-4
		c-1.3-0.8-3.6-0.6-4.5,0.7c-0.9,1.3-1.1,1.9-1.5,3.9c-0.2,1.3-1.2,8.4-2,13.4L164,39.3L164,39.3z M76.3,10c0.6-2.9,2.8-5.3,4.9-5.3
		c2.1,0,3.3,2.4,2.7,5.3c-0.6,2.9-2.8,5.3-4.9,5.3C76.9,15.3,75.7,12.9,76.3,10L76.3,10z"/>
</g>
</svg>
