<svg id="svg" version="1.1" xmlns="http://www.w3.org/2000/svg" xmlns:xlink="http://www.w3.org/1999/xlink" width="400" height="208.63309352517985" viewBox="0, 0, 400,208.63309352517985"><g id="svgg"><path id="path0" d="M180.354 36.723 C 180.107 36.823,179.735 37.192,179.527 37.544 C 179.319 37.897,179.073 38.185,178.980 38.185 C 178.888 38.185,178.556 38.584,178.243 39.071 C 177.737 39.859,177.027 40.820,175.274 43.089 C 173.078 45.931,171.576 47.902,171.318 48.278 C 171.150 48.522,170.740 49.042,170.407 49.434 C 169.628 50.350,169.642 53.371,170.431 54.672 C 170.675 55.075,170.985 55.920,171.118 56.550 C 171.252 57.179,171.588 58.145,171.866 58.697 C 172.144 59.248,172.469 60.234,172.589 60.887 C 172.708 61.541,172.978 62.358,173.188 62.702 C 173.398 63.046,173.726 63.933,173.916 64.672 C 174.107 65.411,174.444 66.371,174.666 66.806 C 174.888 67.241,175.213 68.219,175.390 68.980 C 175.566 69.740,175.855 70.582,176.031 70.851 C 176.207 71.120,176.533 72.067,176.755 72.955 C 176.977 73.843,177.287 74.717,177.444 74.896 C 177.602 75.075,177.886 75.917,178.077 76.766 C 178.267 77.615,178.644 78.695,178.915 79.166 C 179.186 79.636,179.474 80.443,179.556 80.960 C 179.947 83.430,181.742 83.737,181.742 81.334 C 181.742 81.069,181.965 80.430,182.237 79.915 C 182.509 79.399,182.885 78.362,183.071 77.609 C 183.258 76.856,183.587 75.870,183.801 75.418 C 184.016 74.966,184.309 74.079,184.453 73.448 C 184.597 72.817,184.888 72.012,185.101 71.659 C 185.313 71.306,185.637 70.367,185.820 69.572 C 186.002 68.777,186.285 67.921,186.449 67.669 C 186.612 67.417,186.944 66.478,187.187 65.582 C 187.430 64.687,187.797 63.672,188.003 63.328 C 188.209 62.984,188.490 62.139,188.628 61.450 C 188.766 60.762,189.049 59.917,189.258 59.572 C 189.466 59.228,189.788 58.336,189.974 57.590 C 190.159 56.844,190.551 55.746,190.845 55.150 C 191.662 53.491,191.692 50.164,190.898 49.310 C 190.597 48.987,190.176 48.440,189.961 48.096 C 189.746 47.752,189.209 47.001,188.768 46.427 C 188.327 45.853,187.637 44.937,187.234 44.392 C 186.832 43.847,186.437 43.401,186.358 43.401 C 186.279 43.401,186.035 43.096,185.816 42.723 C 185.146 41.582,181.152 36.508,180.940 36.529 C 180.865 36.536,180.601 36.623,180.354 36.723 M155.034 56.910 C 153.894 57.088,151.337 58.086,150.559 58.656 C 150.106 58.988,149.636 59.262,149.515 59.265 C 149.395 59.268,148.927 59.550,148.476 59.891 C 148.025 60.232,147.546 60.511,147.411 60.511 C 147.275 60.511,146.734 60.840,146.208 61.242 C 145.682 61.643,145.169 61.972,145.068 61.972 C 144.967 61.972,144.515 62.251,144.064 62.592 C 143.613 62.933,143.137 63.215,143.005 63.218 C 142.873 63.221,142.277 63.552,141.680 63.954 C 141.083 64.356,140.552 64.684,140.500 64.684 C 140.448 64.684,139.789 65.056,139.037 65.509 C 138.285 65.963,137.563 66.374,137.432 66.423 C 137.272 66.483,137.305 66.630,137.534 66.870 C 137.825 67.176,138.385 67.236,141.394 67.281 C 144.329 67.325,145.111 67.405,146.100 67.762 C 146.752 67.998,147.691 68.255,148.186 68.334 C 148.682 68.413,149.429 68.698,149.846 68.968 C 150.263 69.238,150.921 69.606,151.307 69.787 C 151.693 69.967,152.713 70.579,153.573 71.146 C 154.434 71.712,155.420 72.307,155.764 72.467 C 156.109 72.627,156.525 72.920,156.690 73.119 C 156.855 73.318,157.418 73.713,157.942 73.997 C 159.367 74.769,160.386 75.404,160.810 75.785 C 161.019 75.972,161.615 76.345,162.135 76.613 C 162.655 76.880,163.312 77.267,163.595 77.472 C 164.882 78.403,165.641 78.895,166.548 79.383 C 167.085 79.672,167.577 79.995,167.642 80.100 C 167.707 80.205,168.160 80.495,168.648 80.745 C 169.136 80.995,169.639 81.332,169.766 81.495 C 169.892 81.657,170.362 81.943,170.809 82.130 C 171.256 82.316,171.931 82.740,172.308 83.071 C 172.685 83.402,173.071 83.672,173.166 83.672 C 173.261 83.672,173.699 83.959,174.139 84.308 C 175.546 85.426,176.625 84.905,175.522 83.640 C 175.187 83.256,174.844 82.707,174.759 82.420 C 174.675 82.134,174.385 81.570,174.114 81.168 C 173.528 80.297,172.756 78.946,172.029 77.517 C 171.737 76.943,171.129 75.863,170.679 75.117 C 170.228 74.371,169.616 73.250,169.318 72.626 C 169.019 72.001,168.547 71.219,168.269 70.888 C 167.990 70.557,167.762 70.119,167.762 69.914 C 167.762 69.709,167.496 69.205,167.170 68.795 C 166.844 68.385,166.413 67.621,166.213 67.097 C 166.013 66.574,165.775 66.145,165.684 66.145 C 165.593 66.145,165.319 65.681,165.075 65.114 C 164.831 64.546,164.530 64.020,164.406 63.943 C 164.282 63.866,163.994 63.368,163.766 62.836 C 162.878 60.763,160.498 57.799,159.721 57.799 C 159.572 57.799,159.044 57.626,158.546 57.414 C 157.600 57.012,155.924 56.771,155.034 56.910 M204.799 56.903 C 201.611 57.304,199.605 58.976,197.591 62.911 C 197.238 63.599,196.583 64.773,196.135 65.519 C 195.687 66.265,195.123 67.298,194.882 67.814 C 194.640 68.331,194.272 68.941,194.063 69.171 C 193.855 69.400,193.615 69.823,193.531 70.110 C 193.447 70.396,193.169 70.913,192.913 71.257 C 192.656 71.601,192.246 72.337,192.002 72.891 C 191.758 73.446,191.321 74.181,191.032 74.524 C 190.743 74.868,190.506 75.298,190.506 75.479 C 190.506 75.660,190.285 76.099,190.016 76.454 C 189.746 76.809,189.317 77.522,189.064 78.039 C 188.376 79.438,187.658 80.725,187.068 81.616 C 186.778 82.054,186.541 82.526,186.541 82.666 C 186.541 82.805,186.296 83.274,185.995 83.708 C 185.496 84.428,185.434 85.133,185.870 85.133 C 185.968 85.133,187.085 84.452,188.354 83.620 C 189.623 82.788,190.931 81.944,191.262 81.743 C 191.592 81.543,192.285 81.096,192.801 80.751 C 193.318 80.406,194.009 79.960,194.337 79.759 C 194.665 79.559,195.229 79.194,195.589 78.949 C 195.949 78.704,197.136 77.963,198.226 77.302 C 199.317 76.642,200.366 75.965,200.559 75.799 C 200.752 75.632,201.184 75.340,201.518 75.150 C 202.554 74.561,203.422 74.016,205.392 72.718 C 206.437 72.029,207.640 71.278,208.065 71.049 C 208.490 70.819,209.571 70.179,210.468 69.626 C 211.364 69.073,212.521 68.522,213.039 68.402 C 213.557 68.282,214.591 67.990,215.336 67.753 C 216.458 67.397,217.300 67.316,220.200 67.288 C 224.452 67.247,225.093 66.993,223.345 66.044 C 221.747 65.177,220.431 64.395,220.093 64.112 C 219.923 63.970,219.276 63.585,218.656 63.257 C 216.618 62.180,216.078 61.860,215.149 61.182 C 214.644 60.813,214.121 60.511,213.986 60.511 C 213.852 60.511,213.373 60.232,212.922 59.891 C 212.471 59.550,211.992 59.268,211.857 59.265 C 211.723 59.262,211.324 59.017,210.972 58.720 C 209.803 57.737,206.321 56.712,204.799 56.903 M141.805 77.003 C 138.991 77.620,137.193 79.152,132.508 84.924 C 131.809 85.785,130.864 86.945,130.408 87.502 C 129.606 88.480,129.376 89.157,129.764 89.397 C 130.176 89.651,171.958 89.547,172.267 89.291 C 172.591 89.022,172.321 88.477,171.858 88.466 C 171.728 88.462,171.200 88.230,170.683 87.948 C 170.167 87.667,169.275 87.199,168.701 86.908 C 168.127 86.617,167.423 86.246,167.136 86.084 C 166.849 85.921,165.511 85.252,164.163 84.596 C 162.814 83.941,161.711 83.339,161.711 83.258 C 161.711 83.178,161.312 82.995,160.824 82.850 C 160.336 82.706,159.656 82.378,159.311 82.122 C 158.967 81.865,158.357 81.542,157.955 81.405 C 157.553 81.267,156.875 80.923,156.447 80.640 C 156.019 80.357,155.596 80.125,155.508 80.125 C 155.334 80.125,152.422 78.751,150.813 77.909 C 149.872 77.418,147.203 76.880,144.705 76.680 C 144.120 76.633,142.846 76.775,141.805 77.003 M214.815 76.902 C 214.011 77.054,213.073 77.184,212.730 77.191 C 212.146 77.203,210.514 77.898,207.825 79.280 C 207.194 79.605,206.442 79.938,206.155 80.022 C 205.869 80.105,205.352 80.380,205.008 80.632 C 204.664 80.884,204.053 81.218,203.652 81.374 C 203.250 81.531,202.669 81.832,202.361 82.044 C 202.053 82.256,201.422 82.563,200.958 82.727 C 200.494 82.890,199.762 83.264,199.331 83.557 C 198.900 83.850,198.446 84.090,198.323 84.090 C 198.200 84.090,197.676 84.358,197.158 84.687 C 196.640 85.015,195.847 85.401,195.395 85.545 C 194.944 85.688,194.343 85.959,194.059 86.147 C 193.435 86.562,191.911 87.370,190.101 88.247 C 187.376 89.568,186.858 89.536,210.434 89.520 C 234.361 89.503,232.897 89.645,230.999 87.533 C 230.690 87.188,230.302 86.706,230.138 86.462 C 229.853 86.039,228.663 84.590,226.746 82.332 C 222.557 77.399,219.510 76.012,214.815 76.902 M179.238 88.127 C 178.014 88.588,177.588 90.334,178.323 91.877 C 179.245 93.810,182.176 93.814,183.030 91.883 C 184.228 89.174,182.089 87.055,179.238 88.127 M204.695 96.811 C 202.801 96.872,201.135 96.998,200.991 97.091 C 200.579 97.358,200.613 132.885,201.026 133.450 C 201.361 133.907,227.579 134.205,228.273 133.759 C 228.688 133.493,228.866 126.388,228.470 125.912 C 228.263 125.661,226.842 125.613,219.724 125.613 C 210.731 125.613,210.143 125.556,209.731 124.654 C 209.562 124.282,209.494 120.298,209.494 110.710 C 209.494 100.221,209.437 97.241,209.233 97.078 C 208.795 96.727,208.266 96.696,204.695 96.811 M301.513 96.811 C 296.250 96.930,296.205 96.939,295.993 97.807 C 295.916 98.124,295.628 98.712,295.353 99.113 C 295.078 99.515,294.720 100.221,294.557 100.683 C 294.395 101.144,294.015 101.885,293.714 102.329 C 293.413 102.773,293.166 103.292,293.166 103.483 C 293.166 103.674,292.895 104.201,292.563 104.654 C 292.231 105.107,291.864 105.828,291.746 106.256 C 291.629 106.685,291.337 107.284,291.098 107.588 C 290.859 107.892,290.567 108.499,290.449 108.938 C 289.876 111.064,288.458 110.605,287.174 107.877 C 286.877 107.246,286.457 106.475,286.241 106.165 C 286.025 105.854,285.740 105.291,285.609 104.913 C 285.477 104.535,285.110 103.816,284.793 103.316 C 284.477 102.816,284.159 102.142,284.088 101.818 C 284.017 101.494,283.827 101.120,283.667 100.987 C 283.506 100.853,283.179 100.221,282.940 99.581 C 282.700 98.941,282.219 98.057,281.871 97.618 L 281.238 96.818 276.234 96.818 C 273.183 96.818,271.072 96.902,270.826 97.034 C 270.432 97.245,270.423 97.667,270.423 115.172 L 270.423 133.094 270.972 133.527 C 271.677 134.081,277.746 134.191,278.468 133.663 C 278.859 133.377,278.874 133.002,278.903 122.945 C 278.938 110.999,279.061 110.247,280.594 112.631 C 280.794 112.943,281.157 113.359,281.401 113.556 C 281.645 113.754,281.905 114.222,281.980 114.596 C 282.055 114.971,282.357 115.640,282.650 116.084 C 282.944 116.527,283.315 117.263,283.476 117.718 C 283.636 118.173,283.945 118.798,284.161 119.106 C 284.377 119.414,284.672 120.042,284.817 120.501 C 284.962 120.960,285.242 121.523,285.439 121.753 C 285.636 121.982,286.010 122.706,286.269 123.362 C 286.528 124.017,286.866 124.658,287.021 124.787 C 287.176 124.915,287.411 125.365,287.544 125.786 C 288.150 127.706,289.422 128.734,289.716 127.543 C 289.794 127.227,290.122 126.547,290.446 126.030 C 290.770 125.514,291.102 124.857,291.184 124.570 C 291.266 124.283,291.595 123.625,291.914 123.109 C 292.234 122.593,292.562 121.949,292.643 121.679 C 292.724 121.409,293.016 120.856,293.291 120.451 C 293.567 120.045,293.888 119.354,294.006 118.916 C 294.124 118.478,294.313 118.062,294.426 117.992 C 294.650 117.854,295.462 116.258,295.462 115.956 C 295.462 115.852,295.644 115.536,295.866 115.253 C 296.089 114.970,296.430 114.251,296.624 113.655 C 297.061 112.317,297.265 112.050,297.853 112.050 C 298.760 112.050,298.800 112.520,298.800 123.096 C 298.800 132.297,298.829 133.113,299.165 133.516 C 299.659 134.107,306.723 134.236,307.388 133.667 C 307.756 133.351,307.773 132.563,307.773 115.177 L 307.773 97.016 307.237 96.813 C 306.943 96.701,306.638 96.629,306.559 96.654 C 306.481 96.679,304.210 96.749,301.513 96.811 M99.009 97.419 C 98.435 97.750,97.637 98.432,97.235 98.933 L 96.505 99.844 96.505 108.412 L 96.505 116.980 97.409 118.010 C 98.923 119.734,98.478 119.653,107.113 119.770 L 114.800 119.875 115.199 120.367 C 115.706 120.994,115.767 123.845,115.293 124.761 C 114.858 125.602,114.622 125.622,105.189 125.608 C 98.509 125.598,96.713 125.652,96.578 125.865 C 96.285 126.328,96.362 133.201,96.666 133.616 C 96.913 133.954,97.740 133.974,109.029 133.917 C 122.687 133.847,122.139 133.913,123.292 132.210 C 124.180 130.898,124.166 131.057,124.168 122.664 C 124.170 112.729,124.170 112.729,121.179 111.549 L 119.770 110.993 112.960 111.016 C 104.882 111.042,105.510 111.256,105.407 108.440 C 105.300 105.535,104.450 105.777,114.937 105.727 C 121.362 105.697,123.780 105.620,123.961 105.439 C 124.238 105.163,124.334 97.347,124.063 97.077 C 123.979 96.992,118.541 96.898,111.981 96.869 L 100.052 96.816 99.009 97.419 M134.045 97.240 C 132.986 97.765,132.437 98.269,131.710 99.388 L 131.142 100.261 131.083 116.614 C 131.030 131.135,131.060 133.023,131.349 133.463 C 131.769 134.106,139.061 134.253,139.683 133.631 C 139.965 133.348,140.010 132.478,140.010 127.281 C 140.010 121.396,140.113 120.309,140.702 119.934 C 141.153 119.647,149.279 119.740,149.685 120.037 C 150.318 120.500,150.444 121.810,150.420 127.650 C 150.402 132.040,150.458 133.413,150.668 133.665 C 151.121 134.211,158.290 134.015,158.706 133.445 C 158.962 133.095,158.998 130.620,158.950 116.648 L 158.894 100.261 158.403 99.272 C 158.037 98.537,157.611 98.095,156.740 97.551 L 155.569 96.818 145.233 96.818 C 135.279 96.818,134.867 96.834,134.045 97.240 M169.118 97.058 C 167.851 97.747,167.130 98.410,166.591 99.383 L 165.989 100.469 165.927 114.971 C 165.860 130.750,165.849 130.591,167.034 132.290 C 168.149 133.888,167.744 133.842,181.250 133.914 L 193.173 133.978 193.626 133.403 L 194.079 132.827 194.014 122.356 C 193.934 109.562,194.515 111.007,189.456 111.007 C 184.706 111.007,185.209 110.173,185.081 118.256 L 184.977 124.816 184.484 125.214 C 184.037 125.576,183.617 125.613,179.936 125.613 C 175.158 125.613,174.999 125.548,174.766 123.502 C 174.510 121.255,174.730 106.460,175.023 106.166 C 175.234 105.955,177.327 105.871,184.448 105.790 C 189.482 105.733,193.671 105.617,193.755 105.532 C 194.111 105.176,194.094 97.514,193.736 97.157 C 193.317 96.737,169.881 96.643,169.118 97.058 M238.801 97.018 C 235.486 98.360,235.576 97.797,235.576 117.080 L 235.576 133.094 236.126 133.527 C 237.013 134.225,243.521 134.189,243.898 133.484 C 244.078 133.147,244.165 131.247,244.195 126.963 C 244.250 119.103,243.744 119.770,249.642 119.770 C 254.980 119.770,254.432 118.968,254.564 126.981 C 254.643 131.779,254.734 133.379,254.940 133.584 C 255.137 133.782,256.269 133.872,259.140 133.920 L 263.070 133.984 263.251 133.398 C 263.351 133.075,263.386 125.394,263.328 116.295 L 263.224 99.778 262.583 98.976 C 262.230 98.535,261.492 97.869,260.942 97.496 L 259.942 96.818 249.585 96.831 C 243.889 96.838,239.036 96.922,238.801 97.018 M149.923 106.078 C 150.757 106.689,150.525 110.308,149.620 110.792 C 149.208 111.013,141.358 111.114,140.821 110.906 C 139.999 110.587,139.649 107.234,140.335 106.254 C 140.742 105.673,149.158 105.519,149.923 106.078 M254.183 106.136 C 254.770 106.667,254.734 109.691,254.132 110.457 L 253.699 111.007 249.659 111.007 C 247.437 111.007,245.390 110.920,245.110 110.813 C 243.936 110.367,243.733 106.690,244.841 105.950 C 245.363 105.602,253.778 105.769,254.183 106.136 M170.065 139.757 C 167.895 139.817,167.139 140.066,167.135 140.721 C 167.134 140.847,166.985 141.231,166.803 141.575 C 165.997 143.100,164.369 146.345,163.393 148.369 C 162.151 150.948,161.063 152.183,160.294 151.887 L 159.816 151.703 159.843 146.057 C 159.863 141.908,159.803 140.330,159.617 140.106 C 159.262 139.679,154.573 139.664,154.220 140.090 C 153.776 140.625,153.890 166.130,154.339 166.457 C 154.575 166.630,155.493 166.719,157.051 166.719 C 160.162 166.719,159.966 167.139,159.833 160.772 C 159.713 155.001,159.720 154.900,160.288 154.596 C 160.983 154.224,162.146 155.559,163.385 158.151 C 163.964 159.363,164.590 160.636,164.777 160.981 C 165.769 162.813,167.133 165.600,167.135 165.800 C 167.141 166.722,172.986 167.277,173.327 166.388 C 173.431 166.118,172.322 163.544,171.492 162.128 C 171.391 161.956,170.697 160.595,169.950 159.103 C 169.203 157.611,168.359 155.969,168.073 155.455 C 167.118 153.733,167.184 152.323,168.303 150.600 C 168.583 150.170,169.001 149.310,169.234 148.689 C 169.466 148.068,169.788 147.450,169.950 147.316 C 170.112 147.181,170.358 146.727,170.496 146.306 C 170.634 145.885,170.976 145.177,171.255 144.734 C 171.534 144.290,171.887 143.572,172.041 143.137 C 172.194 142.702,172.570 141.968,172.876 141.506 C 173.923 139.924,173.503 139.663,170.065 139.757 M180.490 140.612 L 179.551 141.422 179.447 153.666 C 179.390 160.400,179.410 166.092,179.492 166.315 C 179.631 166.687,179.863 166.719,182.462 166.719 C 185.838 166.719,185.475 167.325,185.548 161.571 C 185.619 156.059,185.456 156.286,189.348 156.286 C 193.415 156.286,193.389 156.247,193.381 162.368 C 193.378 164.507,193.440 166.362,193.518 166.489 C 193.786 166.923,199.216 166.792,199.455 166.345 C 199.765 165.766,199.565 142.439,199.245 141.841 C 199.106 141.582,198.636 141.018,198.200 140.586 L 197.408 139.802 189.419 139.802 L 181.429 139.803 180.490 140.612 M204.732 140.167 C 204.453 140.712,204.418 165.785,204.695 166.303 C 204.977 166.829,210.460 166.956,210.657 166.440 C 210.716 166.287,210.783 164.184,210.807 161.767 C 210.854 156.980,210.975 156.495,212.125 156.495 C 213.176 156.495,214.502 157.872,214.502 158.964 C 214.502 159.062,214.684 159.308,214.907 159.509 C 215.130 159.711,215.370 160.138,215.441 160.458 C 215.511 160.778,215.832 161.456,216.154 161.963 C 216.476 162.471,216.850 163.209,216.985 163.603 C 217.120 163.997,217.538 164.836,217.915 165.467 L 218.599 166.615 221.428 166.672 C 224.544 166.736,225.106 166.473,224.070 165.437 C 223.841 165.208,223.523 164.650,223.364 164.197 C 223.204 163.744,222.850 163.070,222.578 162.699 C 222.306 162.328,221.975 161.640,221.842 161.171 C 221.709 160.702,221.412 160.102,221.182 159.837 C 220.764 159.355,220.348 158.180,220.345 157.476 C 220.344 156.904,221.289 156.078,221.952 156.073 C 224.546 156.052,224.770 155.354,224.687 147.550 L 224.622 141.422 223.683 140.612 L 222.744 139.803 213.831 139.802 C 205.552 139.802,204.905 139.828,204.732 140.167 M230.593 139.991 C 230.212 140.232,230.174 145.333,230.551 145.710 C 230.706 145.866,231.880 145.996,233.721 146.062 C 237.842 146.209,237.439 145.054,237.403 156.633 C 237.369 167.795,237.063 166.719,240.264 166.719 C 243.657 166.719,243.339 167.809,243.268 156.408 C 243.197 144.987,242.775 146.209,246.844 146.058 C 248.622 145.993,249.844 145.857,249.991 145.710 C 250.322 145.380,250.294 140.501,249.960 140.098 C 249.676 139.756,231.126 139.654,230.593 139.991 M192.718 146.221 C 193.562 146.785,193.545 148.788,192.689 149.785 C 192.142 150.421,187.521 150.759,186.541 150.235 C 185.540 149.699,185.134 147.261,185.915 146.479 C 186.348 146.046,192.128 145.827,192.718 146.221 M218.258 146.479 C 219.109 147.330,218.598 149.827,217.485 150.252 C 216.230 150.731,212.076 150.409,211.452 149.784 C 210.717 149.048,210.591 146.846,211.255 146.358 C 211.963 145.839,217.717 145.938,218.258 146.479 " stroke="none" fill="#11674f" fill-rule="evenodd"></path></g></svg>