<?xml version="1.0" encoding="utf-8"?>
<!-- Generator: Adobe Illustrator 19.2.0, SVG Export Plug-In . SVG Version: 6.00 Build 0)  -->
<svg version="1.1" id="Layer_1" xmlns="http://www.w3.org/2000/svg" xmlns:xlink="http://www.w3.org/1999/xlink" x="0px" y="0px"
	 viewBox="0 0 1707.1 295.6" style="enable-background:new 0 0 1707.1 295.6;" xml:space="preserve">
<style type="text/css">
	.st0{fill-rule:evenodd;clip-rule:evenodd;fill:#6950A1;}
	.st1{fill-rule:evenodd;clip-rule:evenodd;fill:#60378C;}
</style>
<path class="st0" d="M30.6,26.7h101.2c5.6,0,13.1,3.7,14.6,9.3l29.5,121.4l14.9-116.9c1.1-6.7,5.6-15.7,12.3-16.1l78.8-2.2
	c5.6,0,10.1,7.1,11.2,12.7l21.3,115.1l22.8-115.8c0.7-4.9,4.9-11.2,9.7-11.2h88.5c4.9,0,8.2,8.2,7.1,13.1l-50.8,209.9
	c-1.9,7.1-5.6,17.2-13.1,17.6l-88.5,5.2c-6.4,0.4-16.8,1.5-18.3-4.5l-28.8-113.6L223,260.5c-1.1,5.6-4.9,13.1-10.8,13.4l-99,6
	c-7.5,0.7-16.1-4.5-18.3-11.2l-71.3-223C21.6,39.4,23.9,26.7,30.6,26.7z"/>
<g>
	<polygon class="st1" points="509.5,27 527,21.8 530.8,20.7 534.9,19.9 539.4,19.2 543.5,18.4 548,18.1 551.3,18.1 554.3,17.7 
		557.7,17.7 561.4,17.3 564.8,17.3 568.5,17.3 572.2,17 576,17 579.7,17 583.8,17 587.6,17 591.7,16.6 595.8,16.6 599.9,16.6 
		604,16.6 608.1,16.6 612.2,16.6 616.3,16.6 620.1,16.6 624.2,17 628.3,17 632.4,17 636.1,17 639.9,17 644,17.3 647.7,17.3 
		651.1,17.3 654.8,17.7 658.2,17.7 661.5,17.7 664.9,18.1 667.9,18.1 672.4,18.4 676.8,19.2 680.9,19.9 685.4,20.7 689.2,21.8 
		693.3,23.3 697,24.4 700.7,26.3 704.5,28.2 707.8,30 711.2,31.9 714.2,34.1 717.6,36.8 720.2,39.4 723.2,42 725.8,44.6 728.4,47.6 
		730.6,50.9 732.9,53.9 735.1,57.3 737,60.7 738.5,64.4 740.3,68.1 741.8,71.9 743,75.6 744.1,79.7 745.2,83.4 745.9,87.6 746.3,92 
		746.7,96.1 747.1,100.6 747.1,105.1 747.1,148.1 747.1,152.6 746.7,157 746.3,161.1 745.6,165.6 744.8,169.7 743.7,173.8 
		742.6,178 741.1,181.7 739.2,185.8 733.2,199.2 734.7,195.1 736.2,191 737.7,186.9 738.8,182.4 739.6,178 740.3,173.5 741.1,169 
		741.5,164.5 741.5,159.7 741.5,114.5 741.5,109.6 741.1,105.1 740.7,100.6 740,96.1 739.2,91.7 738.1,87.6 737,83.4 735.5,79.3 
		734,75.2 732.5,71.5 730.6,67.8 728.4,64 726.1,60.7 723.9,57.3 721.3,53.9 718.7,50.9 716.1,48 713.1,45 710.1,42.4 706.7,39.7 
		703.4,37.5 700,35.3 696.3,33.4 692.5,31.5 688.8,29.7 684.7,28.2 680.6,26.7 676.1,25.5 671.6,24.8 667.1,24 662.6,23.3 
		657.8,22.9 654.4,22.6 651.1,22.6 647.7,22.6 644,22.2 640.2,22.2 636.5,21.8 632.4,21.8 628.6,21.8 624.5,21.8 620.4,21.4 
		616.3,21.4 611.8,21.4 607.7,21.4 603.2,21.4 599.1,21.4 594.7,21.4 590.5,21.4 586.1,21.4 582,21.4 577.8,21.4 573.4,21.4 
		569.2,21.4 565.1,21.4 561,21.8 556.9,21.8 553.2,21.8 549.5,22.2 545.7,22.2 542,22.2 538.6,22.6 534.9,22.6 531.9,22.9 527,23.3 
		522.6,24 518.1,24.8 513.6,25.9 	"/>
	<polygon class="st1" points="640.6,172.4 651.4,160.4 649.2,162.6 646.9,164.5 644.3,166.7 641.7,168.2 639.1,169.7 636.1,170.9 
		632.8,171.6 629.8,172 626.4,172 593.5,172 590.2,172 586.8,171.6 583.8,170.9 580.8,169.7 577.8,168.2 575.2,166.7 573,164.5 
		570.7,162.6 568.5,160.4 566.6,157.8 565.1,155.2 563.6,152.2 562.5,149.2 561.8,146.6 561.4,143.2 561,139.9 561,111.8 
		561.4,108.8 561.8,105.5 562.5,102.5 563.6,99.5 565.1,96.5 566.6,93.9 568.5,91.3 570.7,89 573,86.8 575.2,84.9 577.8,83.4 
		563.3,91.7 560.7,93.2 557.7,95.4 555.4,97.6 553.2,99.9 551.3,102.5 549.5,105.5 548,108.5 546.8,111.5 546.1,114.8 545.7,118.2 
		545.3,121.5 545.3,150.7 545.7,154.4 546.1,157.8 546.8,160.8 548,164.1 549.5,167.1 551.3,169.7 553.2,172.4 555.4,175 
		557.7,177.2 560.7,179.1 563.3,180.9 566.3,182.4 569.2,183.6 572.6,184.3 576,184.7 579.3,185.1 614.1,185.1 617.8,184.7 
		621.2,184.3 624.2,183.6 627.5,182.4 630.5,180.9 633.1,179.1 635.7,177.2 638.4,175 	"/>
</g>
<path class="st0" d="M596.9,21.4c22.4,0,44.5,0.4,60.9,1.5c51.2,3,83.7,41.1,83.7,91.5v45.2c0,50.4-37.4,91.5-88.5,91.5h-56v-66.1
	h17.2c18.7,0,34-15.3,34-34.4v-29.1c0-18.7-15.3-34-34-34h-17.2V21.4z M531.9,22.9c17.6-1.1,41.5-1.5,65-1.5v66.1h-17.6
	c-18.7,0-34,15.3-34,34v29.1c0,19.1,15.3,34.4,34,34.4h17.6v66.1h-51.6c-51.2,0-93-41.1-93-91.5v-45.2
	C452.3,64,480.7,26.3,531.9,22.9z"/>
<path class="st0" d="M924.9,19.2h44.8c33.2,1.9,68,1.1,82.2,49.7c2.2,17.6,4.1,35.1,0,52.7c-11.2,36.2-30.6,49.7-54.2,57.2
	c26.1,20.9,46.7,40,69.9,66.1c3.7,4.1-0.4,16.1-6.4,16.1h-90.8c-6,0-12.7-1.9-17.2-6l-28.4-27.6v-88.5h26.5c10.8,0,19.8-9,19.8-19.8
	v-14.2c0-10.8-9-19.8-19.8-19.8h-26.5V19.2z M792.3,33c0-10.5,3-13.8,12.3-13.8h120.3v65.7h-45.9v53.8h45.9v88.5l-45.2-44.1
	c0,22.8,0,44.1,0,66.9c1.1,7.8-1.9,12.3-8.6,14.2c-19.8,0-43.3,0-65.7,0c-7.5,0.4-12-1.1-13.1-4.9V33z"/>
<g>
	<polygon class="st1" points="1093.4,19.9 1106.4,16.2 1108.3,15.8 1187.9,16.6 1189.4,16.6 1190.8,17.3 1192,18.1 1193.1,19.2 
		1193.8,20.7 1194.2,22.2 1194.6,24 1194.6,25.9 1194.6,155.9 1187.1,168.6 1187.1,30.4 1187.1,28.5 1186.7,26.7 1186.4,24.8 
		1185.6,23.3 1184.5,22.2 1183.4,21.4 1181.9,20.7 1180,20.3 1095.2,19.9 	"/>
	<polygon class="st1" points="1187.1,168.6 1194.6,155.9 1318.6,155.9 1320.5,155.9 1322.3,156.3 1323.8,157 1325,158.2 
		1326.1,159.3 1326.8,160.8 1327.2,162.6 1327.2,164.5 1328.3,178 1328.3,176.1 1327.9,174.2 1326.8,172.7 1326.1,171.2 
		1324.6,170.1 1323.1,169.4 1321.2,169 1319,168.6 	"/>
</g>
<path class="st0" d="M1084.8,32.6c0-5.6,4.9-12.7,10.5-12.7l84.8,0.4c5.2,0.4,7.1,4.9,7.1,10.1v138.2H1319c6,0,9.3,3.7,9.3,9.3v68.7
	c0,4.9-5.6,10.8-10.5,10.5l-221.9-7.1c-6-0.4-11.2-6-11.2-12V32.6z"/>
<polygon class="st1" points="1364.2,28.2 1416.5,23.7 1418.3,23.7 1366,28.2 "/>
<path class="st0" d="M1499,24.4c6.4,0.4,13.1,0.4,19.8,0.7c73.6,1.9,121.4,14.6,136.7,77c8.2,56,8.2,113.9-17.9,148.7
	c-28.4,32.5-61.3,30.6-95.3,29.5c-14.6-0.4-29.1-0.7-43.3-1.5v-80.3c6,0.4,12,0.7,17.6,1.1c19.4,0,31.8-9,35.1-28.4
	c0-12,0-23.9,0-35.9c-3.7-18.3-17.6-25.4-35.5-27.6c-6,0-11.6,0-17.2,0V24.4z M1355.6,40.9c0.7-9.3,4.5-13.4,10.5-12.7
	c44.5-3,88.5-4.5,133-3.7v83.3c-17.2,0-34.4,0-51.6,0c-0.4,28.8-1.1,57.5-1.5,86.7c17.6,1.1,35.5,2.6,53,4.1v80.3
	c-48.2-3-94.5-9-140.1-16.4c-4.5-1.5-7.1-4.1-7.8-7.1C1352.6,183.6,1354.1,112.6,1355.6,40.9z"/>
<path class="st1" d="M1673.5,232.9l-2.2,3l-2.6,2.6l-2.6,2.2l-2.6,2.2l-2.6,2.2l-2.6,1.9l-2.6,1.5l-2.6,1.9l-2.6,1.5l-37.4,18.7
	c8.6-4.5,16.8-10.8,24.7-19.8c26.1-34.7,26.1-92.6,17.9-148.7c-3.7-15.3-9.7-28-17.6-38.1l0,0c-1.9-2.2-4.1-4.9-6-7.1l0,0l0,0
	c-1.1-1.1-2.2-1.9-3.4-3l0,0l0,0h-0.4c-1.1-1.1-2.2-2.2-3.4-3l0,0c-1.1-1.1-2.2-1.9-3.7-2.6V48l0,0l0,0c-1.1-0.7-2.6-1.5-3.7-2.2
	l0,0l-0.4-0.4c-1.1-0.7-2.2-1.5-3.7-1.9v-0.4h-0.4c-1.1-0.7-2.6-1.5-3.7-2.2l0,0h-0.4c-1.1-0.7-2.6-1.1-3.7-1.9h-0.4l-0.4-0.4
	c-1.5-0.4-2.6-0.7-3.7-1.5h-0.7l-0.4-0.4c-1.1-0.4-2.6-0.7-3.7-1.1l-0.4-0.4h-0.7c-1.1-0.4-2.6-0.7-3.7-1.1l-0.4-0.4h-0.7
	c-1.1-0.4-2.6-0.7-4.1-1.1h-0.4l-0.7-0.4c-1.1-0.4-2.6-0.7-4.1-0.7l-0.4-0.4h-0.7c-1.1-0.4-2.6-0.7-4.1-0.7l-0.7-0.4h-0.7
	c-1.5-0.4-3-0.4-4.5-0.7h-0.4h-0.4c-1.5-0.4-3-0.7-4.5-0.7l-0.7-0.4h-1.1c-1.1,0-2.2-0.4-3.7-0.4l-1.1-0.4h-1.1
	c-1.1,0-2.2-0.4-3.7-0.4h-1.1l-1.1-0.4c-1.5,0-2.6,0-4.1-0.4h-1.1h-1.1c-1.1,0-2.2,0-3.4-0.4h-1.9h-1.9c-1.1,0-1.9-0.4-3-0.4h-1.5
	h-1.5c-1.1,0-2.6,0-3.7-0.4h-1.5h-1.5c-1.5,0-3.4,0-5.2,0l-4.9-0.4h-4.9h-4.9l-4.5-0.4h-4.9h-4.9h-4.9h-4.5h-4.9h-4.9h-4.9h-4.5
	h-4.9h-4.9h-4.9l-4.5,0.4h-4.9h-4.9l-4.9,0.4h-4.5l-4.9,0.4h-4.9l-4.9,0.4h-4.9l-4.5,0.4l-4.9,0.4h-4.9l-4.9,0.4l-4.5,0.4l-4.9,0.4
	l-4.9,0.4h-4.9l52.3-4.5h4.5l4.5-0.4l4.5-0.4l4.5-0.4h4.5l4.5-0.4l4.5-0.4h4.5l4.5-0.4h4.5l4.5-0.4h4.5l4.5-0.4h4.5h4.5l4.5-0.4h4.5
	h4.5h4.5l4.5-0.4h4.5h4.5h4.5h4.5h4.5h4.5l4.5,0.4h4.5h4.5h4.5l4.5,0.4h4.5l6.4,0.4h6.4l6.4,0.4l6,0.4l5.6,0.7l6,0.4l5.2,0.7
	l5.6,0.7l5.2,1.1l5.2,1.1l4.9,1.1l4.9,1.1l4.5,1.5l4.5,1.5l4.1,1.9l4.5,1.9l3.7,2.2l3.7,2.2l3.7,2.2l3.7,2.6l3,3l3.4,3l3,3l2.6,3.4
	l3,3.7l2.2,4.1l2.2,4.1l2.2,4.1l1.9,4.5l1.9,4.9l1.5,5.2l1.5,5.6l0.7,4.9l0.7,4.9l0.7,4.9l0.4,5.2l0.4,4.9l0.7,4.9l0.4,4.9l0.4,4.9
	v4.9l0.4,4.9v4.9v4.5v4.9l-0.4,4.5v4.9l-0.4,4.5l-0.7,4.5l-0.4,4.5l-0.7,4.5l-0.7,4.1l-0.7,4.5l-1.1,4.1l-1.1,4.1l-1.1,4.1l-1.1,3.7
	l-1.5,3.7l-1.5,3.7l-1.9,3.7l-1.9,3.4l-1.9,3.4l-2.2,3.4L1673.5,232.9z"/>
<path class="st1" d="M1516.6,199.6h-1.5c-0.4,0-1.1,0-1.5-0.4h-0.4c-22.4-1.5-44.8-3.4-67.2-4.9c0.4-29.1,1.1-57.9,1.5-86.7
	c15.7,0,31.4,0,47.1,0c-0.4,23.9-0.7,48.2-1.1,72.1c18.3,1.5,36.2,2.6,54.2,4.1c-4.9,9-13.1,13.8-23.9,15.3l0,0l0,0L1516.6,199.6z"
	/>
<path class="st1" d="M955.9,256.8l-32.1-20.9l-0.7-0.7l-1.1-0.4l-0.7-0.7l-41.5-40.3c0-3.4,0-6.7,0-10.5l73.6,71.7
	c0.4,0,0.7,0.4,0.7,0.7l0,0c0.4,0,0.7,0.4,1.1,0.7l0,0C955.5,256.4,955.5,256.8,955.9,256.8L955.9,256.8z"/>
<path class="st1" d="M957.4,86.1H957l-0.7-0.4c-1.5-0.4-3.4-0.7-4.9-0.7h-16.1l0.4,0.7l0.7,1.5l0.4,1.9l0.7,1.9v1.9l0.4,1.9v12.7
	l-0.4,1.9v1.9l-0.7,1.9l-0.4,1.5l-0.7,1.9l-1.1,1.5l-1.1,1.5l-1.1,1.1l-1.1,1.1l-1.5,1.1l-1.5,1.1l-1.9,0.7l-1.5,0.4l-1.9,0.7h-1.9
	l-1.9,0.4h-40.3v12.7h72.5h1.9l0,0l1.9-0.4l0,0l2.2-0.7l0,0l1.5-0.4l0,0l1.9-1.1l1.5-0.7l0,0l1.9-1.1l0,0l1.1-1.5l0,0l1.5-1.5l0,0
	l1.1-1.5l0,0l0.7-1.5l0,0l1.1-1.9l0.7-1.9l0.4-1.9l0.4-1.9v-1.9v-14.2v-1.9l-0.4-1.9l-0.4-1.9l-0.7-1.9l-1.1-1.9l-0.7-1.5l-1.1-1.5
	l-1.5-1.5l-1.1-1.1l-1.9-1.5l-1.5-0.7l0,0l-1.9-0.7l0,0L957.4,86.1L957.4,86.1L957.4,86.1z"/>
<g>
	<path class="st1" d="M952.9,15.8h1.1l2.6,0.4h3l2.6,0.4l32.9,4.5l-19.1-1.5l-3.4-0.4h-3L952.9,17V15.8L952.9,15.8z M952.9,19.2
		h16.8L952.9,17V19.2z M936.5,14.7h3l2.6,0.4h3l3,0.4h3l1.9,0.4V17L936.5,14.7L936.5,14.7z M952.9,17l-16.4-2.2H782.9h-3l-2.6,0.7
		l-1.9,0.7l-1.5,1.1l-1.1,1.9l-0.7,2.2l-0.4,3l-0.4,3.4v210.3l20.9,21.3V33c0-2.6,0-4.9,0.4-6.7l0,0c0.7-2.6,1.9-4.5,3.7-5.6l0,0
		h0.4c0.4-0.4,1.1-0.7,1.9-0.7l0,0l0,0c0.7-0.4,1.9-0.7,2.6-0.7l0,0h0.4c0.7,0,1.9,0,3,0h148.3V17z"/>
</g>
<g>
	<path class="st1" d="M97.4,273.2L82.1,256l-0.7-1.1l-0.7-1.1l-0.7-1.1l-0.4-1.1L12.6,42l-0.4-1.1v-1.5l-0.4-1.5v-1.1v-1.5l0.4-1.5
		v-1.5l0.4-1.5l0.7-1.5l0.4-1.1l0.7-1.1l0.7-1.1l0.7-0.7l0.7-0.4l1.1-0.7H19h95.6l1.9,0.4l17.6,2.6l0,0c-0.7-0.4-1.5-0.4-2.2-0.4
		H30.6c-0.7,0-1.1,0-1.5,0.4l0,0l0,0c-0.4,0-0.7,0-1.1,0.4l0,0l0,0c-0.4,0-0.4,0.4-0.7,0.4l0,0l0,0c-0.4,0.4-0.7,0.7-1.1,1.1l0,0
		l0,0c0,0.4-0.4,0.4-0.7,0.7l0,0V30c0,0.4-0.4,0.7-0.4,1.1h-0.4l0,0c0,0.4-0.4,0.7-0.4,1.1l0,0l0,0c-0.4,0.7-0.4,1.1-0.4,1.5l0,0
		l0,0l0,0c-0.4,0.4-0.4,1.1-0.4,1.5l0,0l0,0l0,0c-0.4,0.7-0.4,1.1-0.4,1.5l0,0l0,0l0,0c0,0.7,0,1.1,0,1.5v0.4l0,0l0,0
		c-0.4,0.4-0.4,0.7-0.4,1.5l0,0l0,0c0,0.4,0,0.7,0,1.5l0,0c0.4,0.4,0.4,1.1,0.4,1.5l0,0c0,0.4,0,0.7,0,1.1l0,0
		c0.4,0.7,0.4,1.1,0.4,1.5l71.3,223C95.2,270.2,96.3,272.1,97.4,273.2z"/>
	<path class="st1" d="M161.7,99.9l8.2-63.1l0.4-2.2l1.1-2.6l0.7-2.2l1.5-2.6l1.5-1.9l1.9-1.5l2.2-1.1l2.2-0.7l74-1.9l26.5,2.2
		l-78.8,2.2c-0.7,0-1.5,0.4-2.6,0.4l0,0l0,0c-0.7,0.4-1.5,0.7-1.9,1.1l0,0l0,0c-0.7,0.7-1.5,1.1-2.2,1.9l0,0l0,0
		c-0.4,0.7-1.1,1.5-1.5,2.2l0,0c-2.2,3-3.4,7.1-4.1,10.5l-14.9,116.9L161.7,99.9z"/>
	<path class="st1" d="M299.9,70.4l7.5-39.2l0.4-1.9l0.7-1.9l1.1-1.5l1.1-1.9l1.1-1.5l1.5-1.1l1.5-0.7h1.9H400l35.5,2.2H347
		c-0.7,0-1.1,0-1.9,0.4l0,0l0,0c-0.4,0-1.1,0.4-1.5,0.7l0,0l0,0c-0.7,0.4-1.1,0.7-1.5,1.1l0,0h-0.4c-0.4,0.4-0.7,1.1-1.1,1.5l0,0
		l0,0l0,0c-0.4,0.7-0.7,1.1-1.1,1.9l0,0l0,0l0,0c-0.4,0.7-0.7,1.1-1.1,1.9l0,0c-0.4,1.5-1.1,2.6-1.1,3.7l-22.8,115.8L299.9,70.4z"/>
	<path class="st1" d="M273.8,266.9l-25-16.4l-1.1-0.7l-0.4-0.7l-0.7-0.7l-0.4-0.7l-12-47.8l9-48.9l28.8,113.6
		C272.3,265.4,273,266.5,273.8,266.9z"/>
</g>
</svg>
